<svg xmlns="http://www.w3.org/2000/svg" width="480" height="456" class="">
    <defs>
        <style/>
    </defs>
    <style>@keyframes animation-gauge{0%{stroke-dasharray:0 329}}@keyframes animation-rainbow{0%,to{color:#7f00ff;fill:#7f00ff}14%{color:#a933ff;fill:#a933ff}29%{color:#007fff;fill:#007fff}43%{color:#00ff7f;fill:#00ff7f}57%{color:#ff0;fill:#ff0}71%{color:#ff7f00;fill:#ff7f00}86%{color:red;fill:red}}svg{font-family:-apple-system,BlinkMacSystemFont,Segoe UI,Helvetica,Arial,sans-serif,Apple Color Emoji,Segoe UI Emoji;color:#777}h2,h3{margin:8px 0 2px;padding:0;color:#0366d6;font-weight:400}h2 svg,h3 svg{fill:currentColor}h2{font-size:16px}h3,svg{font-size:14px}section&gt;.field{margin-left:5px;margin-right:5px}.field{display:flex;align-items:center;margin-bottom:2px;white-space:nowrap}.field svg{margin:0 8px;fill:#959da5;flex-shrink:0}.row{display:flex;flex-wrap:wrap}.row section{flex:1 1 0}.margin-bottom{margin-bottom:16px}.margin-lr-auto{margin-left:auto;margin-right:auto}.diff-handle{color:#58a6ff;max-width:200px;text-overflow:ellipsis;overflow:hidden}.diff-box{display:inline-block;width:8px;height:8px;margin-left:1px;background-color:rgba(110,118,129,.4);border:1px solid rgba(246,240,251,.1)}.diff-box:first-child{margin-left:9px}.diff-box.added{background-color:#3fb950}.diff-box.deleted{background-color:#da3633}.diff-stats,code,span.code{font-family:SFMono-Regular,Consolas,Liberation Mono,Menlo,monospace}.diff-stats{margin-left:4px;font-weight:700;font-size:12px;white-space:nowrap}.added{color:#3fb950}.deleted{color:#da3633}code,span.code{background-color:#7777771f;padding:1px 5px;font-size:80%;border-radius:6px;color:#777}code{display:inline-block}span.code{margin:0 4px -3px}:root{--color-calendar-graph-day-bg:#ebedf0;--color-calendar-graph-day-border:rgba(27,31,35,0.06);--color-calendar-graph-day-L1-bg:#9be9a8;--color-calendar-graph-day-L2-bg:#40c463;--color-calendar-graph-day-L3-bg:#30a14e;--color-calendar-graph-day-L4-bg:#216e39;--color-calendar-halloween-graph-day-L1-bg:#ffee4a;--color-calendar-halloween-graph-day-L2-bg:#ffc501;--color-calendar-halloween-graph-day-L3-bg:#fe9600;--color-calendar-halloween-graph-day-L4-bg:#03001c;--color-calendar-winter-graph-day-L1-bg:#0a3069;--color-calendar-winter-graph-day-L2-bg:#0969da;--color-calendar-winter-graph-day-L3-bg:#54aeff;--color-calendar-winter-graph-day-L4-bg:#b6e3ff;--color-calendar-graph-day-L4-border:rgba(27,31,35,0.06);--color-calendar-graph-day-L3-border:rgba(27,31,35,0.06);--color-calendar-graph-day-L2-border:rgba(27,31,35,0.06);--color-calendar-graph-day-L1-border:rgba(27,31,35,0.06)}#metrics-end{width:100%}</style>
    <style/>
    <foreignObject x="0" y="0" width="100%" height="100%">
        <div xmlns="http://www.w3.org/1999/xhtml" xmlns:xlink="http://www.w3.org/1999/xlink" class="items-wrapper">
            <section>
                <h2 class="field">
                    <svg xmlns="http://www.w3.org/2000/svg" viewBox="0 0 16 16" width="16" height="16">
                        <path fill-rule="evenodd" d="M2.75 1.5a.25.25 0 00-.25.25v12.5c0 .138.112.25.25.25h10.5a.25.25 0 00.25-.25V4.664a.25.25 0 00-.073-.177l-2.914-2.914a.25.25 0 00-.177-.073H2.75zM1 1.75C1 .784 1.784 0 2.75 0h7.586c.464 0 .909.184 1.237.513l2.914 2.914c.329.328.513.773.513 1.237v9.586A1.75 1.75 0 0113.25 16H2.75A1.75 1.75 0 011 14.25V1.75zm7 1.5a.75.75 0 01.75.75v1.5h1.5a.75.75 0 010 1.5h-1.5v1.5a.75.75 0 01-1.5 0V7h-1.5a.75.75 0 010-1.5h1.5V4A.75.75 0 018 3.25zm-3 8a.75.75 0 01.75-.75h4.5a.75.75 0 010 1.5h-4.5a.75.75 0 01-.75-.75z"/>
                    </svg>
                    Lines of code pushed
                </h2>
                <div class="row">
                    <section>
                        <div class="field">
                            <svg xmlns="http://www.w3.org/2000/svg" viewBox="0 0 16 16" width="16" height="16">
                                <path fill-rule="evenodd" d="M8 5.5a2.5 2.5 0 100 5 2.5 2.5 0 000-5zM4 8a4 4 0 118 0 4 4 0 01-8 0z"/>
                            </svg>
                            <span class="diff-handle">bstordrup/bstordrup</span>
                        </div>
                    </section>
                    <section>
                        <div class="field">
                            <div class="diff-box added"></div>
                            <div class="diff-box added"></div>
                            <div class="diff-box added"></div>
                            <div class="diff-box deleted"></div>
                            <div class="diff-box deleted"></div>
                            <div class="diff-stats">
                                <span class="added"> +17.3k</span>
                                <span class="deleted"> -17.3k</span>
                            </div>
                            <span> </span>
                        </div>
                    </section>
                </div>
                <div class="row margin-bottom">
                    <h3 class="margin-lr-auto">Diff history</h3>
                    <svg xmlns="http://www.w3.org/2000/svg" width="480" height="315">
                        <g transform="translate(0,276)" fill="none" font-size="10" font-family="sans-serif" text-anchor="middle">
                            <path class="domain" stroke="currentColor" d="M39.5,6V0.5H441.5V6"/>
                            <g class="tick" opacity="1" transform="translate(57.69331065759638,0)">
                                <line stroke="currentColor" y2="6"/>
                                <text fill="currentColor" y="9" dy="0.71em" transform="translate(-5,5) rotate(-45)" style="text-anchor: end;">February</text>
                            </g>
                            <g class="tick" opacity="1" transform="translate(83.2171201814059,0)">
                                <line stroke="currentColor" y2="6"/>
                                <text fill="currentColor" y="9" dy="0.71em" transform="translate(-5,5) rotate(-45)" style="text-anchor: end;">March</text>
                            </g>
                            <g class="tick" opacity="1" transform="translate(111.437641723356,0)">
                                <line stroke="currentColor" y2="6"/>
                                <text fill="currentColor" y="9" dy="0.71em" transform="translate(-5,5) rotate(-45)" style="text-anchor: end;">April</text>
                            </g>
                            <g class="tick" opacity="1" transform="translate(138.7845804988662,0)">
                                <line stroke="currentColor" y2="6"/>
                                <text fill="currentColor" y="9" dy="0.71em" transform="translate(-5,5) rotate(-45)" style="text-anchor: end;">May</text>
                            </g>
                            <g class="tick" opacity="1" transform="translate(167.04308390022675,0)">
                                <line stroke="currentColor" y2="6"/>
                                <text fill="currentColor" y="9" dy="0.71em" transform="translate(-5,5) rotate(-45)" style="text-anchor: end;">June</text>
                            </g>
                            <g class="tick" opacity="1" transform="translate(194.39002267573696,0)">
                                <line stroke="currentColor" y2="6"/>
                                <text fill="currentColor" y="9" dy="0.71em" transform="translate(-5,5) rotate(-45)" style="text-anchor: end;">July</text>
                            </g>
                            <g class="tick" opacity="1" transform="translate(222.64852607709753,0)">
                                <line stroke="currentColor" y2="6"/>
                                <text fill="currentColor" y="9" dy="0.71em" transform="translate(-5,5) rotate(-45)" style="text-anchor: end;">August</text>
                            </g>
                            <g class="tick" opacity="1" transform="translate(250.90702947845804,0)">
                                <line stroke="currentColor" y2="6"/>
                                <text fill="currentColor" y="9" dy="0.71em" transform="translate(-5,5) rotate(-45)" style="text-anchor: end;">September</text>
                            </g>
                            <g class="tick" opacity="1" transform="translate(278.25396825396825,0)">
                                <line stroke="currentColor" y2="6"/>
                                <text fill="currentColor" y="9" dy="0.71em" transform="translate(-5,5) rotate(-45)" style="text-anchor: end;">October</text>
                            </g>
                            <g class="tick" opacity="1" transform="translate(306.5504535147392,0)">
                                <line stroke="currentColor" y2="6"/>
                                <text fill="currentColor" y="9" dy="0.71em" transform="translate(-5,5) rotate(-45)" style="text-anchor: end;">November</text>
                            </g>
                            <g class="tick" opacity="1" transform="translate(333.8973922902494,0)">
                                <line stroke="currentColor" y2="6"/>
                                <text fill="currentColor" y="9" dy="0.71em" transform="translate(-5,5) rotate(-45)" style="text-anchor: end;">December</text>
                            </g>
                            <g class="tick" opacity="1" transform="translate(362.15589569160994,0)">
                                <line stroke="currentColor" y2="6"/>
                                <text fill="currentColor" y="9" dy="0.71em" transform="translate(-5,5) rotate(-45)" style="text-anchor: end;">2026</text>
                            </g>
                            <g class="tick" opacity="1" transform="translate(390.4143990929705,0)">
                                <line stroke="currentColor" y2="6"/>
                                <text fill="currentColor" y="9" dy="0.71em" transform="translate(-5,5) rotate(-45)" style="text-anchor: end;">February</text>
                            </g>
                            <g class="tick" opacity="1" transform="translate(415.93820861678,0)">
                                <line stroke="currentColor" y2="6"/>
                                <text fill="currentColor" y="9" dy="0.71em" transform="translate(-5,5) rotate(-45)" style="text-anchor: end;">March</text>
                            </g>
                        </g>
                        <g transform="translate(39,0)" fill="none" font-size="10" font-family="sans-serif" text-anchor="end">
                            <path class="domain" stroke="currentColor" d="M-6,5.5H0.5V276.5H-6"/>
                            <g class="tick" opacity="1" transform="translate(0,5.837905236907725)">
                                <line stroke="currentColor" x2="-6"/>
                                <text fill="currentColor" x="-9" dy="0.32em">800</text>
                            </g>
                            <g class="tick" opacity="1" transform="translate(0,39.628428927680794)">
                                <line stroke="currentColor" x2="-6"/>
                                <text fill="currentColor" x="-9" dy="0.32em">600</text>
                            </g>
                            <g class="tick" opacity="1" transform="translate(0,73.41895261845387)">
                                <line stroke="currentColor" x2="-6"/>
                                <text fill="currentColor" x="-9" dy="0.32em">400</text>
                            </g>
                            <g class="tick" opacity="1" transform="translate(0,107.20947630922693)">
                                <line stroke="currentColor" x2="-6"/>
                                <text fill="currentColor" x="-9" dy="0.32em">200</text>
                            </g>
                            <g class="tick" opacity="1" transform="translate(0,141)">
                                <line stroke="currentColor" x2="-6"/>
                                <text fill="currentColor" x="-9" dy="0.32em">0.0</text>
                            </g>
                            <g class="tick" opacity="1" transform="translate(0,174.79052369077309)">
                                <line stroke="currentColor" x2="-6"/>
                                <text fill="currentColor" x="-9" dy="0.32em">−200</text>
                            </g>
                            <g class="tick" opacity="1" transform="translate(0,208.58104738154614)">
                                <line stroke="currentColor" x2="-6"/>
                                <text fill="currentColor" x="-9" dy="0.32em">−400</text>
                            </g>
                            <g class="tick" opacity="1" transform="translate(0,242.37157107231923)">
                                <line stroke="currentColor" x2="-6"/>
                                <text fill="currentColor" x="-9" dy="0.32em">−600</text>
                            </g>
                            <g class="tick" opacity="1" transform="translate(0,276.1620947630923)">
                                <line stroke="currentColor" x2="-6"/>
                                <text fill="currentColor" x="-9" dy="0.32em">−800</text>
                            </g>
                        </g>
                        <path d="M39,140.5L45.381,140.5L51.762,140.5L58.143,140.5L64.524,140.5L70.905,140.5L77.286,140.5L83.667,140.5L90.048,140.5L96.429,140.5L102.81,140.5L109.19,140.5L115.571,140.5L121.952,140.5L128.333,140.5L134.714,140.5L141.095,140.5L147.476,140.5L153.857,140.5L160.238,140.5L166.619,140.5L173,140.5L179.381,140.5L185.762,140.5L192.143,140.5L198.524,140.5L204.905,140.5L211.286,140.5L217.667,140.5L224.048,140.5L230.429,140.5L236.81,140.5L243.19,140.5L249.571,140.5L255.952,140.5L262.333,140.5L268.714,140.5L275.095,140.5L281.476,140.5L287.857,140.5L294.238,140.5L300.619,140.5L307,140.5L313.381,140.5L319.762,140.5L326.143,140.5L332.524,140.5L338.905,140.5L345.286,140.5L351.667,140.5L358.048,140.5L364.429,140.5L370.81,140.5L377.19,140.5L383.571,140.5L389.952,140.5L396.333,140.5L402.714,140.5L409.095,140.5L415.476,140.5L421.857,140.5L428.238,140.5L434.619,140.5L441,140.5L441,129.518L434.619,113.299L428.238,112.454L421.857,110.257L415.476,105.02L409.095,113.637L402.714,114.988L396.333,116.171L389.952,113.974L383.571,113.637L377.19,110.595L370.81,106.709L364.429,110.426L358.048,113.299L351.667,111.44L345.286,113.974L338.905,108.399L332.524,110.933L326.143,111.778L319.762,111.778L313.381,112.454L307,110.426L300.619,102.993L294.238,94.545L287.857,92.517L281.476,105.696L275.095,100.796L268.714,88.294L262.333,104.175L255.952,100.458L249.571,107.892L243.19,89.645L236.81,87.28L230.429,71.229L224.048,71.736L217.667,73.933L211.286,104.851L204.905,113.299L198.524,108.23L192.143,101.979L185.762,72.919L179.381,76.129L173,54.672L166.619,67.006L160.238,61.599L153.857,68.864L147.476,71.905L141.095,90.321L134.714,63.627L128.333,36.256L121.952,35.411L115.571,5L109.19,36.087L102.81,42.676L96.429,30.343L90.048,50.786L83.667,102.317L77.286,102.486L70.905,119.212L64.524,138.81L58.143,132.728L51.762,137.29L45.381,138.135L39,136.445Z" fill="rgb(63, 185, 80)"/>
                        <path d="M39,140.5L45.381,140.5L51.762,140.5L58.143,140.5L64.524,140.5L70.905,140.5L77.286,140.5L83.667,140.5L90.048,140.5L96.429,140.5L102.81,140.5L109.19,140.5L115.571,140.5L121.952,140.5L128.333,140.5L134.714,140.5L141.095,140.5L147.476,140.5L153.857,140.5L160.238,140.5L166.619,140.5L173,140.5L179.381,140.5L185.762,140.5L192.143,140.5L198.524,140.5L204.905,140.5L211.286,140.5L217.667,140.5L224.048,140.5L230.429,140.5L236.81,140.5L243.19,140.5L249.571,140.5L255.952,140.5L262.333,140.5L268.714,140.5L275.095,140.5L281.476,140.5L287.857,140.5L294.238,140.5L300.619,140.5L307,140.5L313.381,140.5L319.762,140.5L326.143,140.5L332.524,140.5L338.905,140.5L345.286,140.5L351.667,140.5L358.048,140.5L364.429,140.5L370.81,140.5L377.19,140.5L383.571,140.5L389.952,140.5L396.333,140.5L402.714,140.5L409.095,140.5L415.476,140.5L421.857,140.5L428.238,140.5L434.619,140.5L441,140.5L441,151.482L434.619,167.701L428.238,168.546L421.857,170.743L415.476,175.98L409.095,167.363L402.714,166.012L396.333,164.829L389.952,167.026L383.571,167.363L377.19,170.405L370.81,174.291L364.429,170.574L358.048,167.701L351.667,169.56L345.286,167.026L338.905,172.601L332.524,170.067L326.143,169.222L319.762,169.222L313.381,168.546L307,170.574L300.619,178.007L294.238,186.455L287.857,188.483L281.476,175.304L275.095,180.204L268.714,192.706L262.333,176.825L255.952,180.542L249.571,173.108L243.19,191.355L236.81,193.72L230.429,209.771L224.048,209.264L217.667,207.067L211.286,176.149L204.905,167.701L198.524,172.77L192.143,179.021L185.762,208.081L179.381,204.871L173,226.328L166.619,213.994L160.238,219.401L153.857,212.136L147.476,209.095L141.095,190.679L134.714,217.373L128.333,244.744L121.952,245.589L115.571,276L109.19,244.913L102.81,238.324L96.429,250.657L90.048,230.214L83.667,178.683L77.286,178.514L70.905,161.788L64.524,142.19L58.143,148.272L51.762,143.71L45.381,142.865L39,144.555Z" fill="rgb(218, 54, 51)"/>
                    </svg>
                </div>
            </section>
        </div>
        <div xmlns="http://www.w3.org/1999/xhtml" id="metrics-end"></div>
    </foreignObject>
</svg>