<svg xmlns="http://www.w3.org/2000/svg" width="480" height="456" class="">
    <defs>
        <style/>
    </defs>
    <style>@keyframes animation-gauge{0%{stroke-dasharray:0 329}}@keyframes animation-rainbow{0%,to{color:#7f00ff;fill:#7f00ff}14%{color:#a933ff;fill:#a933ff}29%{color:#007fff;fill:#007fff}43%{color:#00ff7f;fill:#00ff7f}57%{color:#ff0;fill:#ff0}71%{color:#ff7f00;fill:#ff7f00}86%{color:red;fill:red}}svg{font-family:-apple-system,BlinkMacSystemFont,Segoe UI,Helvetica,Arial,sans-serif,Apple Color Emoji,Segoe UI Emoji;color:#777}h2,h3{margin:8px 0 2px;padding:0;color:#0366d6;font-weight:400}h2 svg,h3 svg{fill:currentColor}h2{font-size:16px}h3,svg{font-size:14px}section&gt;.field{margin-left:5px;margin-right:5px}.field{display:flex;align-items:center;margin-bottom:2px;white-space:nowrap}.field svg{margin:0 8px;fill:#959da5;flex-shrink:0}.row{display:flex;flex-wrap:wrap}.row section{flex:1 1 0}.margin-bottom{margin-bottom:16px}.margin-lr-auto{margin-left:auto;margin-right:auto}.diff-handle{color:#58a6ff;max-width:200px;text-overflow:ellipsis;overflow:hidden}.diff-box{display:inline-block;width:8px;height:8px;margin-left:1px;background-color:rgba(110,118,129,.4);border:1px solid rgba(246,240,251,.1)}.diff-box:first-child{margin-left:9px}.diff-box.added{background-color:#3fb950}.diff-box.deleted{background-color:#da3633}.diff-stats,code,span.code{font-family:SFMono-Regular,Consolas,Liberation Mono,Menlo,monospace}.diff-stats{margin-left:4px;font-weight:700;font-size:12px;white-space:nowrap}.added{color:#3fb950}.deleted{color:#da3633}code,span.code{background-color:#7777771f;padding:1px 5px;font-size:80%;border-radius:6px;color:#777}code{display:inline-block}span.code{margin:0 4px -3px}:root{--color-calendar-graph-day-bg:#ebedf0;--color-calendar-graph-day-border:rgba(27,31,35,0.06);--color-calendar-graph-day-L1-bg:#9be9a8;--color-calendar-graph-day-L2-bg:#40c463;--color-calendar-graph-day-L3-bg:#30a14e;--color-calendar-graph-day-L4-bg:#216e39;--color-calendar-halloween-graph-day-L1-bg:#ffee4a;--color-calendar-halloween-graph-day-L2-bg:#ffc501;--color-calendar-halloween-graph-day-L3-bg:#fe9600;--color-calendar-halloween-graph-day-L4-bg:#03001c;--color-calendar-winter-graph-day-L1-bg:#0a3069;--color-calendar-winter-graph-day-L2-bg:#0969da;--color-calendar-winter-graph-day-L3-bg:#54aeff;--color-calendar-winter-graph-day-L4-bg:#b6e3ff;--color-calendar-graph-day-L4-border:rgba(27,31,35,0.06);--color-calendar-graph-day-L3-border:rgba(27,31,35,0.06);--color-calendar-graph-day-L2-border:rgba(27,31,35,0.06);--color-calendar-graph-day-L1-border:rgba(27,31,35,0.06)}#metrics-end{width:100%}</style>
    <style/>
    <foreignObject x="0" y="0" width="100%" height="100%">
        <div xmlns="http://www.w3.org/1999/xhtml" xmlns:xlink="http://www.w3.org/1999/xlink" class="items-wrapper">
            <section>
                <h2 class="field">
                    <svg xmlns="http://www.w3.org/2000/svg" viewBox="0 0 16 16" width="16" height="16">
                        <path fill-rule="evenodd" d="M2.75 1.5a.25.25 0 00-.25.25v12.5c0 .138.112.25.25.25h10.5a.25.25 0 00.25-.25V4.664a.25.25 0 00-.073-.177l-2.914-2.914a.25.25 0 00-.177-.073H2.75zM1 1.75C1 .784 1.784 0 2.75 0h7.586c.464 0 .909.184 1.237.513l2.914 2.914c.329.328.513.773.513 1.237v9.586A1.75 1.75 0 0113.25 16H2.75A1.75 1.75 0 011 14.25V1.75zm7 1.5a.75.75 0 01.75.75v1.5h1.5a.75.75 0 010 1.5h-1.5v1.5a.75.75 0 01-1.5 0V7h-1.5a.75.75 0 010-1.5h1.5V4A.75.75 0 018 3.25zm-3 8a.75.75 0 01.75-.75h4.5a.75.75 0 010 1.5h-4.5a.75.75 0 01-.75-.75z"/>
                    </svg>
                    Lines of code pushed
                </h2>
                <div class="row">
                    <section>
                        <div class="field">
                            <svg xmlns="http://www.w3.org/2000/svg" viewBox="0 0 16 16" width="16" height="16">
                                <path fill-rule="evenodd" d="M8 5.5a2.5 2.5 0 100 5 2.5 2.5 0 000-5zM4 8a4 4 0 118 0 4 4 0 01-8 0z"/>
                            </svg>
                            <span class="diff-handle">bstordrup/bstordrup</span>
                        </div>
                    </section>
                    <section>
                        <div class="field">
                            <div class="diff-box added"></div>
                            <div class="diff-box added"></div>
                            <div class="diff-box added"></div>
                            <div class="diff-box deleted"></div>
                            <div class="diff-box deleted"></div>
                            <div class="diff-stats">
                                <span class="added">   +19k</span>
                                <span class="deleted">   -19k</span>
                            </div>
                            <span> </span>
                        </div>
                    </section>
                </div>
                <div class="row margin-bottom">
                    <h3 class="margin-lr-auto">Diff history</h3>
                    <svg xmlns="http://www.w3.org/2000/svg" width="480" height="315">
                        <g transform="translate(0,276)" fill="none" font-size="10" font-family="sans-serif" text-anchor="middle">
                            <path class="domain" stroke="currentColor" d="M39.5,6V0.5H441.5V6"/>
                            <g class="tick" opacity="1" transform="translate(55.64336016096579,0)">
                                <line stroke="currentColor" y2="6"/>
                                <text fill="currentColor" y="9" dy="0.71em" transform="translate(-5,5) rotate(-45)" style="text-anchor: end;">February</text>
                            </g>
                            <g class="tick" opacity="1" transform="translate(78.29124748490946,0)">
                                <line stroke="currentColor" y2="6"/>
                                <text fill="currentColor" y="9" dy="0.71em" transform="translate(-5,5) rotate(-45)" style="text-anchor: end;">March</text>
                            </g>
                            <g class="tick" opacity="1" transform="translate(103.33199195171026,0)">
                                <line stroke="currentColor" y2="6"/>
                                <text fill="currentColor" y="9" dy="0.71em" transform="translate(-5,5) rotate(-45)" style="text-anchor: end;">April</text>
                            </g>
                            <g class="tick" opacity="1" transform="translate(127.59758551307849,0)">
                                <line stroke="currentColor" y2="6"/>
                                <text fill="currentColor" y="9" dy="0.71em" transform="translate(-5,5) rotate(-45)" style="text-anchor: end;">May</text>
                            </g>
                            <g class="tick" opacity="1" transform="translate(152.67203219315894,0)">
                                <line stroke="currentColor" y2="6"/>
                                <text fill="currentColor" y="9" dy="0.71em" transform="translate(-5,5) rotate(-45)" style="text-anchor: end;">June</text>
                            </g>
                            <g class="tick" opacity="1" transform="translate(176.93762575452718,0)">
                                <line stroke="currentColor" y2="6"/>
                                <text fill="currentColor" y="9" dy="0.71em" transform="translate(-5,5) rotate(-45)" style="text-anchor: end;">July</text>
                            </g>
                            <g class="tick" opacity="1" transform="translate(202.01207243460763,0)">
                                <line stroke="currentColor" y2="6"/>
                                <text fill="currentColor" y="9" dy="0.71em" transform="translate(-5,5) rotate(-45)" style="text-anchor: end;">August</text>
                            </g>
                            <g class="tick" opacity="1" transform="translate(227.08651911468812,0)">
                                <line stroke="currentColor" y2="6"/>
                                <text fill="currentColor" y="9" dy="0.71em" transform="translate(-5,5) rotate(-45)" style="text-anchor: end;">September</text>
                            </g>
                            <g class="tick" opacity="1" transform="translate(251.35211267605635,0)">
                                <line stroke="currentColor" y2="6"/>
                                <text fill="currentColor" y="9" dy="0.71em" transform="translate(-5,5) rotate(-45)" style="text-anchor: end;">October</text>
                            </g>
                            <g class="tick" opacity="1" transform="translate(276.4602615694165,0)">
                                <line stroke="currentColor" y2="6"/>
                                <text fill="currentColor" y="9" dy="0.71em" transform="translate(-5,5) rotate(-45)" style="text-anchor: end;">November</text>
                            </g>
                            <g class="tick" opacity="1" transform="translate(300.7258551307847,0)">
                                <line stroke="currentColor" y2="6"/>
                                <text fill="currentColor" y="9" dy="0.71em" transform="translate(-5,5) rotate(-45)" style="text-anchor: end;">December</text>
                            </g>
                            <g class="tick" opacity="1" transform="translate(325.8003018108652,0)">
                                <line stroke="currentColor" y2="6"/>
                                <text fill="currentColor" y="9" dy="0.71em" transform="translate(-5,5) rotate(-45)" style="text-anchor: end;">2026</text>
                            </g>
                            <g class="tick" opacity="1" transform="translate(350.8747484909457,0)">
                                <line stroke="currentColor" y2="6"/>
                                <text fill="currentColor" y="9" dy="0.71em" transform="translate(-5,5) rotate(-45)" style="text-anchor: end;">February</text>
                            </g>
                            <g class="tick" opacity="1" transform="translate(373.5226358148893,0)">
                                <line stroke="currentColor" y2="6"/>
                                <text fill="currentColor" y="9" dy="0.71em" transform="translate(-5,5) rotate(-45)" style="text-anchor: end;">March</text>
                            </g>
                            <g class="tick" opacity="1" transform="translate(398.5633802816901,0)">
                                <line stroke="currentColor" y2="6"/>
                                <text fill="currentColor" y="9" dy="0.71em" transform="translate(-5,5) rotate(-45)" style="text-anchor: end;">April</text>
                            </g>
                            <g class="tick" opacity="1" transform="translate(422.82897384305835,0)">
                                <line stroke="currentColor" y2="6"/>
                                <text fill="currentColor" y="9" dy="0.71em" transform="translate(-5,5) rotate(-45)" style="text-anchor: end;">May</text>
                            </g>
                        </g>
                        <g transform="translate(39,0)" fill="none" font-size="10" font-family="sans-serif" text-anchor="end">
                            <path class="domain" stroke="currentColor" d="M-6,5.5H0.5V276.5H-6"/>
                            <g class="tick" opacity="1" transform="translate(0,5.837905236907725)">
                                <line stroke="currentColor" x2="-6"/>
                                <text fill="currentColor" x="-9" dy="0.32em">800</text>
                            </g>
                            <g class="tick" opacity="1" transform="translate(0,39.628428927680794)">
                                <line stroke="currentColor" x2="-6"/>
                                <text fill="currentColor" x="-9" dy="0.32em">600</text>
                            </g>
                            <g class="tick" opacity="1" transform="translate(0,73.41895261845387)">
                                <line stroke="currentColor" x2="-6"/>
                                <text fill="currentColor" x="-9" dy="0.32em">400</text>
                            </g>
                            <g class="tick" opacity="1" transform="translate(0,107.20947630922693)">
                                <line stroke="currentColor" x2="-6"/>
                                <text fill="currentColor" x="-9" dy="0.32em">200</text>
                            </g>
                            <g class="tick" opacity="1" transform="translate(0,141)">
                                <line stroke="currentColor" x2="-6"/>
                                <text fill="currentColor" x="-9" dy="0.32em">0.0</text>
                            </g>
                            <g class="tick" opacity="1" transform="translate(0,174.79052369077309)">
                                <line stroke="currentColor" x2="-6"/>
                                <text fill="currentColor" x="-9" dy="0.32em">−200</text>
                            </g>
                            <g class="tick" opacity="1" transform="translate(0,208.58104738154614)">
                                <line stroke="currentColor" x2="-6"/>
                                <text fill="currentColor" x="-9" dy="0.32em">−400</text>
                            </g>
                            <g class="tick" opacity="1" transform="translate(0,242.37157107231923)">
                                <line stroke="currentColor" x2="-6"/>
                                <text fill="currentColor" x="-9" dy="0.32em">−600</text>
                            </g>
                            <g class="tick" opacity="1" transform="translate(0,276.1620947630923)">
                                <line stroke="currentColor" x2="-6"/>
                                <text fill="currentColor" x="-9" dy="0.32em">−800</text>
                            </g>
                        </g>
                        <path d="M39,140.5L44.662,140.5L50.324,140.5L55.986,140.5L61.648,140.5L67.31,140.5L72.972,140.5L78.634,140.5L84.296,140.5L89.958,140.5L95.62,140.5L101.282,140.5L106.944,140.5L112.606,140.5L118.268,140.5L123.93,140.5L129.592,140.5L135.254,140.5L140.915,140.5L146.577,140.5L152.239,140.5L157.901,140.5L163.563,140.5L169.225,140.5L174.887,140.5L180.549,140.5L186.211,140.5L191.873,140.5L197.535,140.5L203.197,140.5L208.859,140.5L214.521,140.5L220.183,140.5L225.845,140.5L231.507,140.5L237.169,140.5L242.831,140.5L248.493,140.5L254.155,140.5L259.817,140.5L265.479,140.5L271.141,140.5L276.803,140.5L282.465,140.5L288.127,140.5L293.789,140.5L299.451,140.5L305.113,140.5L310.775,140.5L316.437,140.5L322.099,140.5L327.761,140.5L333.423,140.5L339.085,140.5L344.746,140.5L350.408,140.5L356.07,140.5L361.732,140.5L367.394,140.5L373.056,140.5L378.718,140.5L384.38,140.5L390.042,140.5L395.704,140.5L401.366,140.5L407.028,140.5L412.69,140.5L418.352,140.5L424.014,140.5L429.676,140.5L435.338,140.5L441,140.5L441,133.573L435.338,111.102L429.676,104.513L424.014,98.262L418.352,96.741L412.69,95.897L407.028,96.91L401.366,106.203L395.704,119.55L390.042,113.299L384.38,112.454L378.718,110.257L373.056,105.02L367.394,113.637L361.732,114.988L356.07,116.171L350.408,113.974L344.746,113.637L339.085,110.595L333.423,106.709L327.761,110.426L322.099,113.299L316.437,111.44L310.775,113.974L305.113,108.399L299.451,110.933L293.789,111.778L288.127,111.778L282.465,112.454L276.803,110.426L271.141,102.993L265.479,94.545L259.817,92.517L254.155,105.696L248.493,100.796L242.831,88.294L237.169,104.175L231.507,100.458L225.845,107.892L220.183,89.645L214.521,87.28L208.859,71.229L203.197,71.736L197.535,73.933L191.873,104.851L186.211,113.299L180.549,108.23L174.887,101.979L169.225,72.919L163.563,76.129L157.901,54.672L152.239,67.006L146.577,61.599L140.915,68.864L135.254,71.905L129.592,90.321L123.93,63.627L118.268,36.256L112.606,35.411L106.944,5L101.282,36.087L95.62,42.676L89.958,30.343L84.296,50.786L78.634,102.317L72.972,102.486L67.31,119.212L61.648,138.81L55.986,132.728L50.324,137.29L44.662,138.135L39,136.445Z" fill="rgb(63, 185, 80)"/>
                        <path d="M39,140.5L44.662,140.5L50.324,140.5L55.986,140.5L61.648,140.5L67.31,140.5L72.972,140.5L78.634,140.5L84.296,140.5L89.958,140.5L95.62,140.5L101.282,140.5L106.944,140.5L112.606,140.5L118.268,140.5L123.93,140.5L129.592,140.5L135.254,140.5L140.915,140.5L146.577,140.5L152.239,140.5L157.901,140.5L163.563,140.5L169.225,140.5L174.887,140.5L180.549,140.5L186.211,140.5L191.873,140.5L197.535,140.5L203.197,140.5L208.859,140.5L214.521,140.5L220.183,140.5L225.845,140.5L231.507,140.5L237.169,140.5L242.831,140.5L248.493,140.5L254.155,140.5L259.817,140.5L265.479,140.5L271.141,140.5L276.803,140.5L282.465,140.5L288.127,140.5L293.789,140.5L299.451,140.5L305.113,140.5L310.775,140.5L316.437,140.5L322.099,140.5L327.761,140.5L333.423,140.5L339.085,140.5L344.746,140.5L350.408,140.5L356.07,140.5L361.732,140.5L367.394,140.5L373.056,140.5L378.718,140.5L384.38,140.5L390.042,140.5L395.704,140.5L401.366,140.5L407.028,140.5L412.69,140.5L418.352,140.5L424.014,140.5L429.676,140.5L435.338,140.5L441,140.5L441,147.427L435.338,169.898L429.676,176.487L424.014,182.738L418.352,184.259L412.69,185.103L407.028,184.09L401.366,174.797L395.704,161.45L390.042,167.701L384.38,168.546L378.718,170.743L373.056,175.98L367.394,167.363L361.732,166.012L356.07,164.829L350.408,167.026L344.746,167.363L339.085,170.405L333.423,174.291L327.761,170.574L322.099,167.701L316.437,169.56L310.775,167.026L305.113,172.601L299.451,170.067L293.789,169.222L288.127,169.222L282.465,168.546L276.803,170.574L271.141,178.007L265.479,186.455L259.817,188.483L254.155,175.304L248.493,180.204L242.831,192.706L237.169,176.825L231.507,180.542L225.845,173.108L220.183,191.355L214.521,193.72L208.859,209.771L203.197,209.264L197.535,207.067L191.873,176.149L186.211,167.701L180.549,172.77L174.887,179.021L169.225,208.081L163.563,204.871L157.901,226.328L152.239,213.994L146.577,219.401L140.915,212.136L135.254,209.095L129.592,190.679L123.93,217.373L118.268,244.744L112.606,245.589L106.944,276L101.282,244.913L95.62,238.324L89.958,250.657L84.296,230.214L78.634,178.683L72.972,178.514L67.31,161.788L61.648,142.19L55.986,148.272L50.324,143.71L44.662,142.865L39,144.555Z" fill="rgb(218, 54, 51)"/>
                    </svg>
                </div>
            </section>
        </div>
        <div xmlns="http://www.w3.org/1999/xhtml" id="metrics-end"></div>
    </foreignObject>
</svg>