<svg xmlns="http://www.w3.org/2000/svg" width="480" height="516" class="">
    <defs>
        <style/>
    </defs>
    <style>@keyframes animation-gauge{0%{stroke-dasharray:0 329}}@keyframes animation-rainbow{0%,to{color:#7f00ff;fill:#7f00ff}14%{color:#a933ff;fill:#a933ff}29%{color:#007fff;fill:#007fff}43%{color:#00ff7f;fill:#00ff7f}57%{color:#ff0;fill:#ff0}71%{color:#ff7f00;fill:#ff7f00}86%{color:red;fill:red}}svg{font-family:-apple-system,BlinkMacSystemFont,Segoe UI,Helvetica,Arial,sans-serif,Apple Color Emoji,Segoe UI Emoji;color:#777}h2,h3{margin:8px 0 2px;padding:0;color:#0366d6;font-weight:400}h2 svg,h3 svg{fill:currentColor}h2{font-size:16px}h3,svg{font-size:14px}section&gt;.field{margin-left:5px;margin-right:5px}.field{display:flex;align-items:center;margin-bottom:2px;white-space:nowrap}.field svg{margin:0 8px;fill:#959da5;flex-shrink:0}.row{display:flex;flex-wrap:wrap}.row section{flex:1 1 0}.margin-bottom{margin-bottom:16px}.margin-lr-auto{margin-left:auto;margin-right:auto}.diff-handle{color:#58a6ff;max-width:200px;text-overflow:ellipsis;overflow:hidden}.diff-box{display:inline-block;width:8px;height:8px;margin-left:1px;background-color:rgba(110,118,129,.4);border:1px solid rgba(246,240,251,.1)}.diff-box:first-child{margin-left:9px}.diff-box.added{background-color:#3fb950}.diff-box.deleted{background-color:#da3633}.diff-stats,code,span.code{font-family:SFMono-Regular,Consolas,Liberation Mono,Menlo,monospace}.diff-stats{margin-left:4px;font-weight:700;font-size:12px;white-space:nowrap}.added{color:#3fb950}.deleted{color:#da3633}code,span.code{background-color:#7777771f;padding:1px 5px;font-size:80%;border-radius:6px;color:#777}code{display:inline-block}span.code{margin:0 4px -3px}:root{--color-calendar-graph-day-bg:#ebedf0;--color-calendar-graph-day-border:rgba(27,31,35,0.06);--color-calendar-graph-day-L1-bg:#9be9a8;--color-calendar-graph-day-L2-bg:#40c463;--color-calendar-graph-day-L3-bg:#30a14e;--color-calendar-graph-day-L4-bg:#216e39;--color-calendar-halloween-graph-day-L1-bg:#ffee4a;--color-calendar-halloween-graph-day-L2-bg:#ffc501;--color-calendar-halloween-graph-day-L3-bg:#fe9600;--color-calendar-halloween-graph-day-L4-bg:#03001c;--color-calendar-winter-graph-day-L1-bg:#0a3069;--color-calendar-winter-graph-day-L2-bg:#0969da;--color-calendar-winter-graph-day-L3-bg:#54aeff;--color-calendar-winter-graph-day-L4-bg:#b6e3ff;--color-calendar-graph-day-L4-border:rgba(27,31,35,0.06);--color-calendar-graph-day-L3-border:rgba(27,31,35,0.06);--color-calendar-graph-day-L2-border:rgba(27,31,35,0.06);--color-calendar-graph-day-L1-border:rgba(27,31,35,0.06)}#metrics-end{width:100%}</style>
    <style/>
    <foreignObject x="0" y="0" width="100%" height="100%">
        <div xmlns="http://www.w3.org/1999/xhtml" xmlns:xlink="http://www.w3.org/1999/xlink" class="items-wrapper">
            <section>
                <h2 class="field">
                    <svg xmlns="http://www.w3.org/2000/svg" viewBox="0 0 16 16" width="16" height="16">
                        <path fill-rule="evenodd" d="M2.75 1.5a.25.25 0 00-.25.25v12.5c0 .138.112.25.25.25h10.5a.25.25 0 00.25-.25V4.664a.25.25 0 00-.073-.177l-2.914-2.914a.25.25 0 00-.177-.073H2.75zM1 1.75C1 .784 1.784 0 2.75 0h7.586c.464 0 .909.184 1.237.513l2.914 2.914c.329.328.513.773.513 1.237v9.586A1.75 1.75 0 0113.25 16H2.75A1.75 1.75 0 011 14.25V1.75zm7 1.5a.75.75 0 01.75.75v1.5h1.5a.75.75 0 010 1.5h-1.5v1.5a.75.75 0 01-1.5 0V7h-1.5a.75.75 0 010-1.5h1.5V4A.75.75 0 018 3.25zm-3 8a.75.75 0 01.75-.75h4.5a.75.75 0 010 1.5h-4.5a.75.75 0 01-.75-.75z"/>
                    </svg>
                    Lines of code pushed
                </h2>
                <div class="row">
                    <section>
                        <div class="field">
                            <svg xmlns="http://www.w3.org/2000/svg" viewBox="0 0 16 16" width="16" height="16">
                                <path fill-rule="evenodd" d="M8 5.5a2.5 2.5 0 100 5 2.5 2.5 0 000-5zM4 8a4 4 0 118 0 4 4 0 01-8 0z"/>
                            </svg>
                            <span class="diff-handle">bstordrup/BestoFramework</span>
                        </div>
                        <div class="field">
                            <svg xmlns="http://www.w3.org/2000/svg" viewBox="0 0 16 16" width="16" height="16">
                                <path fill-rule="evenodd" d="M8 5.5a2.5 2.5 0 100 5 2.5 2.5 0 000-5zM4 8a4 4 0 118 0 4 4 0 01-8 0z"/>
                            </svg>
                            <span class="diff-handle">bstordrup/Unity_Factory</span>
                        </div>
                        <div class="field">
                            <svg xmlns="http://www.w3.org/2000/svg" viewBox="0 0 16 16" width="16" height="16">
                                <path fill-rule="evenodd" d="M8 5.5a2.5 2.5 0 100 5 2.5 2.5 0 000-5zM4 8a4 4 0 118 0 4 4 0 01-8 0z"/>
                            </svg>
                            <span class="diff-handle">bstordrup/bstordrup</span>
                        </div>
                        <div class="field">
                            <svg xmlns="http://www.w3.org/2000/svg" viewBox="0 0 16 16" width="16" height="16">
                                <path fill-rule="evenodd" d="M8 5.5a2.5 2.5 0 100 5 2.5 2.5 0 000-5zM4 8a4 4 0 118 0 4 4 0 01-8 0z"/>
                            </svg>
                            <span class="diff-handle">bstordrup/CoolStuff</span>
                        </div>
                    </section>
                    <section>
                        <div class="field">
                            <div class="diff-box added"></div>
                            <div class="diff-box added"></div>
                            <div class="diff-box added"></div>
                            <div class="diff-box added"></div>
                            <div class="diff-box deleted"></div>
                            <div class="diff-stats">
                                <span class="added">  +137k</span>
                                <span class="deleted">   -114</span>
                            </div>
                            <span> </span>
                        </div>
                        <div class="field">
                            <div class="diff-box added"></div>
                            <div class="diff-box added"></div>
                            <div class="diff-box added"></div>
                            <div class="diff-box added"></div>
                            <div class="diff-box deleted"></div>
                            <div class="diff-stats">
                                <span class="added"> +26.3k</span>
                                <span class="deleted"> -2.09k</span>
                            </div>
                            <span> </span>
                        </div>
                        <div class="field">
                            <div class="diff-box added"></div>
                            <div class="diff-box added"></div>
                            <div class="diff-box added"></div>
                            <div class="diff-box deleted"></div>
                            <div class="diff-box deleted"></div>
                            <div class="diff-stats">
                                <span class="added"> +17.4k</span>
                                <span class="deleted"> -17.4k</span>
                            </div>
                            <span> </span>
                        </div>
                        <div class="field">
                            <div class="diff-box added"></div>
                            <div class="diff-box added"></div>
                            <div class="diff-box added"></div>
                            <div class="diff-box added"></div>
                            <div class="diff-box deleted"></div>
                            <div class="diff-stats">
                                <span class="added"> +4.47k</span>
                                <span class="deleted">     -8</span>
                            </div>
                            <span> </span>
                        </div>
                    </section>
                </div>
                <div class="row margin-bottom">
                    <h3 class="margin-lr-auto">Diff history</h3>
                    <svg xmlns="http://www.w3.org/2000/svg" width="480" height="315">
                        <g transform="translate(0,276)" fill="none" font-size="10" font-family="sans-serif" text-anchor="middle">
                            <path class="domain" stroke="currentColor" d="M39.5,6V0.5H441.5V6"/>
                            <g class="tick" opacity="1" transform="translate(68.42604298356511,0)">
                                <line stroke="currentColor" y2="6"/>
                                <text fill="currentColor" y="9" dy="0.71em" transform="translate(-5,5) rotate(-45)" style="text-anchor: end;">April</text>
                            </g>
                            <g class="tick" opacity="1" transform="translate(114.67383059418457,0)">
                                <line stroke="currentColor" y2="6"/>
                                <text fill="currentColor" y="9" dy="0.71em" transform="translate(-5,5) rotate(-45)" style="text-anchor: end;">July</text>
                            </g>
                            <g class="tick" opacity="1" transform="translate(161.4298356510746,0)">
                                <line stroke="currentColor" y2="6"/>
                                <text fill="currentColor" y="9" dy="0.71em" transform="translate(-5,5) rotate(-45)" style="text-anchor: end;">October</text>
                            </g>
                            <g class="tick" opacity="1" transform="translate(208.20701643489255,0)">
                                <line stroke="currentColor" y2="6"/>
                                <text fill="currentColor" y="9" dy="0.71em" transform="translate(-5,5) rotate(-45)" style="text-anchor: end;">2025</text>
                            </g>
                            <g class="tick" opacity="1" transform="translate(253.92541087231353,0)">
                                <line stroke="currentColor" y2="6"/>
                                <text fill="currentColor" y="9" dy="0.71em" transform="translate(-5,5) rotate(-45)" style="text-anchor: end;">April</text>
                            </g>
                            <g class="tick" opacity="1" transform="translate(300.173198482933,0)">
                                <line stroke="currentColor" y2="6"/>
                                <text fill="currentColor" y="9" dy="0.71em" transform="translate(-5,5) rotate(-45)" style="text-anchor: end;">July</text>
                            </g>
                            <g class="tick" opacity="1" transform="translate(346.929203539823,0)">
                                <line stroke="currentColor" y2="6"/>
                                <text fill="currentColor" y="9" dy="0.71em" transform="translate(-5,5) rotate(-45)" style="text-anchor: end;">October</text>
                            </g>
                            <g class="tick" opacity="1" transform="translate(393.706384323641,0)">
                                <line stroke="currentColor" y2="6"/>
                                <text fill="currentColor" y="9" dy="0.71em" transform="translate(-5,5) rotate(-45)" style="text-anchor: end;">2026</text>
                            </g>
                            <g class="tick" opacity="1" transform="translate(439.42477876106193,0)">
                                <line stroke="currentColor" y2="6"/>
                                <text fill="currentColor" y="9" dy="0.71em" transform="translate(-5,5) rotate(-45)" style="text-anchor: end;">April</text>
                            </g>
                        </g>
                        <g transform="translate(39,0)" fill="none" font-size="10" font-family="sans-serif" text-anchor="end">
                            <path class="domain" stroke="currentColor" d="M-6,5.5H0.5V276.5H-6"/>
                            <g class="tick" opacity="1" transform="translate(0,42.215306888683145)">
                                <line stroke="currentColor" x2="-6"/>
                                <text fill="currentColor" x="-9" dy="0.32em">100k</text>
                            </g>
                            <g class="tick" opacity="1" transform="translate(0,91.60765344434157)">
                                <line stroke="currentColor" x2="-6"/>
                                <text fill="currentColor" x="-9" dy="0.32em">50k</text>
                            </g>
                            <g class="tick" opacity="1" transform="translate(0,141)">
                                <line stroke="currentColor" x2="-6"/>
                                <text fill="currentColor" x="-9" dy="0.32em">0.0</text>
                            </g>
                            <g class="tick" opacity="1" transform="translate(0,190.39234655565843)">
                                <line stroke="currentColor" x2="-6"/>
                                <text fill="currentColor" x="-9" dy="0.32em">−50k</text>
                            </g>
                            <g class="tick" opacity="1" transform="translate(0,239.78469311131687)">
                                <line stroke="currentColor" x2="-6"/>
                                <text fill="currentColor" x="-9" dy="0.32em">−100k</text>
                            </g>
                        </g>
                        <path d="M39,140.5L42.558,140.5L81.69,140.5L85.248,140.5L88.805,140.5L181.301,140.5L213.319,140.5L216.876,140.5L220.434,140.5L223.991,140.5L227.549,140.5L231.106,140.5L234.664,140.5L238.221,140.5L241.779,140.5L245.336,140.5L248.894,140.5L252.451,140.5L256.009,140.5L259.566,140.5L263.124,140.5L266.681,140.5L270.239,140.5L273.796,140.5L277.354,140.5L280.912,140.5L284.469,140.5L288.027,140.5L291.584,140.5L295.142,140.5L298.699,140.5L302.257,140.5L305.814,140.5L309.372,140.5L312.929,140.5L316.487,140.5L320.044,140.5L323.602,140.5L327.159,140.5L330.717,140.5L334.274,140.5L337.832,140.5L341.389,140.5L344.947,140.5L348.504,140.5L352.062,140.5L355.619,140.5L359.177,140.5L362.735,140.5L366.292,140.5L369.85,140.5L373.407,140.5L376.965,140.5L380.522,140.5L384.08,140.5L387.637,140.5L391.195,140.5L394.752,140.5L398.31,140.5L401.867,140.5L405.425,140.5L408.982,140.5L412.54,140.5L416.097,140.5L419.655,140.5L423.212,140.5L426.77,140.5L430.327,140.5L433.885,140.5L437.442,140.5L441,140.5L441,140.468L437.442,140.378L433.885,140.341L430.327,140.336L426.77,140.323L423.212,140.293L419.655,140.343L416.097,140.351L412.54,140.358L408.982,140.345L405.425,140.343L401.867,140.325L398.31,140.282L394.752,140.324L391.195,140.341L387.637,140.33L384.08,140.345L380.522,140.312L376.965,140.327L373.407,140.332L369.85,140.332L366.292,140.336L362.735,140.026L359.177,140.193L355.619,140.231L352.062,140.204L348.504,140.297L344.947,140.268L341.389,140.195L337.832,139.163L334.274,132.984L330.717,140.309L327.159,140.203L323.602,140.189L320.044,140.095L316.487,140.098L312.929,140.111L309.372,140.292L305.814,140.341L302.257,140.311L298.699,140.275L295.142,140.105L291.584,140.124L288.027,139.998L284.469,140.07L280.912,140.039L277.354,140.081L273.796,140.099L270.239,140.207L266.681,140.051L263.124,139.89L259.566,139.468L256.009,5L252.451,139.078L248.894,139.928L245.336,139.856L241.779,139.975L238.221,140.277L234.664,140.278L231.106,140.376L227.549,140.49L223.991,140.455L220.434,140.481L216.876,140.486L213.319,140.476L181.301,140.084L88.805,140.058L85.248,136.741L81.69,123.78L42.558,135.441L39,140.427Z" fill="rgb(63, 185, 80)"/>
                        <path d="M39,140.5L42.558,140.5L81.69,140.5L85.248,140.5L88.805,140.5L181.301,140.5L213.319,140.5L216.876,140.5L220.434,140.5L223.991,140.5L227.549,140.5L231.106,140.5L234.664,140.5L238.221,140.5L241.779,140.5L245.336,140.5L248.894,140.5L252.451,140.5L256.009,140.5L259.566,140.5L263.124,140.5L266.681,140.5L270.239,140.5L273.796,140.5L277.354,140.5L280.912,140.5L284.469,140.5L288.027,140.5L291.584,140.5L295.142,140.5L298.699,140.5L302.257,140.5L305.814,140.5L309.372,140.5L312.929,140.5L316.487,140.5L320.044,140.5L323.602,140.5L327.159,140.5L330.717,140.5L334.274,140.5L337.832,140.5L341.389,140.5L344.947,140.5L348.504,140.5L352.062,140.5L355.619,140.5L359.177,140.5L362.735,140.5L366.292,140.5L369.85,140.5L373.407,140.5L376.965,140.5L380.522,140.5L384.08,140.5L387.637,140.5L391.195,140.5L394.752,140.5L398.31,140.5L401.867,140.5L405.425,140.5L408.982,140.5L412.54,140.5L416.097,140.5L419.655,140.5L423.212,140.5L426.77,140.5L430.327,140.5L433.885,140.5L437.442,140.5L441,140.5L441,140.532L437.442,140.622L433.885,140.659L430.327,140.664L426.77,140.677L423.212,140.707L419.655,140.657L416.097,140.649L412.54,140.642L408.982,140.655L405.425,140.657L401.867,140.675L398.31,140.699L394.752,140.676L391.195,140.659L387.637,140.67L384.08,140.655L380.522,140.688L376.965,140.673L373.407,140.668L369.85,140.668L366.292,140.664L362.735,140.679L359.177,140.72L355.619,140.769L352.062,140.782L348.504,140.703L344.947,140.732L341.389,140.805L337.832,141.289L334.274,141.001L330.717,140.691L327.159,140.797L323.602,140.811L320.044,140.905L316.487,140.902L312.929,140.889L309.372,140.708L305.814,140.659L302.257,140.689L298.699,140.725L295.142,140.895L291.584,140.876L288.027,141.002L284.469,140.93L280.912,140.961L277.354,140.919L273.796,140.901L270.239,140.793L266.681,140.949L263.124,141.11L259.566,141.115L256.009,141.302L252.451,141.213L248.894,141.072L245.336,141.144L241.779,141.025L238.221,140.723L234.664,140.722L231.106,140.624L227.549,140.51L223.991,140.545L220.434,140.519L216.876,140.514L213.319,140.524L181.301,140.501L88.805,140.507L85.248,142.065L81.69,140.918L42.558,140.572L39,140.501Z" fill="rgb(218, 54, 51)"/>
                    </svg>
                </div>
            </section>
        </div>
        <div xmlns="http://www.w3.org/1999/xhtml" id="metrics-end"></div>
    </foreignObject>
</svg>