<svg xmlns="http://www.w3.org/2000/svg" width="480" height="516" class="">
    <defs>
        <style/>
    </defs>
    <style>@keyframes animation-gauge{0%{stroke-dasharray:0 329}}@keyframes animation-rainbow{0%,to{color:#7f00ff;fill:#7f00ff}14%{color:#a933ff;fill:#a933ff}29%{color:#007fff;fill:#007fff}43%{color:#00ff7f;fill:#00ff7f}57%{color:#ff0;fill:#ff0}71%{color:#ff7f00;fill:#ff7f00}86%{color:red;fill:red}}svg{font-family:-apple-system,BlinkMacSystemFont,Segoe UI,Helvetica,Arial,sans-serif,Apple Color Emoji,Segoe UI Emoji;color:#777}h2,h3{margin:8px 0 2px;padding:0;color:#0366d6;font-weight:400}h2 svg,h3 svg{fill:currentColor}h2{font-size:16px}h3,svg{font-size:14px}section&gt;.field{margin-left:5px;margin-right:5px}.field{display:flex;align-items:center;margin-bottom:2px;white-space:nowrap}.field svg{margin:0 8px;fill:#959da5;flex-shrink:0}.row{display:flex;flex-wrap:wrap}.row section{flex:1 1 0}.margin-bottom{margin-bottom:16px}.margin-lr-auto{margin-left:auto;margin-right:auto}.diff-handle{color:#58a6ff;max-width:200px;text-overflow:ellipsis;overflow:hidden}.diff-box{display:inline-block;width:8px;height:8px;margin-left:1px;background-color:rgba(110,118,129,.4);border:1px solid rgba(246,240,251,.1)}.diff-box:first-child{margin-left:9px}.diff-box.added{background-color:#3fb950}.diff-box.deleted{background-color:#da3633}.diff-stats,code,span.code{font-family:SFMono-Regular,Consolas,Liberation Mono,Menlo,monospace}.diff-stats{margin-left:4px;font-weight:700;font-size:12px;white-space:nowrap}.added{color:#3fb950}.deleted{color:#da3633}code,span.code{background-color:#7777771f;padding:1px 5px;font-size:80%;border-radius:6px;color:#777}code{display:inline-block}span.code{margin:0 4px -3px}:root{--color-calendar-graph-day-bg:#ebedf0;--color-calendar-graph-day-border:rgba(27,31,35,0.06);--color-calendar-graph-day-L1-bg:#9be9a8;--color-calendar-graph-day-L2-bg:#40c463;--color-calendar-graph-day-L3-bg:#30a14e;--color-calendar-graph-day-L4-bg:#216e39;--color-calendar-halloween-graph-day-L1-bg:#ffee4a;--color-calendar-halloween-graph-day-L2-bg:#ffc501;--color-calendar-halloween-graph-day-L3-bg:#fe9600;--color-calendar-halloween-graph-day-L4-bg:#03001c;--color-calendar-winter-graph-day-L1-bg:#0a3069;--color-calendar-winter-graph-day-L2-bg:#0969da;--color-calendar-winter-graph-day-L3-bg:#54aeff;--color-calendar-winter-graph-day-L4-bg:#b6e3ff;--color-calendar-graph-day-L4-border:rgba(27,31,35,0.06);--color-calendar-graph-day-L3-border:rgba(27,31,35,0.06);--color-calendar-graph-day-L2-border:rgba(27,31,35,0.06);--color-calendar-graph-day-L1-border:rgba(27,31,35,0.06)}#metrics-end{width:100%}</style>
    <style/>
    <foreignObject x="0" y="0" width="100%" height="100%">
        <div xmlns="http://www.w3.org/1999/xhtml" xmlns:xlink="http://www.w3.org/1999/xlink" class="items-wrapper">
            <section>
                <h2 class="field">
                    <svg xmlns="http://www.w3.org/2000/svg" viewBox="0 0 16 16" width="16" height="16">
                        <path fill-rule="evenodd" d="M2.75 1.5a.25.25 0 00-.25.25v12.5c0 .138.112.25.25.25h10.5a.25.25 0 00.25-.25V4.664a.25.25 0 00-.073-.177l-2.914-2.914a.25.25 0 00-.177-.073H2.75zM1 1.75C1 .784 1.784 0 2.75 0h7.586c.464 0 .909.184 1.237.513l2.914 2.914c.329.328.513.773.513 1.237v9.586A1.75 1.75 0 0113.25 16H2.75A1.75 1.75 0 011 14.25V1.75zm7 1.5a.75.75 0 01.75.75v1.5h1.5a.75.75 0 010 1.5h-1.5v1.5a.75.75 0 01-1.5 0V7h-1.5a.75.75 0 010-1.5h1.5V4A.75.75 0 018 3.25zm-3 8a.75.75 0 01.75-.75h4.5a.75.75 0 010 1.5h-4.5a.75.75 0 01-.75-.75z"/>
                    </svg>
                    Lines of code pushed
                </h2>
                <div class="row">
                    <section>
                        <div class="field">
                            <svg xmlns="http://www.w3.org/2000/svg" viewBox="0 0 16 16" width="16" height="16">
                                <path fill-rule="evenodd" d="M8 5.5a2.5 2.5 0 100 5 2.5 2.5 0 000-5zM4 8a4 4 0 118 0 4 4 0 01-8 0z"/>
                            </svg>
                            <span class="diff-handle">bstordrup/bstordrup</span>
                        </div>
                        <div class="field">
                            <svg xmlns="http://www.w3.org/2000/svg" viewBox="0 0 16 16" width="16" height="16">
                                <path fill-rule="evenodd" d="M8 5.5a2.5 2.5 0 100 5 2.5 2.5 0 000-5zM4 8a4 4 0 118 0 4 4 0 01-8 0z"/>
                            </svg>
                            <span class="diff-handle">bstordrup/SwitchVsIf</span>
                        </div>
                        <div class="field">
                            <svg xmlns="http://www.w3.org/2000/svg" viewBox="0 0 16 16" width="16" height="16">
                                <path fill-rule="evenodd" d="M8 5.5a2.5 2.5 0 100 5 2.5 2.5 0 000-5zM4 8a4 4 0 118 0 4 4 0 01-8 0z"/>
                            </svg>
                            <span class="diff-handle">bstordrup/WcfMissingInterface</span>
                        </div>
                        <div class="field">
                            <svg xmlns="http://www.w3.org/2000/svg" viewBox="0 0 16 16" width="16" height="16">
                                <path fill-rule="evenodd" d="M8 5.5a2.5 2.5 0 100 5 2.5 2.5 0 000-5zM4 8a4 4 0 118 0 4 4 0 01-8 0z"/>
                            </svg>
                            <span class="diff-handle">bstordrup/LektiePlanner</span>
                        </div>
                    </section>
                    <section>
                        <div class="field">
                            <div class="diff-box added"></div>
                            <div class="diff-box added"></div>
                            <div class="diff-box added"></div>
                            <div class="diff-box deleted"></div>
                            <div class="diff-box deleted"></div>
                            <div class="diff-stats">
                                <span class="added"> +19.2k</span>
                                <span class="deleted"> -19.2k</span>
                            </div>
                            <span> </span>
                        </div>
                        <div class="field">
                            <div class="diff-box added"></div>
                            <div class="diff-box added"></div>
                            <div class="diff-box added"></div>
                            <div class="diff-box added"></div>
                            <div class="diff-box deleted"></div>
                            <div class="diff-stats">
                                <span class="added">   +982</span>
                                <span class="deleted">     -3</span>
                            </div>
                            <span> </span>
                        </div>
                        <div class="field">
                            <div class="diff-box added"></div>
                            <div class="diff-box added"></div>
                            <div class="diff-box added"></div>
                            <div class="diff-box added"></div>
                            <div class="diff-box deleted"></div>
                            <div class="diff-stats">
                                <span class="added">   +507</span>
                                <span class="deleted">     -1</span>
                            </div>
                            <span> </span>
                        </div>
                        <div class="field">
                            <div class="diff-box added"></div>
                            <div class="diff-box added"></div>
                            <div class="diff-box added"></div>
                            <div class="diff-box added"></div>
                            <div class="diff-box deleted"></div>
                            <div class="diff-stats">
                                <span class="added">   +445</span>
                                <span class="deleted">     -3</span>
                            </div>
                            <span> </span>
                        </div>
                    </section>
                </div>
                <div class="row margin-bottom">
                    <h3 class="margin-lr-auto">Diff history</h3>
                    <svg xmlns="http://www.w3.org/2000/svg" width="480" height="315">
                        <g transform="translate(0,276)" fill="none" font-size="10" font-family="sans-serif" text-anchor="middle">
                            <path class="domain" stroke="currentColor" d="M39.5,6V0.5H441.5V6"/>
                            <g class="tick" opacity="1" transform="translate(55.41914682539682,0)">
                                <line stroke="currentColor" y2="6"/>
                                <text fill="currentColor" y="9" dy="0.71em" transform="translate(-5,5) rotate(-45)" style="text-anchor: end;">February</text>
                            </g>
                            <g class="tick" opacity="1" transform="translate(77.75248015873017,0)">
                                <line stroke="currentColor" y2="6"/>
                                <text fill="currentColor" y="9" dy="0.71em" transform="translate(-5,5) rotate(-45)" style="text-anchor: end;">March</text>
                            </g>
                            <g class="tick" opacity="1" transform="translate(102.4454365079365,0)">
                                <line stroke="currentColor" y2="6"/>
                                <text fill="currentColor" y="9" dy="0.71em" transform="translate(-5,5) rotate(-45)" style="text-anchor: end;">April</text>
                            </g>
                            <g class="tick" opacity="1" transform="translate(126.37400793650794,0)">
                                <line stroke="currentColor" y2="6"/>
                                <text fill="currentColor" y="9" dy="0.71em" transform="translate(-5,5) rotate(-45)" style="text-anchor: end;">May</text>
                            </g>
                            <g class="tick" opacity="1" transform="translate(151.1001984126984,0)">
                                <line stroke="currentColor" y2="6"/>
                                <text fill="currentColor" y="9" dy="0.71em" transform="translate(-5,5) rotate(-45)" style="text-anchor: end;">June</text>
                            </g>
                            <g class="tick" opacity="1" transform="translate(175.02876984126982,0)">
                                <line stroke="currentColor" y2="6"/>
                                <text fill="currentColor" y="9" dy="0.71em" transform="translate(-5,5) rotate(-45)" style="text-anchor: end;">July</text>
                            </g>
                            <g class="tick" opacity="1" transform="translate(199.75496031746033,0)">
                                <line stroke="currentColor" y2="6"/>
                                <text fill="currentColor" y="9" dy="0.71em" transform="translate(-5,5) rotate(-45)" style="text-anchor: end;">August</text>
                            </g>
                            <g class="tick" opacity="1" transform="translate(224.4811507936508,0)">
                                <line stroke="currentColor" y2="6"/>
                                <text fill="currentColor" y="9" dy="0.71em" transform="translate(-5,5) rotate(-45)" style="text-anchor: end;">September</text>
                            </g>
                            <g class="tick" opacity="1" transform="translate(248.40972222222223,0)">
                                <line stroke="currentColor" y2="6"/>
                                <text fill="currentColor" y="9" dy="0.71em" transform="translate(-5,5) rotate(-45)" style="text-anchor: end;">October</text>
                            </g>
                            <g class="tick" opacity="1" transform="translate(273.16914682539687,0)">
                                <line stroke="currentColor" y2="6"/>
                                <text fill="currentColor" y="9" dy="0.71em" transform="translate(-5,5) rotate(-45)" style="text-anchor: end;">November</text>
                            </g>
                            <g class="tick" opacity="1" transform="translate(297.09771825396825,0)">
                                <line stroke="currentColor" y2="6"/>
                                <text fill="currentColor" y="9" dy="0.71em" transform="translate(-5,5) rotate(-45)" style="text-anchor: end;">December</text>
                            </g>
                            <g class="tick" opacity="1" transform="translate(321.82390873015873,0)">
                                <line stroke="currentColor" y2="6"/>
                                <text fill="currentColor" y="9" dy="0.71em" transform="translate(-5,5) rotate(-45)" style="text-anchor: end;">2026</text>
                            </g>
                            <g class="tick" opacity="1" transform="translate(346.5500992063492,0)">
                                <line stroke="currentColor" y2="6"/>
                                <text fill="currentColor" y="9" dy="0.71em" transform="translate(-5,5) rotate(-45)" style="text-anchor: end;">February</text>
                            </g>
                            <g class="tick" opacity="1" transform="translate(368.88343253968253,0)">
                                <line stroke="currentColor" y2="6"/>
                                <text fill="currentColor" y="9" dy="0.71em" transform="translate(-5,5) rotate(-45)" style="text-anchor: end;">March</text>
                            </g>
                            <g class="tick" opacity="1" transform="translate(393.5763888888889,0)">
                                <line stroke="currentColor" y2="6"/>
                                <text fill="currentColor" y="9" dy="0.71em" transform="translate(-5,5) rotate(-45)" style="text-anchor: end;">April</text>
                            </g>
                            <g class="tick" opacity="1" transform="translate(417.5049603174603,0)">
                                <line stroke="currentColor" y2="6"/>
                                <text fill="currentColor" y="9" dy="0.71em" transform="translate(-5,5) rotate(-45)" style="text-anchor: end;">May</text>
                            </g>
                        </g>
                        <g transform="translate(39,0)" fill="none" font-size="10" font-family="sans-serif" text-anchor="end">
                            <path class="domain" stroke="currentColor" d="M-6,5.5H0.5V276.5H-6"/>
                            <g class="tick" opacity="1" transform="translate(0,50.06040268456377)">
                                <line stroke="currentColor" x2="-6"/>
                                <text fill="currentColor" x="-9" dy="0.32em">1.0k</text>
                            </g>
                            <g class="tick" opacity="1" transform="translate(0,95.53020134228188)">
                                <line stroke="currentColor" x2="-6"/>
                                <text fill="currentColor" x="-9" dy="0.32em">500</text>
                            </g>
                            <g class="tick" opacity="1" transform="translate(0,141)">
                                <line stroke="currentColor" x2="-6"/>
                                <text fill="currentColor" x="-9" dy="0.32em">0.0</text>
                            </g>
                            <g class="tick" opacity="1" transform="translate(0,186.46979865771812)">
                                <line stroke="currentColor" x2="-6"/>
                                <text fill="currentColor" x="-9" dy="0.32em">−500</text>
                            </g>
                            <g class="tick" opacity="1" transform="translate(0,231.93959731543623)">
                                <line stroke="currentColor" x2="-6"/>
                                <text fill="currentColor" x="-9" dy="0.32em">−1.0k</text>
                            </g>
                        </g>
                        <path d="M39,140.5L44.583,140.5L50.167,140.5L55.75,140.5L61.333,140.5L66.917,140.5L72.5,140.5L78.083,140.5L83.667,140.5L89.25,140.5L94.833,140.5L100.417,140.5L106,140.5L111.583,140.5L117.167,140.5L122.75,140.5L128.333,140.5L133.917,140.5L139.5,140.5L145.083,140.5L150.667,140.5L156.25,140.5L161.833,140.5L167.417,140.5L173,140.5L178.583,140.5L184.167,140.5L189.75,140.5L195.333,140.5L200.917,140.5L206.5,140.5L212.083,140.5L217.667,140.5L223.25,140.5L228.833,140.5L234.417,140.5L240,140.5L245.583,140.5L251.167,140.5L256.75,140.5L262.333,140.5L267.917,140.5L273.5,140.5L279.083,140.5L284.667,140.5L290.25,140.5L295.833,140.5L301.417,140.5L307,140.5L312.583,140.5L318.167,140.5L323.75,140.5L329.333,140.5L334.917,140.5L340.5,140.5L346.083,140.5L351.667,140.5L357.25,140.5L362.833,140.5L368.417,140.5L374,140.5L379.583,140.5L385.167,140.5L390.75,140.5L396.333,140.5L401.917,140.5L407.5,140.5L413.083,140.5L418.667,140.5L424.25,140.5L429.833,140.5L435.417,140.5L441,140.5L441,130.406L435.417,127.041L429.833,124.677L424.25,121.13L418.667,117.765L413.083,116.947L407.5,116.492L401.917,117.038L396.333,122.039L390.75,129.223L385.167,125.859L379.583,125.404L374,124.222L368.417,121.403L362.833,126.041L357.25,126.768L351.667,127.405L346.083,126.222L340.5,126.041L334.917,124.404L329.333,122.312L323.75,124.313L318.167,125.859L312.583,124.858L307,126.222L301.417,123.221L295.833,124.586L290.25,125.04L284.667,125.04L279.083,125.404L273.5,124.313L267.917,120.311L262.333,115.764L256.75,114.673L251.167,121.766L245.583,119.129L240,112.4L234.417,120.948L228.833,118.947L223.25,122.949L217.667,113.127L212.083,111.854L206.5,103.215L200.917,103.488L195.333,104.67L189.75,121.312L184.167,125.859L178.583,123.131L173,119.766L167.417,104.124L161.833,105.852L156.25,5L150.667,100.941L145.083,98.031L139.5,101.942L133.917,103.579L128.333,113.491L122.75,99.122L117.167,84.39L111.583,83.936L106,67.566L100.417,84.299L94.833,87.846L89.25,81.207L83.667,92.211L78.083,119.948L72.5,120.039L66.917,129.042L61.333,139.591L55.75,136.317L50.167,138.772L44.583,139.227L39,138.317Z" fill="rgb(63, 185, 80)"/>
                        <path d="M39,140.5L44.583,140.5L50.167,140.5L55.75,140.5L61.333,140.5L66.917,140.5L72.5,140.5L78.083,140.5L83.667,140.5L89.25,140.5L94.833,140.5L100.417,140.5L106,140.5L111.583,140.5L117.167,140.5L122.75,140.5L128.333,140.5L133.917,140.5L139.5,140.5L145.083,140.5L150.667,140.5L156.25,140.5L161.833,140.5L167.417,140.5L173,140.5L178.583,140.5L184.167,140.5L189.75,140.5L195.333,140.5L200.917,140.5L206.5,140.5L212.083,140.5L217.667,140.5L223.25,140.5L228.833,140.5L234.417,140.5L240,140.5L245.583,140.5L251.167,140.5L256.75,140.5L262.333,140.5L267.917,140.5L273.5,140.5L279.083,140.5L284.667,140.5L290.25,140.5L295.833,140.5L301.417,140.5L307,140.5L312.583,140.5L318.167,140.5L323.75,140.5L329.333,140.5L334.917,140.5L340.5,140.5L346.083,140.5L351.667,140.5L357.25,140.5L362.833,140.5L368.417,140.5L374,140.5L379.583,140.5L385.167,140.5L390.75,140.5L396.333,140.5L401.917,140.5L407.5,140.5L413.083,140.5L418.667,140.5L424.25,140.5L429.833,140.5L435.417,140.5L441,140.5L441,150.594L435.417,153.959L429.833,156.323L424.25,159.87L418.667,163.235L413.083,164.053L407.5,164.508L401.917,163.962L396.333,158.961L390.75,151.777L385.167,155.141L379.583,155.596L374,156.778L368.417,159.597L362.833,154.959L357.25,154.232L351.667,153.595L346.083,154.778L340.5,154.959L334.917,156.596L329.333,158.688L323.75,156.687L318.167,155.141L312.583,156.142L307,154.778L301.417,157.779L295.833,156.414L290.25,155.96L284.667,155.96L279.083,155.596L273.5,156.687L267.917,160.689L262.333,165.236L256.75,166.327L251.167,159.234L245.583,161.871L240,168.6L234.417,160.052L228.833,162.053L223.25,158.051L217.667,167.873L212.083,169.146L206.5,177.785L200.917,177.512L195.333,176.33L189.75,159.688L184.167,155.141L178.583,157.869L173,161.234L167.417,176.876L161.833,175.148L156.25,186.97L150.667,180.059L145.083,182.969L139.5,179.058L133.917,177.421L128.333,167.509L122.75,181.878L117.167,196.61L111.583,197.064L106,213.434L100.417,196.701L94.833,193.154L89.25,199.793L83.667,188.789L78.083,161.052L72.5,160.961L66.917,151.958L61.333,141.409L55.75,144.683L50.167,142.228L44.583,141.773L39,142.683Z" fill="rgb(218, 54, 51)"/>
                    </svg>
                </div>
            </section>
        </div>
        <div xmlns="http://www.w3.org/1999/xhtml" id="metrics-end"></div>
    </foreignObject>
</svg>