<svg xmlns="http://www.w3.org/2000/svg" width="480" height="516" class="">
    <defs>
        <style/>
    </defs>
    <style>@keyframes animation-gauge{0%{stroke-dasharray:0 329}}@keyframes animation-rainbow{0%,to{color:#7f00ff;fill:#7f00ff}14%{color:#a933ff;fill:#a933ff}29%{color:#007fff;fill:#007fff}43%{color:#00ff7f;fill:#00ff7f}57%{color:#ff0;fill:#ff0}71%{color:#ff7f00;fill:#ff7f00}86%{color:red;fill:red}}svg{font-family:-apple-system,BlinkMacSystemFont,Segoe UI,Helvetica,Arial,sans-serif,Apple Color Emoji,Segoe UI Emoji;color:#777}h2,h3{margin:8px 0 2px;padding:0;color:#0366d6;font-weight:400}h2 svg,h3 svg{fill:currentColor}h2{font-size:16px}h3,svg{font-size:14px}section&gt;.field{margin-left:5px;margin-right:5px}.field{display:flex;align-items:center;margin-bottom:2px;white-space:nowrap}.field svg{margin:0 8px;fill:#959da5;flex-shrink:0}.row{display:flex;flex-wrap:wrap}.row section{flex:1 1 0}.margin-bottom{margin-bottom:16px}.margin-lr-auto{margin-left:auto;margin-right:auto}.diff-handle{color:#58a6ff;max-width:200px;text-overflow:ellipsis;overflow:hidden}.diff-box{display:inline-block;width:8px;height:8px;margin-left:1px;background-color:rgba(110,118,129,.4);border:1px solid rgba(246,240,251,.1)}.diff-box:first-child{margin-left:9px}.diff-box.added{background-color:#3fb950}.diff-box.deleted{background-color:#da3633}.diff-stats,code,span.code{font-family:SFMono-Regular,Consolas,Liberation Mono,Menlo,monospace}.diff-stats{margin-left:4px;font-weight:700;font-size:12px;white-space:nowrap}.added{color:#3fb950}.deleted{color:#da3633}code,span.code{background-color:#7777771f;padding:1px 5px;font-size:80%;border-radius:6px;color:#777}code{display:inline-block}span.code{margin:0 4px -3px}:root{--color-calendar-graph-day-bg:#ebedf0;--color-calendar-graph-day-border:rgba(27,31,35,0.06);--color-calendar-graph-day-L1-bg:#9be9a8;--color-calendar-graph-day-L2-bg:#40c463;--color-calendar-graph-day-L3-bg:#30a14e;--color-calendar-graph-day-L4-bg:#216e39;--color-calendar-halloween-graph-day-L1-bg:#ffee4a;--color-calendar-halloween-graph-day-L2-bg:#ffc501;--color-calendar-halloween-graph-day-L3-bg:#fe9600;--color-calendar-halloween-graph-day-L4-bg:#03001c;--color-calendar-winter-graph-day-L1-bg:#0a3069;--color-calendar-winter-graph-day-L2-bg:#0969da;--color-calendar-winter-graph-day-L3-bg:#54aeff;--color-calendar-winter-graph-day-L4-bg:#b6e3ff;--color-calendar-graph-day-L4-border:rgba(27,31,35,0.06);--color-calendar-graph-day-L3-border:rgba(27,31,35,0.06);--color-calendar-graph-day-L2-border:rgba(27,31,35,0.06);--color-calendar-graph-day-L1-border:rgba(27,31,35,0.06)}#metrics-end{width:100%}</style>
    <style/>
    <foreignObject x="0" y="0" width="100%" height="100%">
        <div xmlns="http://www.w3.org/1999/xhtml" xmlns:xlink="http://www.w3.org/1999/xlink" class="items-wrapper">
            <section>
                <h2 class="field">
                    <svg xmlns="http://www.w3.org/2000/svg" viewBox="0 0 16 16" width="16" height="16">
                        <path fill-rule="evenodd" d="M2.75 1.5a.25.25 0 00-.25.25v12.5c0 .138.112.25.25.25h10.5a.25.25 0 00.25-.25V4.664a.25.25 0 00-.073-.177l-2.914-2.914a.25.25 0 00-.177-.073H2.75zM1 1.75C1 .784 1.784 0 2.75 0h7.586c.464 0 .909.184 1.237.513l2.914 2.914c.329.328.513.773.513 1.237v9.586A1.75 1.75 0 0113.25 16H2.75A1.75 1.75 0 011 14.25V1.75zm7 1.5a.75.75 0 01.75.75v1.5h1.5a.75.75 0 010 1.5h-1.5v1.5a.75.75 0 01-1.5 0V7h-1.5a.75.75 0 010-1.5h1.5V4A.75.75 0 018 3.25zm-3 8a.75.75 0 01.75-.75h4.5a.75.75 0 010 1.5h-4.5a.75.75 0 01-.75-.75z"/>
                    </svg>
                    Lines of code pushed
                </h2>
                <div class="row">
                    <section>
                        <div class="field">
                            <svg xmlns="http://www.w3.org/2000/svg" viewBox="0 0 16 16" width="16" height="16">
                                <path fill-rule="evenodd" d="M8 5.5a2.5 2.5 0 100 5 2.5 2.5 0 000-5zM4 8a4 4 0 118 0 4 4 0 01-8 0z"/>
                            </svg>
                            <span class="diff-handle">bstordrup/bstordrup</span>
                        </div>
                        <div class="field">
                            <svg xmlns="http://www.w3.org/2000/svg" viewBox="0 0 16 16" width="16" height="16">
                                <path fill-rule="evenodd" d="M8 5.5a2.5 2.5 0 100 5 2.5 2.5 0 000-5zM4 8a4 4 0 118 0 4 4 0 01-8 0z"/>
                            </svg>
                            <span class="diff-handle">bstordrup/Universal3D_Test</span>
                        </div>
                        <div class="field">
                            <svg xmlns="http://www.w3.org/2000/svg" viewBox="0 0 16 16" width="16" height="16">
                                <path fill-rule="evenodd" d="M8 5.5a2.5 2.5 0 100 5 2.5 2.5 0 000-5zM4 8a4 4 0 118 0 4 4 0 01-8 0z"/>
                            </svg>
                            <span class="diff-handle">bstordrup/CoolStuff</span>
                        </div>
                        <div class="field">
                            <svg xmlns="http://www.w3.org/2000/svg" viewBox="0 0 16 16" width="16" height="16">
                                <path fill-rule="evenodd" d="M8 5.5a2.5 2.5 0 100 5 2.5 2.5 0 000-5zM4 8a4 4 0 118 0 4 4 0 01-8 0z"/>
                            </svg>
                            <span class="diff-handle">bstordrup/SwitchVsIf</span>
                        </div>
                    </section>
                    <section>
                        <div class="field">
                            <div class="diff-box added"></div>
                            <div class="diff-box added"></div>
                            <div class="diff-box added"></div>
                            <div class="diff-box deleted"></div>
                            <div class="diff-box deleted"></div>
                            <div class="diff-stats">
                                <span class="added"> +17.6k</span>
                                <span class="deleted"> -17.6k</span>
                            </div>
                            <span> </span>
                        </div>
                        <div class="field">
                            <div class="diff-box added"></div>
                            <div class="diff-box added"></div>
                            <div class="diff-box added"></div>
                            <div class="diff-box added"></div>
                            <div class="diff-box deleted"></div>
                            <div class="diff-stats">
                                <span class="added"> +8.07k</span>
                                <span class="deleted">   -480</span>
                            </div>
                            <span> </span>
                        </div>
                        <div class="field">
                            <div class="diff-box added"></div>
                            <div class="diff-box added"></div>
                            <div class="diff-box added"></div>
                            <div class="diff-box added"></div>
                            <div class="diff-box deleted"></div>
                            <div class="diff-stats">
                                <span class="added"> +4.47k</span>
                                <span class="deleted">     -8</span>
                            </div>
                            <span> </span>
                        </div>
                        <div class="field">
                            <div class="diff-box added"></div>
                            <div class="diff-box added"></div>
                            <div class="diff-box added"></div>
                            <div class="diff-box added"></div>
                            <div class="diff-box deleted"></div>
                            <div class="diff-stats">
                                <span class="added">   +982</span>
                                <span class="deleted">     -3</span>
                            </div>
                            <span> </span>
                        </div>
                    </section>
                </div>
                <div class="row margin-bottom">
                    <h3 class="margin-lr-auto">Diff history</h3>
                    <svg xmlns="http://www.w3.org/2000/svg" width="480" height="315">
                        <g transform="translate(0,276)" fill="none" font-size="10" font-family="sans-serif" text-anchor="middle">
                            <path class="domain" stroke="currentColor" d="M39.5,6V0.5H441.5V6"/>
                            <g class="tick" opacity="1" transform="translate(57.13351648351649,0)">
                                <line stroke="currentColor" y2="6"/>
                                <text fill="currentColor" y="9" dy="0.71em" transform="translate(-5,5) rotate(-45)" style="text-anchor: end;">February</text>
                            </g>
                            <g class="tick" opacity="1" transform="translate(81.87197802197802,0)">
                                <line stroke="currentColor" y2="6"/>
                                <text fill="currentColor" y="9" dy="0.71em" transform="translate(-5,5) rotate(-45)" style="text-anchor: end;">March</text>
                            </g>
                            <g class="tick" opacity="1" transform="translate(109.22417582417582,0)">
                                <line stroke="currentColor" y2="6"/>
                                <text fill="currentColor" y="9" dy="0.71em" transform="translate(-5,5) rotate(-45)" style="text-anchor: end;">April</text>
                            </g>
                            <g class="tick" opacity="1" transform="translate(135.72967032967034,0)">
                                <line stroke="currentColor" y2="6"/>
                                <text fill="currentColor" y="9" dy="0.71em" transform="translate(-5,5) rotate(-45)" style="text-anchor: end;">May</text>
                            </g>
                            <g class="tick" opacity="1" transform="translate(163.11868131868133,0)">
                                <line stroke="currentColor" y2="6"/>
                                <text fill="currentColor" y="9" dy="0.71em" transform="translate(-5,5) rotate(-45)" style="text-anchor: end;">June</text>
                            </g>
                            <g class="tick" opacity="1" transform="translate(189.62417582417584,0)">
                                <line stroke="currentColor" y2="6"/>
                                <text fill="currentColor" y="9" dy="0.71em" transform="translate(-5,5) rotate(-45)" style="text-anchor: end;">July</text>
                            </g>
                            <g class="tick" opacity="1" transform="translate(217.01318681318682,0)">
                                <line stroke="currentColor" y2="6"/>
                                <text fill="currentColor" y="9" dy="0.71em" transform="translate(-5,5) rotate(-45)" style="text-anchor: end;">August</text>
                            </g>
                            <g class="tick" opacity="1" transform="translate(244.40219780219778,0)">
                                <line stroke="currentColor" y2="6"/>
                                <text fill="currentColor" y="9" dy="0.71em" transform="translate(-5,5) rotate(-45)" style="text-anchor: end;">September</text>
                            </g>
                            <g class="tick" opacity="1" transform="translate(270.9076923076923,0)">
                                <line stroke="currentColor" y2="6"/>
                                <text fill="currentColor" y="9" dy="0.71em" transform="translate(-5,5) rotate(-45)" style="text-anchor: end;">October</text>
                            </g>
                            <g class="tick" opacity="1" transform="translate(298.3335164835165,0)">
                                <line stroke="currentColor" y2="6"/>
                                <text fill="currentColor" y="9" dy="0.71em" transform="translate(-5,5) rotate(-45)" style="text-anchor: end;">November</text>
                            </g>
                            <g class="tick" opacity="1" transform="translate(324.839010989011,0)">
                                <line stroke="currentColor" y2="6"/>
                                <text fill="currentColor" y="9" dy="0.71em" transform="translate(-5,5) rotate(-45)" style="text-anchor: end;">December</text>
                            </g>
                            <g class="tick" opacity="1" transform="translate(352.22802197802196,0)">
                                <line stroke="currentColor" y2="6"/>
                                <text fill="currentColor" y="9" dy="0.71em" transform="translate(-5,5) rotate(-45)" style="text-anchor: end;">2026</text>
                            </g>
                            <g class="tick" opacity="1" transform="translate(379.61703296703297,0)">
                                <line stroke="currentColor" y2="6"/>
                                <text fill="currentColor" y="9" dy="0.71em" transform="translate(-5,5) rotate(-45)" style="text-anchor: end;">February</text>
                            </g>
                            <g class="tick" opacity="1" transform="translate(404.3554945054945,0)">
                                <line stroke="currentColor" y2="6"/>
                                <text fill="currentColor" y="9" dy="0.71em" transform="translate(-5,5) rotate(-45)" style="text-anchor: end;">March</text>
                            </g>
                            <g class="tick" opacity="1" transform="translate(431.7076923076923,0)">
                                <line stroke="currentColor" y2="6"/>
                                <text fill="currentColor" y="9" dy="0.71em" transform="translate(-5,5) rotate(-45)" style="text-anchor: end;">April</text>
                            </g>
                        </g>
                        <g transform="translate(39,0)" fill="none" font-size="10" font-family="sans-serif" text-anchor="end">
                            <path class="domain" stroke="currentColor" d="M-6,5.5H0.5V276.5H-6"/>
                            <g class="tick" opacity="1" transform="translate(0,17.199177706715393)">
                                <line stroke="currentColor" x2="-6"/>
                                <text fill="currentColor" x="-9" dy="0.32em">6.0k</text>
                            </g>
                            <g class="tick" opacity="1" transform="translate(0,58.46611847114358)">
                                <line stroke="currentColor" x2="-6"/>
                                <text fill="currentColor" x="-9" dy="0.32em">4.0k</text>
                            </g>
                            <g class="tick" opacity="1" transform="translate(0,99.7330592355718)">
                                <line stroke="currentColor" x2="-6"/>
                                <text fill="currentColor" x="-9" dy="0.32em">2.0k</text>
                            </g>
                            <g class="tick" opacity="1" transform="translate(0,141)">
                                <line stroke="currentColor" x2="-6"/>
                                <text fill="currentColor" x="-9" dy="0.32em">0.0</text>
                            </g>
                            <g class="tick" opacity="1" transform="translate(0,182.2669407644282)">
                                <line stroke="currentColor" x2="-6"/>
                                <text fill="currentColor" x="-9" dy="0.32em">−2.0k</text>
                            </g>
                            <g class="tick" opacity="1" transform="translate(0,223.53388152885637)">
                                <line stroke="currentColor" x2="-6"/>
                                <text fill="currentColor" x="-9" dy="0.32em">−4.0k</text>
                            </g>
                            <g class="tick" opacity="1" transform="translate(0,264.8008222932846)">
                                <line stroke="currentColor" x2="-6"/>
                                <text fill="currentColor" x="-9" dy="0.32em">−6.0k</text>
                            </g>
                        </g>
                        <path d="M39,140.5L45.185,140.5L51.369,140.5L57.554,140.5L63.738,140.5L69.923,140.5L76.108,140.5L82.292,140.5L88.477,140.5L94.662,140.5L100.846,140.5L107.031,140.5L113.215,140.5L119.4,140.5L125.585,140.5L131.769,140.5L137.954,140.5L144.138,140.5L150.323,140.5L156.508,140.5L162.692,140.5L168.877,140.5L175.062,140.5L181.246,140.5L187.431,140.5L193.615,140.5L199.8,140.5L205.985,140.5L212.169,140.5L218.354,140.5L224.538,140.5L230.723,140.5L236.908,140.5L243.092,140.5L249.277,140.5L255.462,140.5L261.646,140.5L267.831,140.5L274.015,140.5L280.2,140.5L286.385,140.5L292.569,140.5L298.754,140.5L304.938,140.5L311.123,140.5L317.308,140.5L323.492,140.5L329.677,140.5L335.862,140.5L342.046,140.5L348.231,140.5L354.415,140.5L360.6,140.5L366.785,140.5L372.969,140.5L379.154,140.5L385.338,140.5L391.523,140.5L397.708,140.5L403.892,140.5L410.077,140.5L416.262,140.5L422.446,140.5L428.631,140.5L434.815,140.5L441,140.5L441,138.849L434.815,136.311L428.631,137.941L422.446,137.178L416.262,137.075L410.077,136.807L403.892,136.167L397.708,137.219L391.523,137.384L385.338,137.529L379.154,134.062L372.969,137.219L366.785,136.848L360.6,135.94L354.415,136.827L348.231,137.178L342.046,136.951L335.862,137.261L329.677,136.58L323.492,136.889L317.308,136.992L311.123,136.992L304.938,137.075L298.754,130.596L292.569,134.083L286.385,134.888L280.2,120.362L274.015,136.25L267.831,134.516L261.646,129.977L255.462,136.064L249.277,52.209L243.092,136.518L236.908,134.289L230.723,134L224.538,132.04L218.354,132.102L212.169,132.37L205.985,136.146L199.8,137.178L193.615,136.559L187.431,135.796L181.246,132.247L175.062,132.639L168.877,109.756L162.692,131.524L156.508,130.864L150.323,131.751L144.138,129.048L137.954,134.372L131.769,127.934L125.585,127.769L119.4,127.666L113.215,94.137L107.031,127.749L100.846,128.553L94.662,5L88.477,129.544L82.292,135.837L76.108,135.857L69.923,137.9L63.738,140.294L57.554,139.551L51.369,140.108L45.185,140.211L39,140.005Z" fill="rgb(63, 185, 80)"/>
                        <path d="M39,140.5L45.185,140.5L51.369,140.5L57.554,140.5L63.738,140.5L69.923,140.5L76.108,140.5L82.292,140.5L88.477,140.5L94.662,140.5L100.846,140.5L107.031,140.5L113.215,140.5L119.4,140.5L125.585,140.5L131.769,140.5L137.954,140.5L144.138,140.5L150.323,140.5L156.508,140.5L162.692,140.5L168.877,140.5L175.062,140.5L181.246,140.5L187.431,140.5L193.615,140.5L199.8,140.5L205.985,140.5L212.169,140.5L218.354,140.5L224.538,140.5L230.723,140.5L236.908,140.5L243.092,140.5L249.277,140.5L255.462,140.5L261.646,140.5L267.831,140.5L274.015,140.5L280.2,140.5L286.385,140.5L292.569,140.5L298.754,140.5L304.938,140.5L311.123,140.5L317.308,140.5L323.492,140.5L329.677,140.5L335.862,140.5L342.046,140.5L348.231,140.5L354.415,140.5L360.6,140.5L366.785,140.5L372.969,140.5L379.154,140.5L385.338,140.5L391.523,140.5L397.708,140.5L403.892,140.5L410.077,140.5L416.262,140.5L422.446,140.5L428.631,140.5L434.815,140.5L441,140.5L441,142.151L434.815,144.689L428.631,143.059L422.446,143.822L416.262,143.925L410.077,144.193L403.892,144.833L397.708,143.781L391.523,143.616L385.338,143.471L379.154,145.101L372.969,143.781L366.785,144.152L360.6,144.647L354.415,144.173L348.231,143.822L342.046,144.049L335.862,143.739L329.677,144.42L323.492,144.111L317.308,144.008L311.123,144.008L304.938,143.925L298.754,144.235L292.569,145.101L286.385,146.112L280.2,146.442L274.015,144.75L267.831,145.803L261.646,147.825L255.462,144.936L249.277,145.431L243.092,144.482L236.908,146.711L230.723,147L224.538,148.96L218.354,148.898L212.169,148.63L205.985,144.854L199.8,143.822L193.615,144.441L187.431,145.204L181.246,148.753L175.062,148.361L168.877,151.044L162.692,149.476L156.508,150.136L150.323,149.249L144.138,148.918L137.954,146.628L131.769,153.458L125.585,153.231L119.4,153.334L113.215,159.318L107.031,153.251L100.846,152.447L94.662,155.212L88.477,151.456L82.292,145.163L76.108,145.143L69.923,143.1L63.738,140.706L57.554,141.449L51.369,140.892L45.185,140.789L39,140.995Z" fill="rgb(218, 54, 51)"/>
                    </svg>
                </div>
            </section>
        </div>
        <div xmlns="http://www.w3.org/1999/xhtml" id="metrics-end"></div>
    </foreignObject>
</svg>