<svg xmlns="http://www.w3.org/2000/svg" width="480" height="516" class="">
    <defs>
        <style/>
    </defs>
    <style>@keyframes animation-gauge{0%{stroke-dasharray:0 329}}@keyframes animation-rainbow{0%,to{color:#7f00ff;fill:#7f00ff}14%{color:#a933ff;fill:#a933ff}29%{color:#007fff;fill:#007fff}43%{color:#00ff7f;fill:#00ff7f}57%{color:#ff0;fill:#ff0}71%{color:#ff7f00;fill:#ff7f00}86%{color:red;fill:red}}svg{font-family:-apple-system,BlinkMacSystemFont,Segoe UI,Helvetica,Arial,sans-serif,Apple Color Emoji,Segoe UI Emoji;color:#777}h2,h3{margin:8px 0 2px;padding:0;color:#0366d6;font-weight:400}h2 svg,h3 svg{fill:currentColor}h2{font-size:16px}h3,svg{font-size:14px}section&gt;.field{margin-left:5px;margin-right:5px}.field{display:flex;align-items:center;margin-bottom:2px;white-space:nowrap}.field svg{margin:0 8px;fill:#959da5;flex-shrink:0}.row{display:flex;flex-wrap:wrap}.row section{flex:1 1 0}.margin-bottom{margin-bottom:16px}.margin-lr-auto{margin-left:auto;margin-right:auto}.diff-handle{color:#58a6ff;max-width:200px;text-overflow:ellipsis;overflow:hidden}.diff-box{display:inline-block;width:8px;height:8px;margin-left:1px;background-color:rgba(110,118,129,.4);border:1px solid rgba(246,240,251,.1)}.diff-box:first-child{margin-left:9px}.diff-box.added{background-color:#3fb950}.diff-box.deleted{background-color:#da3633}.diff-stats,code,span.code{font-family:SFMono-Regular,Consolas,Liberation Mono,Menlo,monospace}.diff-stats{margin-left:4px;font-weight:700;font-size:12px;white-space:nowrap}.added{color:#3fb950}.deleted{color:#da3633}code,span.code{background-color:#7777771f;padding:1px 5px;font-size:80%;border-radius:6px;color:#777}code{display:inline-block}span.code{margin:0 4px -3px}:root{--color-calendar-graph-day-bg:#ebedf0;--color-calendar-graph-day-border:rgba(27,31,35,0.06);--color-calendar-graph-day-L1-bg:#9be9a8;--color-calendar-graph-day-L2-bg:#40c463;--color-calendar-graph-day-L3-bg:#30a14e;--color-calendar-graph-day-L4-bg:#216e39;--color-calendar-halloween-graph-day-L1-bg:#ffee4a;--color-calendar-halloween-graph-day-L2-bg:#ffc501;--color-calendar-halloween-graph-day-L3-bg:#fe9600;--color-calendar-halloween-graph-day-L4-bg:#03001c;--color-calendar-winter-graph-day-L1-bg:#0a3069;--color-calendar-winter-graph-day-L2-bg:#0969da;--color-calendar-winter-graph-day-L3-bg:#54aeff;--color-calendar-winter-graph-day-L4-bg:#b6e3ff;--color-calendar-graph-day-L4-border:rgba(27,31,35,0.06);--color-calendar-graph-day-L3-border:rgba(27,31,35,0.06);--color-calendar-graph-day-L2-border:rgba(27,31,35,0.06);--color-calendar-graph-day-L1-border:rgba(27,31,35,0.06)}#metrics-end{width:100%}</style>
    <style/>
    <foreignObject x="0" y="0" width="100%" height="100%">
        <div xmlns="http://www.w3.org/1999/xhtml" xmlns:xlink="http://www.w3.org/1999/xlink" class="items-wrapper">
            <section>
                <h2 class="field">
                    <svg xmlns="http://www.w3.org/2000/svg" viewBox="0 0 16 16" width="16" height="16">
                        <path fill-rule="evenodd" d="M2.75 1.5a.25.25 0 00-.25.25v12.5c0 .138.112.25.25.25h10.5a.25.25 0 00.25-.25V4.664a.25.25 0 00-.073-.177l-2.914-2.914a.25.25 0 00-.177-.073H2.75zM1 1.75C1 .784 1.784 0 2.75 0h7.586c.464 0 .909.184 1.237.513l2.914 2.914c.329.328.513.773.513 1.237v9.586A1.75 1.75 0 0113.25 16H2.75A1.75 1.75 0 011 14.25V1.75zm7 1.5a.75.75 0 01.75.75v1.5h1.5a.75.75 0 010 1.5h-1.5v1.5a.75.75 0 01-1.5 0V7h-1.5a.75.75 0 010-1.5h1.5V4A.75.75 0 018 3.25zm-3 8a.75.75 0 01.75-.75h4.5a.75.75 0 010 1.5h-4.5a.75.75 0 01-.75-.75z"/>
                    </svg>
                    Lines of code pushed
                </h2>
                <div class="row">
                    <section>
                        <div class="field">
                            <svg xmlns="http://www.w3.org/2000/svg" viewBox="0 0 16 16" width="16" height="16">
                                <path fill-rule="evenodd" d="M8 5.5a2.5 2.5 0 100 5 2.5 2.5 0 000-5zM4 8a4 4 0 118 0 4 4 0 01-8 0z"/>
                            </svg>
                            <span class="diff-handle">bstordrup/BestoFramework</span>
                        </div>
                        <div class="field">
                            <svg xmlns="http://www.w3.org/2000/svg" viewBox="0 0 16 16" width="16" height="16">
                                <path fill-rule="evenodd" d="M8 5.5a2.5 2.5 0 100 5 2.5 2.5 0 000-5zM4 8a4 4 0 118 0 4 4 0 01-8 0z"/>
                            </svg>
                            <span class="diff-handle">bstordrup/bstordrup</span>
                        </div>
                        <div class="field">
                            <svg xmlns="http://www.w3.org/2000/svg" viewBox="0 0 16 16" width="16" height="16">
                                <path fill-rule="evenodd" d="M8 5.5a2.5 2.5 0 100 5 2.5 2.5 0 000-5zM4 8a4 4 0 118 0 4 4 0 01-8 0z"/>
                            </svg>
                            <span class="diff-handle">bstordrup/Universal3D_Test</span>
                        </div>
                        <div class="field">
                            <svg xmlns="http://www.w3.org/2000/svg" viewBox="0 0 16 16" width="16" height="16">
                                <path fill-rule="evenodd" d="M8 5.5a2.5 2.5 0 100 5 2.5 2.5 0 000-5zM4 8a4 4 0 118 0 4 4 0 01-8 0z"/>
                            </svg>
                            <span class="diff-handle">bstordrup/CoolStuff</span>
                        </div>
                    </section>
                    <section>
                        <div class="field">
                            <div class="diff-box added"></div>
                            <div class="diff-box added"></div>
                            <div class="diff-box added"></div>
                            <div class="diff-box added"></div>
                            <div class="diff-box deleted"></div>
                            <div class="diff-stats">
                                <span class="added">  +137k</span>
                                <span class="deleted">   -114</span>
                            </div>
                            <span> </span>
                        </div>
                        <div class="field">
                            <div class="diff-box added"></div>
                            <div class="diff-box added"></div>
                            <div class="diff-box added"></div>
                            <div class="diff-box deleted"></div>
                            <div class="diff-box deleted"></div>
                            <div class="diff-stats">
                                <span class="added"> +17.4k</span>
                                <span class="deleted"> -17.4k</span>
                            </div>
                            <span> </span>
                        </div>
                        <div class="field">
                            <div class="diff-box added"></div>
                            <div class="diff-box added"></div>
                            <div class="diff-box added"></div>
                            <div class="diff-box added"></div>
                            <div class="diff-box deleted"></div>
                            <div class="diff-stats">
                                <span class="added"> +8.07k</span>
                                <span class="deleted">   -480</span>
                            </div>
                            <span> </span>
                        </div>
                        <div class="field">
                            <div class="diff-box added"></div>
                            <div class="diff-box added"></div>
                            <div class="diff-box added"></div>
                            <div class="diff-box added"></div>
                            <div class="diff-box deleted"></div>
                            <div class="diff-stats">
                                <span class="added"> +4.47k</span>
                                <span class="deleted">     -8</span>
                            </div>
                            <span> </span>
                        </div>
                    </section>
                </div>
                <div class="row margin-bottom">
                    <h3 class="margin-lr-auto">Diff history</h3>
                    <svg xmlns="http://www.w3.org/2000/svg" width="480" height="315">
                        <g transform="translate(0,276)" fill="none" font-size="10" font-family="sans-serif" text-anchor="middle">
                            <path class="domain" stroke="currentColor" d="M39.5,6V0.5H441.5V6"/>
                            <g class="tick" opacity="1" transform="translate(55.98776908023483,0)">
                                <line stroke="currentColor" y2="6"/>
                                <text fill="currentColor" y="9" dy="0.71em" transform="translate(-5,5) rotate(-45)" style="text-anchor: end;">December</text>
                            </g>
                            <g class="tick" opacity="1" transform="translate(80.3752446183953,0)">
                                <line stroke="currentColor" y2="6"/>
                                <text fill="currentColor" y="9" dy="0.71em" transform="translate(-5,5) rotate(-45)" style="text-anchor: end;">2025</text>
                            </g>
                            <g class="tick" opacity="1" transform="translate(104.76272015655579,0)">
                                <line stroke="currentColor" y2="6"/>
                                <text fill="currentColor" y="9" dy="0.71em" transform="translate(-5,5) rotate(-45)" style="text-anchor: end;">February</text>
                            </g>
                            <g class="tick" opacity="1" transform="translate(126.79011741682974,0)">
                                <line stroke="currentColor" y2="6"/>
                                <text fill="currentColor" y="9" dy="0.71em" transform="translate(-5,5) rotate(-45)" style="text-anchor: end;">March</text>
                            </g>
                            <g class="tick" opacity="1" transform="translate(151.14481409001957,0)">
                                <line stroke="currentColor" y2="6"/>
                                <text fill="currentColor" y="9" dy="0.71em" transform="translate(-5,5) rotate(-45)" style="text-anchor: end;">April</text>
                            </g>
                            <g class="tick" opacity="1" transform="translate(174.74559686888455,0)">
                                <line stroke="currentColor" y2="6"/>
                                <text fill="currentColor" y="9" dy="0.71em" transform="translate(-5,5) rotate(-45)" style="text-anchor: end;">May</text>
                            </g>
                            <g class="tick" opacity="1" transform="translate(199.13307240704503,0)">
                                <line stroke="currentColor" y2="6"/>
                                <text fill="currentColor" y="9" dy="0.71em" transform="translate(-5,5) rotate(-45)" style="text-anchor: end;">June</text>
                            </g>
                            <g class="tick" opacity="1" transform="translate(222.73385518591,0)">
                                <line stroke="currentColor" y2="6"/>
                                <text fill="currentColor" y="9" dy="0.71em" transform="translate(-5,5) rotate(-45)" style="text-anchor: end;">July</text>
                            </g>
                            <g class="tick" opacity="1" transform="translate(247.12133072407045,0)">
                                <line stroke="currentColor" y2="6"/>
                                <text fill="currentColor" y="9" dy="0.71em" transform="translate(-5,5) rotate(-45)" style="text-anchor: end;">August</text>
                            </g>
                            <g class="tick" opacity="1" transform="translate(271.5088062622309,0)">
                                <line stroke="currentColor" y2="6"/>
                                <text fill="currentColor" y="9" dy="0.71em" transform="translate(-5,5) rotate(-45)" style="text-anchor: end;">September</text>
                            </g>
                            <g class="tick" opacity="1" transform="translate(295.1095890410959,0)">
                                <line stroke="currentColor" y2="6"/>
                                <text fill="currentColor" y="9" dy="0.71em" transform="translate(-5,5) rotate(-45)" style="text-anchor: end;">October</text>
                            </g>
                            <g class="tick" opacity="1" transform="translate(319.529843444227,0)">
                                <line stroke="currentColor" y2="6"/>
                                <text fill="currentColor" y="9" dy="0.71em" transform="translate(-5,5) rotate(-45)" style="text-anchor: end;">November</text>
                            </g>
                            <g class="tick" opacity="1" transform="translate(343.130626223092,0)">
                                <line stroke="currentColor" y2="6"/>
                                <text fill="currentColor" y="9" dy="0.71em" transform="translate(-5,5) rotate(-45)" style="text-anchor: end;">December</text>
                            </g>
                            <g class="tick" opacity="1" transform="translate(367.5181017612524,0)">
                                <line stroke="currentColor" y2="6"/>
                                <text fill="currentColor" y="9" dy="0.71em" transform="translate(-5,5) rotate(-45)" style="text-anchor: end;">2026</text>
                            </g>
                            <g class="tick" opacity="1" transform="translate(391.9055772994129,0)">
                                <line stroke="currentColor" y2="6"/>
                                <text fill="currentColor" y="9" dy="0.71em" transform="translate(-5,5) rotate(-45)" style="text-anchor: end;">February</text>
                            </g>
                            <g class="tick" opacity="1" transform="translate(413.9329745596869,0)">
                                <line stroke="currentColor" y2="6"/>
                                <text fill="currentColor" y="9" dy="0.71em" transform="translate(-5,5) rotate(-45)" style="text-anchor: end;">March</text>
                            </g>
                            <g class="tick" opacity="1" transform="translate(438.28767123287673,0)">
                                <line stroke="currentColor" y2="6"/>
                                <text fill="currentColor" y="9" dy="0.71em" transform="translate(-5,5) rotate(-45)" style="text-anchor: end;">April</text>
                            </g>
                        </g>
                        <g transform="translate(39,0)" fill="none" font-size="10" font-family="sans-serif" text-anchor="end">
                            <path class="domain" stroke="currentColor" d="M-6,5.5H0.5V276.5H-6"/>
                            <g class="tick" opacity="1" transform="translate(0,43.245115862984434)">
                                <line stroke="currentColor" x2="-6"/>
                                <text fill="currentColor" x="-9" dy="0.32em">100k</text>
                            </g>
                            <g class="tick" opacity="1" transform="translate(0,92.12255793149222)">
                                <line stroke="currentColor" x2="-6"/>
                                <text fill="currentColor" x="-9" dy="0.32em">50k</text>
                            </g>
                            <g class="tick" opacity="1" transform="translate(0,141)">
                                <line stroke="currentColor" x2="-6"/>
                                <text fill="currentColor" x="-9" dy="0.32em">0.0</text>
                            </g>
                            <g class="tick" opacity="1" transform="translate(0,189.87744206850775)">
                                <line stroke="currentColor" x2="-6"/>
                                <text fill="currentColor" x="-9" dy="0.32em">−50k</text>
                            </g>
                            <g class="tick" opacity="1" transform="translate(0,238.75488413701555)">
                                <line stroke="currentColor" x2="-6"/>
                                <text fill="currentColor" x="-9" dy="0.32em">−100k</text>
                            </g>
                        </g>
                        <path d="M39,140.5L88.562,140.5L94.068,140.5L99.575,140.5L105.082,140.5L110.589,140.5L116.096,140.5L121.603,140.5L127.11,140.5L132.616,140.5L138.123,140.5L143.63,140.5L149.137,140.5L154.644,140.5L160.151,140.5L165.658,140.5L171.164,140.5L176.671,140.5L182.178,140.5L187.685,140.5L193.192,140.5L198.699,140.5L204.205,140.5L209.712,140.5L215.219,140.5L220.726,140.5L226.233,140.5L231.74,140.5L237.247,140.5L242.753,140.5L248.26,140.5L253.767,140.5L259.274,140.5L264.781,140.5L270.288,140.5L275.795,140.5L281.301,140.5L286.808,140.5L292.315,140.5L297.822,140.5L303.329,140.5L308.836,140.5L314.342,140.5L319.849,140.5L325.356,140.5L330.863,140.5L336.37,140.5L341.877,140.5L347.384,140.5L352.89,140.5L358.397,140.5L363.904,140.5L369.411,140.5L374.918,140.5L380.425,140.5L385.932,140.5L391.438,140.5L396.945,140.5L402.452,140.5L407.959,140.5L413.466,140.5L418.973,140.5L424.479,140.5L429.986,140.5L435.493,140.5L441,140.5L441,140.477L435.493,140.379L429.986,140.343L424.479,140.338L418.973,140.325L413.466,140.295L407.959,140.345L402.452,140.352L396.945,140.359L391.438,140.195L385.932,140.345L380.425,140.327L374.918,140.284L369.411,140.326L363.904,140.343L358.397,140.332L352.89,140.347L347.384,140.314L341.877,140.329L336.37,140.334L330.863,140.334L325.356,140.338L319.849,140.031L314.342,139.386L308.836,140.234L303.329,137.775L297.822,140.299L292.315,140.217L286.808,140.001L281.301,139.368L275.795,135.218L270.288,140.311L264.781,140.206L259.274,140.192L253.767,139.438L248.26,140.102L242.753,140.115L237.247,140.294L231.74,140.343L226.233,140.313L220.726,140.277L215.219,140.109L209.712,140.128L204.205,140.003L198.699,140.075L193.192,140.043L187.685,140.086L182.178,139.957L176.671,140.21L171.164,139.905L165.658,139.897L160.151,139.892L154.644,5L149.137,139.092L143.63,139.934L138.123,134.08L132.616,139.981L127.11,140.279L121.603,140.28L116.096,140.377L110.589,140.49L105.082,140.455L99.575,140.481L94.068,140.486L88.562,140.477L39,140.088Z" fill="rgb(63, 185, 80)"/>
                        <path d="M39,140.5L88.562,140.5L94.068,140.5L99.575,140.5L105.082,140.5L110.589,140.5L116.096,140.5L121.603,140.5L127.11,140.5L132.616,140.5L138.123,140.5L143.63,140.5L149.137,140.5L154.644,140.5L160.151,140.5L165.658,140.5L171.164,140.5L176.671,140.5L182.178,140.5L187.685,140.5L193.192,140.5L198.699,140.5L204.205,140.5L209.712,140.5L215.219,140.5L220.726,140.5L226.233,140.5L231.74,140.5L237.247,140.5L242.753,140.5L248.26,140.5L253.767,140.5L259.274,140.5L264.781,140.5L270.288,140.5L275.795,140.5L281.301,140.5L286.808,140.5L292.315,140.5L297.822,140.5L303.329,140.5L308.836,140.5L314.342,140.5L319.849,140.5L325.356,140.5L330.863,140.5L336.37,140.5L341.877,140.5L347.384,140.5L352.89,140.5L358.397,140.5L363.904,140.5L369.411,140.5L374.918,140.5L380.425,140.5L385.932,140.5L391.438,140.5L396.945,140.5L402.452,140.5L407.959,140.5L413.466,140.5L418.973,140.5L424.479,140.5L429.986,140.5L435.493,140.5L441,140.5L441,140.523L435.493,140.621L429.986,140.657L424.479,140.662L418.973,140.675L413.466,140.705L407.959,140.655L402.452,140.648L396.945,140.641L391.438,140.718L385.932,140.655L380.425,140.673L374.918,140.696L369.411,140.674L363.904,140.657L358.397,140.668L352.89,140.653L347.384,140.686L341.877,140.671L336.37,140.666L330.863,140.666L325.356,140.662L319.849,140.677L314.342,141.69L308.836,140.766L303.329,141.474L297.822,140.701L292.315,140.751L286.808,140.847L281.301,141.169L275.795,140.768L270.288,140.689L264.781,140.794L259.274,140.808L253.767,140.906L248.26,140.898L242.753,140.885L237.247,140.706L231.74,140.657L226.233,140.687L220.726,140.723L215.219,140.891L209.712,140.872L204.205,140.997L198.699,140.925L193.192,140.957L187.685,140.914L182.178,140.899L176.671,140.79L171.164,141.114L165.658,141.103L160.151,141.108L154.644,141.401L149.137,141.206L143.63,141.066L138.123,141.197L132.616,141.019L127.11,140.721L121.603,140.72L116.096,140.623L110.589,140.51L105.082,140.545L99.575,140.519L94.068,140.514L88.562,140.523L39,140.501Z" fill="rgb(218, 54, 51)"/>
                    </svg>
                </div>
            </section>
        </div>
        <div xmlns="http://www.w3.org/1999/xhtml" id="metrics-end"></div>
    </foreignObject>
</svg>