<svg xmlns="http://www.w3.org/2000/svg" width="480" height="516" class="">
    <defs>
        <style/>
    </defs>
    <style>@keyframes animation-gauge{0%{stroke-dasharray:0 329}}@keyframes animation-rainbow{0%,to{color:#7f00ff;fill:#7f00ff}14%{color:#a933ff;fill:#a933ff}29%{color:#007fff;fill:#007fff}43%{color:#00ff7f;fill:#00ff7f}57%{color:#ff0;fill:#ff0}71%{color:#ff7f00;fill:#ff7f00}86%{color:red;fill:red}}svg{font-family:-apple-system,BlinkMacSystemFont,Segoe UI,Helvetica,Arial,sans-serif,Apple Color Emoji,Segoe UI Emoji;color:#777}h2,h3{margin:8px 0 2px;padding:0;color:#0366d6;font-weight:400}h2 svg,h3 svg{fill:currentColor}h2{font-size:16px}h3,svg{font-size:14px}section&gt;.field{margin-left:5px;margin-right:5px}.field{display:flex;align-items:center;margin-bottom:2px;white-space:nowrap}.field svg{margin:0 8px;fill:#959da5;flex-shrink:0}.row{display:flex;flex-wrap:wrap}.row section{flex:1 1 0}.margin-bottom{margin-bottom:16px}.margin-lr-auto{margin-left:auto;margin-right:auto}.diff-handle{color:#58a6ff;max-width:200px;text-overflow:ellipsis;overflow:hidden}.diff-box{display:inline-block;width:8px;height:8px;margin-left:1px;background-color:rgba(110,118,129,.4);border:1px solid rgba(246,240,251,.1)}.diff-box:first-child{margin-left:9px}.diff-box.added{background-color:#3fb950}.diff-box.deleted{background-color:#da3633}.diff-stats,code,span.code{font-family:SFMono-Regular,Consolas,Liberation Mono,Menlo,monospace}.diff-stats{margin-left:4px;font-weight:700;font-size:12px;white-space:nowrap}.added{color:#3fb950}.deleted{color:#da3633}code,span.code{background-color:#7777771f;padding:1px 5px;font-size:80%;border-radius:6px;color:#777}code{display:inline-block}span.code{margin:0 4px -3px}:root{--color-calendar-graph-day-bg:#ebedf0;--color-calendar-graph-day-border:rgba(27,31,35,0.06);--color-calendar-graph-day-L1-bg:#9be9a8;--color-calendar-graph-day-L2-bg:#40c463;--color-calendar-graph-day-L3-bg:#30a14e;--color-calendar-graph-day-L4-bg:#216e39;--color-calendar-halloween-graph-day-L1-bg:#ffee4a;--color-calendar-halloween-graph-day-L2-bg:#ffc501;--color-calendar-halloween-graph-day-L3-bg:#fe9600;--color-calendar-halloween-graph-day-L4-bg:#03001c;--color-calendar-winter-graph-day-L1-bg:#0a3069;--color-calendar-winter-graph-day-L2-bg:#0969da;--color-calendar-winter-graph-day-L3-bg:#54aeff;--color-calendar-winter-graph-day-L4-bg:#b6e3ff;--color-calendar-graph-day-L4-border:rgba(27,31,35,0.06);--color-calendar-graph-day-L3-border:rgba(27,31,35,0.06);--color-calendar-graph-day-L2-border:rgba(27,31,35,0.06);--color-calendar-graph-day-L1-border:rgba(27,31,35,0.06)}#metrics-end{width:100%}</style>
    <style/>
    <foreignObject x="0" y="0" width="100%" height="100%">
        <div xmlns="http://www.w3.org/1999/xhtml" xmlns:xlink="http://www.w3.org/1999/xlink" class="items-wrapper">
            <section>
                <h2 class="field">
                    <svg xmlns="http://www.w3.org/2000/svg" viewBox="0 0 16 16" width="16" height="16">
                        <path fill-rule="evenodd" d="M2.75 1.5a.25.25 0 00-.25.25v12.5c0 .138.112.25.25.25h10.5a.25.25 0 00.25-.25V4.664a.25.25 0 00-.073-.177l-2.914-2.914a.25.25 0 00-.177-.073H2.75zM1 1.75C1 .784 1.784 0 2.75 0h7.586c.464 0 .909.184 1.237.513l2.914 2.914c.329.328.513.773.513 1.237v9.586A1.75 1.75 0 0113.25 16H2.75A1.75 1.75 0 011 14.25V1.75zm7 1.5a.75.75 0 01.75.75v1.5h1.5a.75.75 0 010 1.5h-1.5v1.5a.75.75 0 01-1.5 0V7h-1.5a.75.75 0 010-1.5h1.5V4A.75.75 0 018 3.25zm-3 8a.75.75 0 01.75-.75h4.5a.75.75 0 010 1.5h-4.5a.75.75 0 01-.75-.75z"/>
                    </svg>
                    Lines of code pushed
                </h2>
                <div class="row">
                    <section>
                        <div class="field">
                            <svg xmlns="http://www.w3.org/2000/svg" viewBox="0 0 16 16" width="16" height="16">
                                <path fill-rule="evenodd" d="M8 5.5a2.5 2.5 0 100 5 2.5 2.5 0 000-5zM4 8a4 4 0 118 0 4 4 0 01-8 0z"/>
                            </svg>
                            <span class="diff-handle">bstordrup/bstordrup</span>
                        </div>
                        <div class="field">
                            <svg xmlns="http://www.w3.org/2000/svg" viewBox="0 0 16 16" width="16" height="16">
                                <path fill-rule="evenodd" d="M8 5.5a2.5 2.5 0 100 5 2.5 2.5 0 000-5zM4 8a4 4 0 118 0 4 4 0 01-8 0z"/>
                            </svg>
                            <span class="diff-handle">bstordrup/PackageManager</span>
                        </div>
                        <div class="field">
                            <svg xmlns="http://www.w3.org/2000/svg" viewBox="0 0 16 16" width="16" height="16">
                                <path fill-rule="evenodd" d="M8 5.5a2.5 2.5 0 100 5 2.5 2.5 0 000-5zM4 8a4 4 0 118 0 4 4 0 01-8 0z"/>
                            </svg>
                            <span class="diff-handle">bstordrup/WpfScreenSaver</span>
                        </div>
                        <div class="field">
                            <svg xmlns="http://www.w3.org/2000/svg" viewBox="0 0 16 16" width="16" height="16">
                                <path fill-rule="evenodd" d="M8 5.5a2.5 2.5 0 100 5 2.5 2.5 0 000-5zM4 8a4 4 0 118 0 4 4 0 01-8 0z"/>
                            </svg>
                            <span class="diff-handle">bstordrup/SwitchVsIf</span>
                        </div>
                    </section>
                    <section>
                        <div class="field">
                            <div class="diff-box added"></div>
                            <div class="diff-box added"></div>
                            <div class="diff-box added"></div>
                            <div class="diff-box deleted"></div>
                            <div class="diff-box deleted"></div>
                            <div class="diff-stats">
                                <span class="added"> +17.6k</span>
                                <span class="deleted"> -17.6k</span>
                            </div>
                            <span> </span>
                        </div>
                        <div class="field">
                            <div class="diff-box added"></div>
                            <div class="diff-box added"></div>
                            <div class="diff-box added"></div>
                            <div class="diff-box deleted"></div>
                            <div class="diff-box deleted"></div>
                            <div class="diff-stats">
                                <span class="added"> +2.64k</span>
                                <span class="deleted"> -1.70k</span>
                            </div>
                            <span> </span>
                        </div>
                        <div class="field">
                            <div class="diff-box added"></div>
                            <div class="diff-box added"></div>
                            <div class="diff-box added"></div>
                            <div class="diff-box added"></div>
                            <div class="diff-box deleted"></div>
                            <div class="diff-stats">
                                <span class="added"> +2.41k</span>
                                <span class="deleted">   -356</span>
                            </div>
                            <span> </span>
                        </div>
                        <div class="field">
                            <div class="diff-box added"></div>
                            <div class="diff-box added"></div>
                            <div class="diff-box added"></div>
                            <div class="diff-box added"></div>
                            <div class="diff-box deleted"></div>
                            <div class="diff-stats">
                                <span class="added">   +982</span>
                                <span class="deleted">     -3</span>
                            </div>
                            <span> </span>
                        </div>
                    </section>
                </div>
                <div class="row margin-bottom">
                    <h3 class="margin-lr-auto">Diff history</h3>
                    <svg xmlns="http://www.w3.org/2000/svg" width="480" height="315">
                        <g transform="translate(0,276)" fill="none" font-size="10" font-family="sans-serif" text-anchor="middle">
                            <path class="domain" stroke="currentColor" d="M39.5,6V0.5H441.5V6"/>
                            <g class="tick" opacity="1" transform="translate(57.13351648351649,0)">
                                <line stroke="currentColor" y2="6"/>
                                <text fill="currentColor" y="9" dy="0.71em" transform="translate(-5,5) rotate(-45)" style="text-anchor: end;">February</text>
                            </g>
                            <g class="tick" opacity="1" transform="translate(81.87197802197802,0)">
                                <line stroke="currentColor" y2="6"/>
                                <text fill="currentColor" y="9" dy="0.71em" transform="translate(-5,5) rotate(-45)" style="text-anchor: end;">March</text>
                            </g>
                            <g class="tick" opacity="1" transform="translate(109.22417582417582,0)">
                                <line stroke="currentColor" y2="6"/>
                                <text fill="currentColor" y="9" dy="0.71em" transform="translate(-5,5) rotate(-45)" style="text-anchor: end;">April</text>
                            </g>
                            <g class="tick" opacity="1" transform="translate(135.72967032967034,0)">
                                <line stroke="currentColor" y2="6"/>
                                <text fill="currentColor" y="9" dy="0.71em" transform="translate(-5,5) rotate(-45)" style="text-anchor: end;">May</text>
                            </g>
                            <g class="tick" opacity="1" transform="translate(163.11868131868133,0)">
                                <line stroke="currentColor" y2="6"/>
                                <text fill="currentColor" y="9" dy="0.71em" transform="translate(-5,5) rotate(-45)" style="text-anchor: end;">June</text>
                            </g>
                            <g class="tick" opacity="1" transform="translate(189.62417582417584,0)">
                                <line stroke="currentColor" y2="6"/>
                                <text fill="currentColor" y="9" dy="0.71em" transform="translate(-5,5) rotate(-45)" style="text-anchor: end;">July</text>
                            </g>
                            <g class="tick" opacity="1" transform="translate(217.01318681318682,0)">
                                <line stroke="currentColor" y2="6"/>
                                <text fill="currentColor" y="9" dy="0.71em" transform="translate(-5,5) rotate(-45)" style="text-anchor: end;">August</text>
                            </g>
                            <g class="tick" opacity="1" transform="translate(244.40219780219778,0)">
                                <line stroke="currentColor" y2="6"/>
                                <text fill="currentColor" y="9" dy="0.71em" transform="translate(-5,5) rotate(-45)" style="text-anchor: end;">September</text>
                            </g>
                            <g class="tick" opacity="1" transform="translate(270.9076923076923,0)">
                                <line stroke="currentColor" y2="6"/>
                                <text fill="currentColor" y="9" dy="0.71em" transform="translate(-5,5) rotate(-45)" style="text-anchor: end;">October</text>
                            </g>
                            <g class="tick" opacity="1" transform="translate(298.3335164835165,0)">
                                <line stroke="currentColor" y2="6"/>
                                <text fill="currentColor" y="9" dy="0.71em" transform="translate(-5,5) rotate(-45)" style="text-anchor: end;">November</text>
                            </g>
                            <g class="tick" opacity="1" transform="translate(324.839010989011,0)">
                                <line stroke="currentColor" y2="6"/>
                                <text fill="currentColor" y="9" dy="0.71em" transform="translate(-5,5) rotate(-45)" style="text-anchor: end;">December</text>
                            </g>
                            <g class="tick" opacity="1" transform="translate(352.22802197802196,0)">
                                <line stroke="currentColor" y2="6"/>
                                <text fill="currentColor" y="9" dy="0.71em" transform="translate(-5,5) rotate(-45)" style="text-anchor: end;">2026</text>
                            </g>
                            <g class="tick" opacity="1" transform="translate(379.61703296703297,0)">
                                <line stroke="currentColor" y2="6"/>
                                <text fill="currentColor" y="9" dy="0.71em" transform="translate(-5,5) rotate(-45)" style="text-anchor: end;">February</text>
                            </g>
                            <g class="tick" opacity="1" transform="translate(404.3554945054945,0)">
                                <line stroke="currentColor" y2="6"/>
                                <text fill="currentColor" y="9" dy="0.71em" transform="translate(-5,5) rotate(-45)" style="text-anchor: end;">March</text>
                            </g>
                            <g class="tick" opacity="1" transform="translate(431.7076923076923,0)">
                                <line stroke="currentColor" y2="6"/>
                                <text fill="currentColor" y="9" dy="0.71em" transform="translate(-5,5) rotate(-45)" style="text-anchor: end;">April</text>
                            </g>
                        </g>
                        <g transform="translate(39,0)" fill="none" font-size="10" font-family="sans-serif" text-anchor="end">
                            <path class="domain" stroke="currentColor" d="M-6,5.5H0.5V276.5H-6"/>
                            <g class="tick" opacity="1" transform="translate(0,30.02538902538904)">
                                <line stroke="currentColor" x2="-6"/>
                                <text fill="currentColor" x="-9" dy="0.32em">2.0k</text>
                            </g>
                            <g class="tick" opacity="1" transform="translate(0,57.769041769041756)">
                                <line stroke="currentColor" x2="-6"/>
                                <text fill="currentColor" x="-9" dy="0.32em">1.5k</text>
                            </g>
                            <g class="tick" opacity="1" transform="translate(0,85.5126945126945)">
                                <line stroke="currentColor" x2="-6"/>
                                <text fill="currentColor" x="-9" dy="0.32em">1.0k</text>
                            </g>
                            <g class="tick" opacity="1" transform="translate(0,113.25634725634725)">
                                <line stroke="currentColor" x2="-6"/>
                                <text fill="currentColor" x="-9" dy="0.32em">500</text>
                            </g>
                            <g class="tick" opacity="1" transform="translate(0,141)">
                                <line stroke="currentColor" x2="-6"/>
                                <text fill="currentColor" x="-9" dy="0.32em">0.0</text>
                            </g>
                            <g class="tick" opacity="1" transform="translate(0,168.74365274365275)">
                                <line stroke="currentColor" x2="-6"/>
                                <text fill="currentColor" x="-9" dy="0.32em">−500</text>
                            </g>
                            <g class="tick" opacity="1" transform="translate(0,196.4873054873055)">
                                <line stroke="currentColor" x2="-6"/>
                                <text fill="currentColor" x="-9" dy="0.32em">−1.0k</text>
                            </g>
                            <g class="tick" opacity="1" transform="translate(0,224.2309582309582)">
                                <line stroke="currentColor" x2="-6"/>
                                <text fill="currentColor" x="-9" dy="0.32em">−1.5k</text>
                            </g>
                            <g class="tick" opacity="1" transform="translate(0,251.974610974611)">
                                <line stroke="currentColor" x2="-6"/>
                                <text fill="currentColor" x="-9" dy="0.32em">−2.0k</text>
                            </g>
                        </g>
                        <path d="M39,140.5L45.185,140.5L51.369,140.5L57.554,140.5L63.738,140.5L69.923,140.5L76.108,140.5L82.292,140.5L88.477,140.5L94.662,140.5L100.846,140.5L107.031,140.5L113.215,140.5L119.4,140.5L125.585,140.5L131.769,140.5L137.954,140.5L144.138,140.5L150.323,140.5L156.508,140.5L162.692,140.5L168.877,140.5L175.062,140.5L181.246,140.5L187.431,140.5L193.615,140.5L199.8,140.5L205.985,140.5L212.169,140.5L218.354,140.5L224.538,140.5L230.723,140.5L236.908,140.5L243.092,140.5L249.277,140.5L255.462,140.5L261.646,140.5L267.831,140.5L274.015,140.5L280.2,140.5L286.385,140.5L292.569,140.5L298.754,140.5L304.938,140.5L311.123,140.5L317.308,140.5L323.492,140.5L329.677,140.5L335.862,140.5L342.046,140.5L348.231,140.5L354.415,140.5L360.6,140.5L366.785,140.5L372.969,140.5L379.154,140.5L385.338,140.5L391.523,140.5L397.708,140.5L403.892,140.5L410.077,140.5L416.262,140.5L422.446,140.5L428.631,140.5L434.815,140.5L441,140.5L441,134.896L434.815,128.57L428.631,133.62L422.446,131.567L416.262,131.289L410.077,130.568L403.892,128.848L397.708,131.678L391.523,132.121L385.338,132.51L379.154,131.788L372.969,131.678L366.785,130.679L360.6,129.403L354.415,130.623L348.231,131.567L342.046,130.956L335.862,131.788L329.677,129.957L323.492,130.79L317.308,131.067L311.123,131.067L304.938,131.289L298.754,130.623L292.569,82.183L286.385,125.407L280.2,24.199L274.015,129.07L267.831,127.46L261.646,123.354L255.462,117.75L249.277,5L243.092,129.791L236.908,123.798L230.723,123.021L224.538,80.241L218.354,117.917L212.169,118.638L205.985,128.792L199.8,131.567L193.615,129.902L187.431,127.849L181.246,118.305L175.062,119.359L168.877,57.824L162.692,116.363L156.508,114.587L150.323,116.973L144.138,117.972L137.954,124.02L131.769,115.253L125.585,106.264L119.4,105.987L113.215,95.999L107.031,106.209L100.846,108.373L94.662,104.322L88.477,111.036L82.292,127.96L76.108,128.015L69.923,133.509L63.738,139.945L57.554,137.948L51.369,139.446L45.185,139.723L39,139.168Z" fill="rgb(63, 185, 80)"/>
                        <path d="M39,140.5L45.185,140.5L51.369,140.5L57.554,140.5L63.738,140.5L69.923,140.5L76.108,140.5L82.292,140.5L88.477,140.5L94.662,140.5L100.846,140.5L107.031,140.5L113.215,140.5L119.4,140.5L125.585,140.5L131.769,140.5L137.954,140.5L144.138,140.5L150.323,140.5L156.508,140.5L162.692,140.5L168.877,140.5L175.062,140.5L181.246,140.5L187.431,140.5L193.615,140.5L199.8,140.5L205.985,140.5L212.169,140.5L218.354,140.5L224.538,140.5L230.723,140.5L236.908,140.5L243.092,140.5L249.277,140.5L255.462,140.5L261.646,140.5L267.831,140.5L274.015,140.5L280.2,140.5L286.385,140.5L292.569,140.5L298.754,140.5L304.938,140.5L311.123,140.5L317.308,140.5L323.492,140.5L329.677,140.5L335.862,140.5L342.046,140.5L348.231,140.5L354.415,140.5L360.6,140.5L366.785,140.5L372.969,140.5L379.154,140.5L385.338,140.5L391.523,140.5L397.708,140.5L403.892,140.5L410.077,140.5L416.262,140.5L422.446,140.5L428.631,140.5L434.815,140.5L441,140.5L441,146.104L434.815,152.208L428.631,147.38L422.446,149.433L416.262,149.711L410.077,150.432L403.892,152.152L397.708,149.322L391.523,148.879L385.338,148.49L379.154,149.212L372.969,149.322L366.785,150.321L360.6,151.597L354.415,150.377L348.231,149.433L342.046,150.044L335.862,149.212L329.677,151.043L323.492,150.21L317.308,149.933L311.123,149.933L304.938,149.711L298.754,150.377L292.569,207.973L286.385,155.593L280.2,195.543L274.015,151.93L267.831,153.54L261.646,157.646L255.462,158.811L249.277,166.579L243.092,151.209L236.908,157.202L230.723,157.979L224.538,163.527L218.354,163.083L212.169,162.362L205.985,152.208L199.8,149.433L193.615,151.098L187.431,153.151L181.246,162.695L175.062,161.641L168.877,168.854L162.692,164.637L156.508,166.413L150.323,164.027L144.138,163.028L137.954,156.98L131.769,165.747L125.585,174.736L119.4,175.013L113.215,185.001L107.031,174.791L100.846,172.627L94.662,176.678L88.477,169.964L82.292,153.04L76.108,152.985L69.923,147.491L63.738,141.055L57.554,143.052L51.369,141.554L45.185,141.277L39,141.832Z" fill="rgb(218, 54, 51)"/>
                    </svg>
                </div>
            </section>
        </div>
        <div xmlns="http://www.w3.org/1999/xhtml" id="metrics-end"></div>
    </foreignObject>
</svg>