<svg xmlns="http://www.w3.org/2000/svg" width="480" height="456" class="">
    <defs>
        <style/>
    </defs>
    <style>@keyframes animation-gauge{0%{stroke-dasharray:0 329}}@keyframes animation-rainbow{0%,to{color:#7f00ff;fill:#7f00ff}14%{color:#a933ff;fill:#a933ff}29%{color:#007fff;fill:#007fff}43%{color:#00ff7f;fill:#00ff7f}57%{color:#ff0;fill:#ff0}71%{color:#ff7f00;fill:#ff7f00}86%{color:red;fill:red}}svg{font-family:-apple-system,BlinkMacSystemFont,Segoe UI,Helvetica,Arial,sans-serif,Apple Color Emoji,Segoe UI Emoji;color:#777}h2,h3{margin:8px 0 2px;padding:0;color:#0366d6;font-weight:400}h2 svg,h3 svg{fill:currentColor}h2{font-size:16px}h3,svg{font-size:14px}section&gt;.field{margin-left:5px;margin-right:5px}.field{display:flex;align-items:center;margin-bottom:2px;white-space:nowrap}.field svg{margin:0 8px;fill:#959da5;flex-shrink:0}.row{display:flex;flex-wrap:wrap}.row section{flex:1 1 0}.margin-bottom{margin-bottom:16px}.margin-lr-auto{margin-left:auto;margin-right:auto}.diff-handle{color:#58a6ff;max-width:200px;text-overflow:ellipsis;overflow:hidden}.diff-box{display:inline-block;width:8px;height:8px;margin-left:1px;background-color:rgba(110,118,129,.4);border:1px solid rgba(246,240,251,.1)}.diff-box:first-child{margin-left:9px}.diff-box.added{background-color:#3fb950}.diff-box.deleted{background-color:#da3633}.diff-stats,code,span.code{font-family:SFMono-Regular,Consolas,Liberation Mono,Menlo,monospace}.diff-stats{margin-left:4px;font-weight:700;font-size:12px;white-space:nowrap}.added{color:#3fb950}.deleted{color:#da3633}code,span.code{background-color:#7777771f;padding:1px 5px;font-size:80%;border-radius:6px;color:#777}code{display:inline-block}span.code{margin:0 4px -3px}:root{--color-calendar-graph-day-bg:#ebedf0;--color-calendar-graph-day-border:rgba(27,31,35,0.06);--color-calendar-graph-day-L1-bg:#9be9a8;--color-calendar-graph-day-L2-bg:#40c463;--color-calendar-graph-day-L3-bg:#30a14e;--color-calendar-graph-day-L4-bg:#216e39;--color-calendar-halloween-graph-day-L1-bg:#ffee4a;--color-calendar-halloween-graph-day-L2-bg:#ffc501;--color-calendar-halloween-graph-day-L3-bg:#fe9600;--color-calendar-halloween-graph-day-L4-bg:#03001c;--color-calendar-winter-graph-day-L1-bg:#0a3069;--color-calendar-winter-graph-day-L2-bg:#0969da;--color-calendar-winter-graph-day-L3-bg:#54aeff;--color-calendar-winter-graph-day-L4-bg:#b6e3ff;--color-calendar-graph-day-L4-border:rgba(27,31,35,0.06);--color-calendar-graph-day-L3-border:rgba(27,31,35,0.06);--color-calendar-graph-day-L2-border:rgba(27,31,35,0.06);--color-calendar-graph-day-L1-border:rgba(27,31,35,0.06)}#metrics-end{width:100%}</style>
    <style/>
    <foreignObject x="0" y="0" width="100%" height="100%">
        <div xmlns="http://www.w3.org/1999/xhtml" xmlns:xlink="http://www.w3.org/1999/xlink" class="items-wrapper">
            <section>
                <h2 class="field">
                    <svg xmlns="http://www.w3.org/2000/svg" viewBox="0 0 16 16" width="16" height="16">
                        <path fill-rule="evenodd" d="M2.75 1.5a.25.25 0 00-.25.25v12.5c0 .138.112.25.25.25h10.5a.25.25 0 00.25-.25V4.664a.25.25 0 00-.073-.177l-2.914-2.914a.25.25 0 00-.177-.073H2.75zM1 1.75C1 .784 1.784 0 2.75 0h7.586c.464 0 .909.184 1.237.513l2.914 2.914c.329.328.513.773.513 1.237v9.586A1.75 1.75 0 0113.25 16H2.75A1.75 1.75 0 011 14.25V1.75zm7 1.5a.75.75 0 01.75.75v1.5h1.5a.75.75 0 010 1.5h-1.5v1.5a.75.75 0 01-1.5 0V7h-1.5a.75.75 0 010-1.5h1.5V4A.75.75 0 018 3.25zm-3 8a.75.75 0 01.75-.75h4.5a.75.75 0 010 1.5h-4.5a.75.75 0 01-.75-.75z"/>
                    </svg>
                    Lines of code pushed
                </h2>
                <div class="row">
                    <section>
                        <div class="field">
                            <svg xmlns="http://www.w3.org/2000/svg" viewBox="0 0 16 16" width="16" height="16">
                                <path fill-rule="evenodd" d="M8 5.5a2.5 2.5 0 100 5 2.5 2.5 0 000-5zM4 8a4 4 0 118 0 4 4 0 01-8 0z"/>
                            </svg>
                            <span class="diff-handle">bstordrup/bstordrup</span>
                        </div>
                    </section>
                    <section>
                        <div class="field">
                            <div class="diff-box added"></div>
                            <div class="diff-box added"></div>
                            <div class="diff-box added"></div>
                            <div class="diff-box deleted"></div>
                            <div class="diff-box deleted"></div>
                            <div class="diff-stats">
                                <span class="added"> +18.5k</span>
                                <span class="deleted"> -18.5k</span>
                            </div>
                            <span> </span>
                        </div>
                    </section>
                </div>
                <div class="row margin-bottom">
                    <h3 class="margin-lr-auto">Diff history</h3>
                    <svg xmlns="http://www.w3.org/2000/svg" width="480" height="315">
                        <g transform="translate(0,276)" fill="none" font-size="10" font-family="sans-serif" text-anchor="middle">
                            <path class="domain" stroke="currentColor" d="M39.5,6V0.5H441.5V6"/>
                            <g class="tick" opacity="1" transform="translate(56.355567226890756,0)">
                                <line stroke="currentColor" y2="6"/>
                                <text fill="currentColor" y="9" dy="0.71em" transform="translate(-5,5) rotate(-45)" style="text-anchor: end;">February</text>
                            </g>
                            <g class="tick" opacity="1" transform="translate(80.00262605042016,0)">
                                <line stroke="currentColor" y2="6"/>
                                <text fill="currentColor" y="9" dy="0.71em" transform="translate(-5,5) rotate(-45)" style="text-anchor: end;">March</text>
                            </g>
                            <g class="tick" opacity="1" transform="translate(106.14810924369748,0)">
                                <line stroke="currentColor" y2="6"/>
                                <text fill="currentColor" y="9" dy="0.71em" transform="translate(-5,5) rotate(-45)" style="text-anchor: end;">April</text>
                            </g>
                            <g class="tick" opacity="1" transform="translate(131.484243697479,0)">
                                <line stroke="currentColor" y2="6"/>
                                <text fill="currentColor" y="9" dy="0.71em" transform="translate(-5,5) rotate(-45)" style="text-anchor: end;">May</text>
                            </g>
                            <g class="tick" opacity="1" transform="translate(157.66491596638656,0)">
                                <line stroke="currentColor" y2="6"/>
                                <text fill="currentColor" y="9" dy="0.71em" transform="translate(-5,5) rotate(-45)" style="text-anchor: end;">June</text>
                            </g>
                            <g class="tick" opacity="1" transform="translate(183.00105042016807,0)">
                                <line stroke="currentColor" y2="6"/>
                                <text fill="currentColor" y="9" dy="0.71em" transform="translate(-5,5) rotate(-45)" style="text-anchor: end;">July</text>
                            </g>
                            <g class="tick" opacity="1" transform="translate(209.18172268907563,0)">
                                <line stroke="currentColor" y2="6"/>
                                <text fill="currentColor" y="9" dy="0.71em" transform="translate(-5,5) rotate(-45)" style="text-anchor: end;">August</text>
                            </g>
                            <g class="tick" opacity="1" transform="translate(235.36239495798318,0)">
                                <line stroke="currentColor" y2="6"/>
                                <text fill="currentColor" y="9" dy="0.71em" transform="translate(-5,5) rotate(-45)" style="text-anchor: end;">September</text>
                            </g>
                            <g class="tick" opacity="1" transform="translate(260.69852941176475,0)">
                                <line stroke="currentColor" y2="6"/>
                                <text fill="currentColor" y="9" dy="0.71em" transform="translate(-5,5) rotate(-45)" style="text-anchor: end;">October</text>
                            </g>
                            <g class="tick" opacity="1" transform="translate(286.9143907563025,0)">
                                <line stroke="currentColor" y2="6"/>
                                <text fill="currentColor" y="9" dy="0.71em" transform="translate(-5,5) rotate(-45)" style="text-anchor: end;">November</text>
                            </g>
                            <g class="tick" opacity="1" transform="translate(312.25052521008405,0)">
                                <line stroke="currentColor" y2="6"/>
                                <text fill="currentColor" y="9" dy="0.71em" transform="translate(-5,5) rotate(-45)" style="text-anchor: end;">December</text>
                            </g>
                            <g class="tick" opacity="1" transform="translate(338.43119747899163,0)">
                                <line stroke="currentColor" y2="6"/>
                                <text fill="currentColor" y="9" dy="0.71em" transform="translate(-5,5) rotate(-45)" style="text-anchor: end;">2026</text>
                            </g>
                            <g class="tick" opacity="1" transform="translate(364.61186974789916,0)">
                                <line stroke="currentColor" y2="6"/>
                                <text fill="currentColor" y="9" dy="0.71em" transform="translate(-5,5) rotate(-45)" style="text-anchor: end;">February</text>
                            </g>
                            <g class="tick" opacity="1" transform="translate(388.25892857142856,0)">
                                <line stroke="currentColor" y2="6"/>
                                <text fill="currentColor" y="9" dy="0.71em" transform="translate(-5,5) rotate(-45)" style="text-anchor: end;">March</text>
                            </g>
                            <g class="tick" opacity="1" transform="translate(414.4044117647059,0)">
                                <line stroke="currentColor" y2="6"/>
                                <text fill="currentColor" y="9" dy="0.71em" transform="translate(-5,5) rotate(-45)" style="text-anchor: end;">April</text>
                            </g>
                            <g class="tick" opacity="1" transform="translate(439.7405462184874,0)">
                                <line stroke="currentColor" y2="6"/>
                                <text fill="currentColor" y="9" dy="0.71em" transform="translate(-5,5) rotate(-45)" style="text-anchor: end;">May</text>
                            </g>
                        </g>
                        <g transform="translate(39,0)" fill="none" font-size="10" font-family="sans-serif" text-anchor="end">
                            <path class="domain" stroke="currentColor" d="M-6,5.5H0.5V276.5H-6"/>
                            <g class="tick" opacity="1" transform="translate(0,5.837905236907725)">
                                <line stroke="currentColor" x2="-6"/>
                                <text fill="currentColor" x="-9" dy="0.32em">800</text>
                            </g>
                            <g class="tick" opacity="1" transform="translate(0,39.628428927680794)">
                                <line stroke="currentColor" x2="-6"/>
                                <text fill="currentColor" x="-9" dy="0.32em">600</text>
                            </g>
                            <g class="tick" opacity="1" transform="translate(0,73.41895261845387)">
                                <line stroke="currentColor" x2="-6"/>
                                <text fill="currentColor" x="-9" dy="0.32em">400</text>
                            </g>
                            <g class="tick" opacity="1" transform="translate(0,107.20947630922693)">
                                <line stroke="currentColor" x2="-6"/>
                                <text fill="currentColor" x="-9" dy="0.32em">200</text>
                            </g>
                            <g class="tick" opacity="1" transform="translate(0,141)">
                                <line stroke="currentColor" x2="-6"/>
                                <text fill="currentColor" x="-9" dy="0.32em">0.0</text>
                            </g>
                            <g class="tick" opacity="1" transform="translate(0,174.79052369077309)">
                                <line stroke="currentColor" x2="-6"/>
                                <text fill="currentColor" x="-9" dy="0.32em">−200</text>
                            </g>
                            <g class="tick" opacity="1" transform="translate(0,208.58104738154614)">
                                <line stroke="currentColor" x2="-6"/>
                                <text fill="currentColor" x="-9" dy="0.32em">−400</text>
                            </g>
                            <g class="tick" opacity="1" transform="translate(0,242.37157107231923)">
                                <line stroke="currentColor" x2="-6"/>
                                <text fill="currentColor" x="-9" dy="0.32em">−600</text>
                            </g>
                            <g class="tick" opacity="1" transform="translate(0,276.1620947630923)">
                                <line stroke="currentColor" x2="-6"/>
                                <text fill="currentColor" x="-9" dy="0.32em">−800</text>
                            </g>
                        </g>
                        <path d="M39,140.5L44.912,140.5L50.824,140.5L56.735,140.5L62.647,140.5L68.559,140.5L74.471,140.5L80.382,140.5L86.294,140.5L92.206,140.5L98.118,140.5L104.029,140.5L109.941,140.5L115.853,140.5L121.765,140.5L127.676,140.5L133.588,140.5L139.5,140.5L145.412,140.5L151.324,140.5L157.235,140.5L163.147,140.5L169.059,140.5L174.971,140.5L180.882,140.5L186.794,140.5L192.706,140.5L198.618,140.5L204.529,140.5L210.441,140.5L216.353,140.5L222.265,140.5L228.176,140.5L234.088,140.5L240,140.5L245.912,140.5L251.824,140.5L257.735,140.5L263.647,140.5L269.559,140.5L275.471,140.5L281.382,140.5L287.294,140.5L293.206,140.5L299.118,140.5L305.029,140.5L310.941,140.5L316.853,140.5L322.765,140.5L328.676,140.5L334.588,140.5L340.5,140.5L346.412,140.5L352.324,140.5L358.235,140.5L364.147,140.5L370.059,140.5L375.971,140.5L381.882,140.5L387.794,140.5L393.706,140.5L399.618,140.5L405.529,140.5L411.441,140.5L417.353,140.5L423.265,140.5L429.176,140.5L435.088,140.5L441,140.5L441,116.34L435.088,96.741L429.176,95.897L423.265,96.91L417.353,106.203L411.441,119.55L405.529,113.299L399.618,112.454L393.706,110.257L387.794,105.02L381.882,113.637L375.971,114.988L370.059,116.171L364.147,113.974L358.235,113.637L352.324,110.595L346.412,106.709L340.5,110.426L334.588,113.299L328.676,111.44L322.765,113.974L316.853,108.399L310.941,110.933L305.029,111.778L299.118,111.778L293.206,112.454L287.294,110.426L281.382,102.993L275.471,94.545L269.559,92.517L263.647,105.696L257.735,100.796L251.824,88.294L245.912,104.175L240,100.458L234.088,107.892L228.176,89.645L222.265,87.28L216.353,71.229L210.441,71.736L204.529,73.933L198.618,104.851L192.706,113.299L186.794,108.23L180.882,101.979L174.971,72.919L169.059,76.129L163.147,54.672L157.235,67.006L151.324,61.599L145.412,68.864L139.5,71.905L133.588,90.321L127.676,63.627L121.765,36.256L115.853,35.411L109.941,5L104.029,36.087L98.118,42.676L92.206,30.343L86.294,50.786L80.382,102.317L74.471,102.486L68.559,119.212L62.647,138.81L56.735,132.728L50.824,137.29L44.912,138.135L39,136.445Z" fill="rgb(63, 185, 80)"/>
                        <path d="M39,140.5L44.912,140.5L50.824,140.5L56.735,140.5L62.647,140.5L68.559,140.5L74.471,140.5L80.382,140.5L86.294,140.5L92.206,140.5L98.118,140.5L104.029,140.5L109.941,140.5L115.853,140.5L121.765,140.5L127.676,140.5L133.588,140.5L139.5,140.5L145.412,140.5L151.324,140.5L157.235,140.5L163.147,140.5L169.059,140.5L174.971,140.5L180.882,140.5L186.794,140.5L192.706,140.5L198.618,140.5L204.529,140.5L210.441,140.5L216.353,140.5L222.265,140.5L228.176,140.5L234.088,140.5L240,140.5L245.912,140.5L251.824,140.5L257.735,140.5L263.647,140.5L269.559,140.5L275.471,140.5L281.382,140.5L287.294,140.5L293.206,140.5L299.118,140.5L305.029,140.5L310.941,140.5L316.853,140.5L322.765,140.5L328.676,140.5L334.588,140.5L340.5,140.5L346.412,140.5L352.324,140.5L358.235,140.5L364.147,140.5L370.059,140.5L375.971,140.5L381.882,140.5L387.794,140.5L393.706,140.5L399.618,140.5L405.529,140.5L411.441,140.5L417.353,140.5L423.265,140.5L429.176,140.5L435.088,140.5L441,140.5L441,164.66L435.088,184.259L429.176,185.103L423.265,184.09L417.353,174.797L411.441,161.45L405.529,167.701L399.618,168.546L393.706,170.743L387.794,175.98L381.882,167.363L375.971,166.012L370.059,164.829L364.147,167.026L358.235,167.363L352.324,170.405L346.412,174.291L340.5,170.574L334.588,167.701L328.676,169.56L322.765,167.026L316.853,172.601L310.941,170.067L305.029,169.222L299.118,169.222L293.206,168.546L287.294,170.574L281.382,178.007L275.471,186.455L269.559,188.483L263.647,175.304L257.735,180.204L251.824,192.706L245.912,176.825L240,180.542L234.088,173.108L228.176,191.355L222.265,193.72L216.353,209.771L210.441,209.264L204.529,207.067L198.618,176.149L192.706,167.701L186.794,172.77L180.882,179.021L174.971,208.081L169.059,204.871L163.147,226.328L157.235,213.994L151.324,219.401L145.412,212.136L139.5,209.095L133.588,190.679L127.676,217.373L121.765,244.744L115.853,245.589L109.941,276L104.029,244.913L98.118,238.324L92.206,250.657L86.294,230.214L80.382,178.683L74.471,178.514L68.559,161.788L62.647,142.19L56.735,148.272L50.824,143.71L44.912,142.865L39,144.555Z" fill="rgb(218, 54, 51)"/>
                    </svg>
                </div>
            </section>
        </div>
        <div xmlns="http://www.w3.org/1999/xhtml" id="metrics-end"></div>
    </foreignObject>
</svg>