<svg xmlns="http://www.w3.org/2000/svg" width="480" height="516" class="">
    <defs>
        <style/>
    </defs>
    <style>@keyframes animation-gauge{0%{stroke-dasharray:0 329}}@keyframes animation-rainbow{0%,to{color:#7f00ff;fill:#7f00ff}14%{color:#a933ff;fill:#a933ff}29%{color:#007fff;fill:#007fff}43%{color:#00ff7f;fill:#00ff7f}57%{color:#ff0;fill:#ff0}71%{color:#ff7f00;fill:#ff7f00}86%{color:red;fill:red}}svg{font-family:-apple-system,BlinkMacSystemFont,Segoe UI,Helvetica,Arial,sans-serif,Apple Color Emoji,Segoe UI Emoji;color:#777}h2,h3{margin:8px 0 2px;padding:0;color:#0366d6;font-weight:400}h2 svg,h3 svg{fill:currentColor}h2{font-size:16px}h3,svg{font-size:14px}section&gt;.field{margin-left:5px;margin-right:5px}.field{display:flex;align-items:center;margin-bottom:2px;white-space:nowrap}.field svg{margin:0 8px;fill:#959da5;flex-shrink:0}.row{display:flex;flex-wrap:wrap}.row section{flex:1 1 0}.margin-bottom{margin-bottom:16px}.margin-lr-auto{margin-left:auto;margin-right:auto}.diff-handle{color:#58a6ff;max-width:200px;text-overflow:ellipsis;overflow:hidden}.diff-box{display:inline-block;width:8px;height:8px;margin-left:1px;background-color:rgba(110,118,129,.4);border:1px solid rgba(246,240,251,.1)}.diff-box:first-child{margin-left:9px}.diff-box.added{background-color:#3fb950}.diff-box.deleted{background-color:#da3633}.diff-stats,code,span.code{font-family:SFMono-Regular,Consolas,Liberation Mono,Menlo,monospace}.diff-stats{margin-left:4px;font-weight:700;font-size:12px;white-space:nowrap}.added{color:#3fb950}.deleted{color:#da3633}code,span.code{background-color:#7777771f;padding:1px 5px;font-size:80%;border-radius:6px;color:#777}code{display:inline-block}span.code{margin:0 4px -3px}:root{--color-calendar-graph-day-bg:#ebedf0;--color-calendar-graph-day-border:rgba(27,31,35,0.06);--color-calendar-graph-day-L1-bg:#9be9a8;--color-calendar-graph-day-L2-bg:#40c463;--color-calendar-graph-day-L3-bg:#30a14e;--color-calendar-graph-day-L4-bg:#216e39;--color-calendar-halloween-graph-day-L1-bg:#ffee4a;--color-calendar-halloween-graph-day-L2-bg:#ffc501;--color-calendar-halloween-graph-day-L3-bg:#fe9600;--color-calendar-halloween-graph-day-L4-bg:#03001c;--color-calendar-winter-graph-day-L1-bg:#0a3069;--color-calendar-winter-graph-day-L2-bg:#0969da;--color-calendar-winter-graph-day-L3-bg:#54aeff;--color-calendar-winter-graph-day-L4-bg:#b6e3ff;--color-calendar-graph-day-L4-border:rgba(27,31,35,0.06);--color-calendar-graph-day-L3-border:rgba(27,31,35,0.06);--color-calendar-graph-day-L2-border:rgba(27,31,35,0.06);--color-calendar-graph-day-L1-border:rgba(27,31,35,0.06)}#metrics-end{width:100%}</style>
    <style/>
    <foreignObject x="0" y="0" width="100%" height="100%">
        <div xmlns="http://www.w3.org/1999/xhtml" xmlns:xlink="http://www.w3.org/1999/xlink" class="items-wrapper">
            <section>
                <h2 class="field">
                    <svg xmlns="http://www.w3.org/2000/svg" viewBox="0 0 16 16" width="16" height="16">
                        <path fill-rule="evenodd" d="M2.75 1.5a.25.25 0 00-.25.25v12.5c0 .138.112.25.25.25h10.5a.25.25 0 00.25-.25V4.664a.25.25 0 00-.073-.177l-2.914-2.914a.25.25 0 00-.177-.073H2.75zM1 1.75C1 .784 1.784 0 2.75 0h7.586c.464 0 .909.184 1.237.513l2.914 2.914c.329.328.513.773.513 1.237v9.586A1.75 1.75 0 0113.25 16H2.75A1.75 1.75 0 011 14.25V1.75zm7 1.5a.75.75 0 01.75.75v1.5h1.5a.75.75 0 010 1.5h-1.5v1.5a.75.75 0 01-1.5 0V7h-1.5a.75.75 0 010-1.5h1.5V4A.75.75 0 018 3.25zm-3 8a.75.75 0 01.75-.75h4.5a.75.75 0 010 1.5h-4.5a.75.75 0 01-.75-.75z"/>
                    </svg>
                    Lines of code pushed
                </h2>
                <div class="row">
                    <section>
                        <div class="field">
                            <svg xmlns="http://www.w3.org/2000/svg" viewBox="0 0 16 16" width="16" height="16">
                                <path fill-rule="evenodd" d="M8 5.5a2.5 2.5 0 100 5 2.5 2.5 0 000-5zM4 8a4 4 0 118 0 4 4 0 01-8 0z"/>
                            </svg>
                            <span class="diff-handle">bstordrup/bstordrup</span>
                        </div>
                        <div class="field">
                            <svg xmlns="http://www.w3.org/2000/svg" viewBox="0 0 16 16" width="16" height="16">
                                <path fill-rule="evenodd" d="M8 5.5a2.5 2.5 0 100 5 2.5 2.5 0 000-5zM4 8a4 4 0 118 0 4 4 0 01-8 0z"/>
                            </svg>
                            <span class="diff-handle">bstordrup/Universal3D_Test</span>
                        </div>
                        <div class="field">
                            <svg xmlns="http://www.w3.org/2000/svg" viewBox="0 0 16 16" width="16" height="16">
                                <path fill-rule="evenodd" d="M8 5.5a2.5 2.5 0 100 5 2.5 2.5 0 000-5zM4 8a4 4 0 118 0 4 4 0 01-8 0z"/>
                            </svg>
                            <span class="diff-handle">bstordrup/SwitchVsIf</span>
                        </div>
                        <div class="field">
                            <svg xmlns="http://www.w3.org/2000/svg" viewBox="0 0 16 16" width="16" height="16">
                                <path fill-rule="evenodd" d="M8 5.5a2.5 2.5 0 100 5 2.5 2.5 0 000-5zM4 8a4 4 0 118 0 4 4 0 01-8 0z"/>
                            </svg>
                            <span class="diff-handle">bstordrup/NuspecDependenciesTest</span>
                        </div>
                    </section>
                    <section>
                        <div class="field">
                            <div class="diff-box added"></div>
                            <div class="diff-box added"></div>
                            <div class="diff-box added"></div>
                            <div class="diff-box deleted"></div>
                            <div class="diff-box deleted"></div>
                            <div class="diff-stats">
                                <span class="added"> +17.3k</span>
                                <span class="deleted"> -17.3k</span>
                            </div>
                            <span> </span>
                        </div>
                        <div class="field">
                            <div class="diff-box added"></div>
                            <div class="diff-box added"></div>
                            <div class="diff-box added"></div>
                            <div class="diff-box added"></div>
                            <div class="diff-box deleted"></div>
                            <div class="diff-stats">
                                <span class="added"> +8.07k</span>
                                <span class="deleted">   -480</span>
                            </div>
                            <span> </span>
                        </div>
                        <div class="field">
                            <div class="diff-box added"></div>
                            <div class="diff-box added"></div>
                            <div class="diff-box added"></div>
                            <div class="diff-box added"></div>
                            <div class="diff-box deleted"></div>
                            <div class="diff-stats">
                                <span class="added">   +982</span>
                                <span class="deleted">     -3</span>
                            </div>
                            <span> </span>
                        </div>
                        <div class="field">
                            <div class="diff-box added"></div>
                            <div class="diff-box added"></div>
                            <div class="diff-box added"></div>
                            <div class="diff-box added"></div>
                            <div class="diff-box deleted"></div>
                            <div class="diff-stats">
                                <span class="added">   +676</span>
                                <span class="deleted">     -3</span>
                            </div>
                            <span> </span>
                        </div>
                    </section>
                </div>
                <div class="row margin-bottom">
                    <h3 class="margin-lr-auto">Diff history</h3>
                    <svg xmlns="http://www.w3.org/2000/svg" width="480" height="315">
                        <g transform="translate(0,276)" fill="none" font-size="10" font-family="sans-serif" text-anchor="middle">
                            <path class="domain" stroke="currentColor" d="M39.5,6V0.5H441.5V6"/>
                            <g class="tick" opacity="1" transform="translate(56.21676587301587,0)">
                                <line stroke="currentColor" y2="6"/>
                                <text fill="currentColor" y="9" dy="0.71em" transform="translate(-5,5) rotate(-45)" style="text-anchor: end;">December</text>
                            </g>
                            <g class="tick" opacity="1" transform="translate(80.94295634920636,0)">
                                <line stroke="currentColor" y2="6"/>
                                <text fill="currentColor" y="9" dy="0.71em" transform="translate(-5,5) rotate(-45)" style="text-anchor: end;">2025</text>
                            </g>
                            <g class="tick" opacity="1" transform="translate(105.66914682539684,0)">
                                <line stroke="currentColor" y2="6"/>
                                <text fill="currentColor" y="9" dy="0.71em" transform="translate(-5,5) rotate(-45)" style="text-anchor: end;">February</text>
                            </g>
                            <g class="tick" opacity="1" transform="translate(128.00248015873018,0)">
                                <line stroke="currentColor" y2="6"/>
                                <text fill="currentColor" y="9" dy="0.71em" transform="translate(-5,5) rotate(-45)" style="text-anchor: end;">March</text>
                            </g>
                            <g class="tick" opacity="1" transform="translate(152.6954365079365,0)">
                                <line stroke="currentColor" y2="6"/>
                                <text fill="currentColor" y="9" dy="0.71em" transform="translate(-5,5) rotate(-45)" style="text-anchor: end;">April</text>
                            </g>
                            <g class="tick" opacity="1" transform="translate(176.62400793650792,0)">
                                <line stroke="currentColor" y2="6"/>
                                <text fill="currentColor" y="9" dy="0.71em" transform="translate(-5,5) rotate(-45)" style="text-anchor: end;">May</text>
                            </g>
                            <g class="tick" opacity="1" transform="translate(201.3501984126984,0)">
                                <line stroke="currentColor" y2="6"/>
                                <text fill="currentColor" y="9" dy="0.71em" transform="translate(-5,5) rotate(-45)" style="text-anchor: end;">June</text>
                            </g>
                            <g class="tick" opacity="1" transform="translate(225.27876984126982,0)">
                                <line stroke="currentColor" y2="6"/>
                                <text fill="currentColor" y="9" dy="0.71em" transform="translate(-5,5) rotate(-45)" style="text-anchor: end;">July</text>
                            </g>
                            <g class="tick" opacity="1" transform="translate(250.00496031746033,0)">
                                <line stroke="currentColor" y2="6"/>
                                <text fill="currentColor" y="9" dy="0.71em" transform="translate(-5,5) rotate(-45)" style="text-anchor: end;">August</text>
                            </g>
                            <g class="tick" opacity="1" transform="translate(274.7311507936508,0)">
                                <line stroke="currentColor" y2="6"/>
                                <text fill="currentColor" y="9" dy="0.71em" transform="translate(-5,5) rotate(-45)" style="text-anchor: end;">September</text>
                            </g>
                            <g class="tick" opacity="1" transform="translate(298.65972222222223,0)">
                                <line stroke="currentColor" y2="6"/>
                                <text fill="currentColor" y="9" dy="0.71em" transform="translate(-5,5) rotate(-45)" style="text-anchor: end;">October</text>
                            </g>
                            <g class="tick" opacity="1" transform="translate(323.41914682539687,0)">
                                <line stroke="currentColor" y2="6"/>
                                <text fill="currentColor" y="9" dy="0.71em" transform="translate(-5,5) rotate(-45)" style="text-anchor: end;">November</text>
                            </g>
                            <g class="tick" opacity="1" transform="translate(347.34771825396825,0)">
                                <line stroke="currentColor" y2="6"/>
                                <text fill="currentColor" y="9" dy="0.71em" transform="translate(-5,5) rotate(-45)" style="text-anchor: end;">December</text>
                            </g>
                            <g class="tick" opacity="1" transform="translate(372.07390873015873,0)">
                                <line stroke="currentColor" y2="6"/>
                                <text fill="currentColor" y="9" dy="0.71em" transform="translate(-5,5) rotate(-45)" style="text-anchor: end;">2026</text>
                            </g>
                            <g class="tick" opacity="1" transform="translate(396.8000992063492,0)">
                                <line stroke="currentColor" y2="6"/>
                                <text fill="currentColor" y="9" dy="0.71em" transform="translate(-5,5) rotate(-45)" style="text-anchor: end;">February</text>
                            </g>
                            <g class="tick" opacity="1" transform="translate(419.13343253968253,0)">
                                <line stroke="currentColor" y2="6"/>
                                <text fill="currentColor" y="9" dy="0.71em" transform="translate(-5,5) rotate(-45)" style="text-anchor: end;">March</text>
                            </g>
                        </g>
                        <g transform="translate(39,0)" fill="none" font-size="10" font-family="sans-serif" text-anchor="end">
                            <path class="domain" stroke="currentColor" d="M-6,5.5H0.5V276.5H-6"/>
                            <g class="tick" opacity="1" transform="translate(0,17.199177706715393)">
                                <line stroke="currentColor" x2="-6"/>
                                <text fill="currentColor" x="-9" dy="0.32em">6.0k</text>
                            </g>
                            <g class="tick" opacity="1" transform="translate(0,58.46611847114358)">
                                <line stroke="currentColor" x2="-6"/>
                                <text fill="currentColor" x="-9" dy="0.32em">4.0k</text>
                            </g>
                            <g class="tick" opacity="1" transform="translate(0,99.7330592355718)">
                                <line stroke="currentColor" x2="-6"/>
                                <text fill="currentColor" x="-9" dy="0.32em">2.0k</text>
                            </g>
                            <g class="tick" opacity="1" transform="translate(0,141)">
                                <line stroke="currentColor" x2="-6"/>
                                <text fill="currentColor" x="-9" dy="0.32em">0.0</text>
                            </g>
                            <g class="tick" opacity="1" transform="translate(0,182.2669407644282)">
                                <line stroke="currentColor" x2="-6"/>
                                <text fill="currentColor" x="-9" dy="0.32em">−2.0k</text>
                            </g>
                            <g class="tick" opacity="1" transform="translate(0,223.53388152885637)">
                                <line stroke="currentColor" x2="-6"/>
                                <text fill="currentColor" x="-9" dy="0.32em">−4.0k</text>
                            </g>
                            <g class="tick" opacity="1" transform="translate(0,264.8008222932846)">
                                <line stroke="currentColor" x2="-6"/>
                                <text fill="currentColor" x="-9" dy="0.32em">−6.0k</text>
                            </g>
                        </g>
                        <path d="M39,140.5L89.25,140.5L94.833,140.5L100.417,140.5L106,140.5L111.583,140.5L117.167,140.5L122.75,140.5L128.333,140.5L133.917,140.5L139.5,140.5L145.083,140.5L150.667,140.5L156.25,140.5L161.833,140.5L167.417,140.5L173,140.5L178.583,140.5L184.167,140.5L189.75,140.5L195.333,140.5L200.917,140.5L206.5,140.5L212.083,140.5L217.667,140.5L223.25,140.5L228.833,140.5L234.417,140.5L240,140.5L245.583,140.5L251.167,140.5L256.75,140.5L262.333,140.5L267.917,140.5L273.5,140.5L279.083,140.5L284.667,140.5L290.25,140.5L295.833,140.5L301.417,140.5L307,140.5L312.583,140.5L318.167,140.5L323.75,140.5L329.333,140.5L334.917,140.5L340.5,140.5L346.083,140.5L351.667,140.5L357.25,140.5L362.833,140.5L368.417,140.5L374,140.5L379.583,140.5L385.167,140.5L390.75,140.5L396.333,140.5L401.917,140.5L407.5,140.5L413.083,140.5L418.667,140.5L424.25,140.5L429.833,140.5L435.417,140.5L441,140.5L441,138.189L435.417,137.178L429.833,137.075L424.25,136.807L418.667,136.167L413.083,137.219L407.5,137.384L401.917,137.529L396.333,134.062L390.75,137.219L385.167,136.848L379.583,136.373L374,136.827L368.417,137.178L362.833,136.951L357.25,137.261L351.667,136.58L346.083,136.889L340.5,136.992L334.917,136.992L329.333,137.075L323.75,136.827L318.167,135.919L312.583,134.888L307,120.692L301.417,136.25L295.833,134.516L290.25,129.977L284.667,136.064L279.083,135.61L273.5,136.518L267.917,134.289L262.333,134L256.75,118.092L251.167,132.102L245.583,132.37L240,136.146L234.417,137.178L228.833,136.559L223.25,135.796L217.667,132.247L212.083,132.639L206.5,109.756L200.917,131.524L195.333,130.864L189.75,131.751L184.167,129.048L178.583,134.372L173,127.934L167.417,127.769L161.833,127.666L156.25,94.137L150.667,127.749L145.083,128.553L139.5,5L133.917,129.544L128.333,135.837L122.75,135.857L117.167,137.9L111.583,140.294L106,139.551L100.417,140.108L94.833,140.211L89.25,140.005L39,131.813Z" fill="rgb(63, 185, 80)"/>
                        <path d="M39,140.5L89.25,140.5L94.833,140.5L100.417,140.5L106,140.5L111.583,140.5L117.167,140.5L122.75,140.5L128.333,140.5L133.917,140.5L139.5,140.5L145.083,140.5L150.667,140.5L156.25,140.5L161.833,140.5L167.417,140.5L173,140.5L178.583,140.5L184.167,140.5L189.75,140.5L195.333,140.5L200.917,140.5L206.5,140.5L212.083,140.5L217.667,140.5L223.25,140.5L228.833,140.5L234.417,140.5L240,140.5L245.583,140.5L251.167,140.5L256.75,140.5L262.333,140.5L267.917,140.5L273.5,140.5L279.083,140.5L284.667,140.5L290.25,140.5L295.833,140.5L301.417,140.5L307,140.5L312.583,140.5L318.167,140.5L323.75,140.5L329.333,140.5L334.917,140.5L340.5,140.5L346.083,140.5L351.667,140.5L357.25,140.5L362.833,140.5L368.417,140.5L374,140.5L379.583,140.5L385.167,140.5L390.75,140.5L396.333,140.5L401.917,140.5L407.5,140.5L413.083,140.5L418.667,140.5L424.25,140.5L429.833,140.5L435.417,140.5L441,140.5L441,142.811L435.417,143.822L429.833,143.925L424.25,144.193L418.667,144.833L413.083,143.781L407.5,143.616L401.917,143.471L396.333,145.101L390.75,143.781L385.167,144.152L379.583,144.627L374,144.173L368.417,143.822L362.833,144.049L357.25,143.739L351.667,144.42L346.083,144.111L340.5,144.008L334.917,144.008L329.333,143.925L323.75,144.173L318.167,145.081L312.583,146.112L307,146.422L301.417,144.75L295.833,145.803L290.25,147.825L284.667,144.936L279.083,145.39L273.5,144.482L267.917,146.711L262.333,147L256.75,149.063L251.167,148.898L245.583,148.63L240,144.854L234.417,143.822L228.833,144.441L223.25,145.204L217.667,148.753L212.083,148.361L206.5,151.044L200.917,149.476L195.333,150.136L189.75,149.249L184.167,148.918L178.583,146.628L173,153.458L167.417,153.231L161.833,153.334L156.25,159.318L150.667,153.251L145.083,152.447L139.5,155.212L133.917,151.456L128.333,145.163L122.75,145.143L117.167,143.1L111.583,140.706L106,141.449L100.417,140.892L94.833,140.789L89.25,140.995L39,140.521Z" fill="rgb(218, 54, 51)"/>
                    </svg>
                </div>
            </section>
        </div>
        <div xmlns="http://www.w3.org/1999/xhtml" id="metrics-end"></div>
    </foreignObject>
</svg>