<svg xmlns="http://www.w3.org/2000/svg" width="480" height="516" class="">
    <defs>
        <style/>
    </defs>
    <style>@keyframes animation-gauge{0%{stroke-dasharray:0 329}}@keyframes animation-rainbow{0%,to{color:#7f00ff;fill:#7f00ff}14%{color:#a933ff;fill:#a933ff}29%{color:#007fff;fill:#007fff}43%{color:#00ff7f;fill:#00ff7f}57%{color:#ff0;fill:#ff0}71%{color:#ff7f00;fill:#ff7f00}86%{color:red;fill:red}}svg{font-family:-apple-system,BlinkMacSystemFont,Segoe UI,Helvetica,Arial,sans-serif,Apple Color Emoji,Segoe UI Emoji;color:#777}h2,h3{margin:8px 0 2px;padding:0;color:#0366d6;font-weight:400}h2 svg,h3 svg{fill:currentColor}h2{font-size:16px}h3,svg{font-size:14px}section&gt;.field{margin-left:5px;margin-right:5px}.field{display:flex;align-items:center;margin-bottom:2px;white-space:nowrap}.field svg{margin:0 8px;fill:#959da5;flex-shrink:0}.row{display:flex;flex-wrap:wrap}.row section{flex:1 1 0}.margin-bottom{margin-bottom:16px}.margin-lr-auto{margin-left:auto;margin-right:auto}.diff-handle{color:#58a6ff;max-width:200px;text-overflow:ellipsis;overflow:hidden}.diff-box{display:inline-block;width:8px;height:8px;margin-left:1px;background-color:rgba(110,118,129,.4);border:1px solid rgba(246,240,251,.1)}.diff-box:first-child{margin-left:9px}.diff-box.added{background-color:#3fb950}.diff-box.deleted{background-color:#da3633}.diff-stats,code,span.code{font-family:SFMono-Regular,Consolas,Liberation Mono,Menlo,monospace}.diff-stats{margin-left:4px;font-weight:700;font-size:12px;white-space:nowrap}.added{color:#3fb950}.deleted{color:#da3633}code,span.code{background-color:#7777771f;padding:1px 5px;font-size:80%;border-radius:6px;color:#777}code{display:inline-block}span.code{margin:0 4px -3px}:root{--color-calendar-graph-day-bg:#ebedf0;--color-calendar-graph-day-border:rgba(27,31,35,0.06);--color-calendar-graph-day-L1-bg:#9be9a8;--color-calendar-graph-day-L2-bg:#40c463;--color-calendar-graph-day-L3-bg:#30a14e;--color-calendar-graph-day-L4-bg:#216e39;--color-calendar-halloween-graph-day-L1-bg:#ffee4a;--color-calendar-halloween-graph-day-L2-bg:#ffc501;--color-calendar-halloween-graph-day-L3-bg:#fe9600;--color-calendar-halloween-graph-day-L4-bg:#03001c;--color-calendar-winter-graph-day-L1-bg:#0a3069;--color-calendar-winter-graph-day-L2-bg:#0969da;--color-calendar-winter-graph-day-L3-bg:#54aeff;--color-calendar-winter-graph-day-L4-bg:#b6e3ff;--color-calendar-graph-day-L4-border:rgba(27,31,35,0.06);--color-calendar-graph-day-L3-border:rgba(27,31,35,0.06);--color-calendar-graph-day-L2-border:rgba(27,31,35,0.06);--color-calendar-graph-day-L1-border:rgba(27,31,35,0.06)}#metrics-end{width:100%}</style>
    <style/>
    <foreignObject x="0" y="0" width="100%" height="100%">
        <div xmlns="http://www.w3.org/1999/xhtml" xmlns:xlink="http://www.w3.org/1999/xlink" class="items-wrapper">
            <section>
                <h2 class="field">
                    <svg xmlns="http://www.w3.org/2000/svg" viewBox="0 0 16 16" width="16" height="16">
                        <path fill-rule="evenodd" d="M2.75 1.5a.25.25 0 00-.25.25v12.5c0 .138.112.25.25.25h10.5a.25.25 0 00.25-.25V4.664a.25.25 0 00-.073-.177l-2.914-2.914a.25.25 0 00-.177-.073H2.75zM1 1.75C1 .784 1.784 0 2.75 0h7.586c.464 0 .909.184 1.237.513l2.914 2.914c.329.328.513.773.513 1.237v9.586A1.75 1.75 0 0113.25 16H2.75A1.75 1.75 0 011 14.25V1.75zm7 1.5a.75.75 0 01.75.75v1.5h1.5a.75.75 0 010 1.5h-1.5v1.5a.75.75 0 01-1.5 0V7h-1.5a.75.75 0 010-1.5h1.5V4A.75.75 0 018 3.25zm-3 8a.75.75 0 01.75-.75h4.5a.75.75 0 010 1.5h-4.5a.75.75 0 01-.75-.75z"/>
                    </svg>
                    Lines of code pushed
                </h2>
                <div class="row">
                    <section>
                        <div class="field">
                            <svg xmlns="http://www.w3.org/2000/svg" viewBox="0 0 16 16" width="16" height="16">
                                <path fill-rule="evenodd" d="M8 5.5a2.5 2.5 0 100 5 2.5 2.5 0 000-5zM4 8a4 4 0 118 0 4 4 0 01-8 0z"/>
                            </svg>
                            <span class="diff-handle">bstordrup/2dLearning</span>
                        </div>
                        <div class="field">
                            <svg xmlns="http://www.w3.org/2000/svg" viewBox="0 0 16 16" width="16" height="16">
                                <path fill-rule="evenodd" d="M8 5.5a2.5 2.5 0 100 5 2.5 2.5 0 000-5zM4 8a4 4 0 118 0 4 4 0 01-8 0z"/>
                            </svg>
                            <span class="diff-handle">bstordrup/bstordrup</span>
                        </div>
                        <div class="field">
                            <svg xmlns="http://www.w3.org/2000/svg" viewBox="0 0 16 16" width="16" height="16">
                                <path fill-rule="evenodd" d="M8 5.5a2.5 2.5 0 100 5 2.5 2.5 0 000-5zM4 8a4 4 0 118 0 4 4 0 01-8 0z"/>
                            </svg>
                            <span class="diff-handle">bstordrup/GeoJSONSquareCreator</span>
                        </div>
                        <div class="field">
                            <svg xmlns="http://www.w3.org/2000/svg" viewBox="0 0 16 16" width="16" height="16">
                                <path fill-rule="evenodd" d="M8 5.5a2.5 2.5 0 100 5 2.5 2.5 0 000-5zM4 8a4 4 0 118 0 4 4 0 01-8 0z"/>
                            </svg>
                            <span class="diff-handle">bstordrup/Universal3D_Test</span>
                        </div>
                    </section>
                    <section>
                        <div class="field">
                            <div class="diff-box added"></div>
                            <div class="diff-box added"></div>
                            <div class="diff-box added"></div>
                            <div class="diff-box added"></div>
                            <div class="diff-box deleted"></div>
                            <div class="diff-stats">
                                <span class="added">  +105k</span>
                                <span class="deleted">   -897</span>
                            </div>
                            <span> </span>
                        </div>
                        <div class="field">
                            <div class="diff-box added"></div>
                            <div class="diff-box added"></div>
                            <div class="diff-box added"></div>
                            <div class="diff-box deleted"></div>
                            <div class="diff-box deleted"></div>
                            <div class="diff-stats">
                                <span class="added"> +17.1k</span>
                                <span class="deleted"> -17.1k</span>
                            </div>
                            <span> </span>
                        </div>
                        <div class="field">
                            <div class="diff-box added"></div>
                            <div class="diff-box added"></div>
                            <div class="diff-box added"></div>
                            <div class="diff-box deleted"></div>
                            <div class="diff-box deleted"></div>
                            <div class="diff-stats">
                                <span class="added"> +5.08k</span>
                                <span class="deleted"> -4.19k</span>
                            </div>
                            <span> </span>
                        </div>
                        <div class="field">
                            <div class="diff-box added"></div>
                            <div class="diff-box added"></div>
                            <div class="diff-box added"></div>
                            <div class="diff-box added"></div>
                            <div class="diff-box deleted"></div>
                            <div class="diff-stats">
                                <span class="added"> +8.07k</span>
                                <span class="deleted">   -480</span>
                            </div>
                            <span> </span>
                        </div>
                    </section>
                </div>
                <div class="row margin-bottom">
                    <h3 class="margin-lr-auto">Diff history</h3>
                    <svg xmlns="http://www.w3.org/2000/svg" width="480" height="315">
                        <g transform="translate(0,276)" fill="none" font-size="10" font-family="sans-serif" text-anchor="middle">
                            <path class="domain" stroke="currentColor" d="M39.5,6V0.5H441.5V6"/>
                            <g class="tick" opacity="1" transform="translate(44.49607535321821,0)">
                                <line stroke="currentColor" y2="6"/>
                                <text fill="currentColor" y="9" dy="0.71em" transform="translate(-5,5) rotate(-45)" style="text-anchor: end;">July</text>
                            </g>
                            <g class="tick" opacity="1" transform="translate(102.55572998430142,0)">
                                <line stroke="currentColor" y2="6"/>
                                <text fill="currentColor" y="9" dy="0.71em" transform="translate(-5,5) rotate(-45)" style="text-anchor: end;">October</text>
                            </g>
                            <g class="tick" opacity="1" transform="translate(160.6416797488226,0)">
                                <line stroke="currentColor" y2="6"/>
                                <text fill="currentColor" y="9" dy="0.71em" transform="translate(-5,5) rotate(-45)" style="text-anchor: end;">2025</text>
                            </g>
                            <g class="tick" opacity="1" transform="translate(217.41287284144428,0)">
                                <line stroke="currentColor" y2="6"/>
                                <text fill="currentColor" y="9" dy="0.71em" transform="translate(-5,5) rotate(-45)" style="text-anchor: end;">April</text>
                            </g>
                            <g class="tick" opacity="1" transform="translate(274.8414442700157,0)">
                                <line stroke="currentColor" y2="6"/>
                                <text fill="currentColor" y="9" dy="0.71em" transform="translate(-5,5) rotate(-45)" style="text-anchor: end;">July</text>
                            </g>
                            <g class="tick" opacity="1" transform="translate(332.90109890109886,0)">
                                <line stroke="currentColor" y2="6"/>
                                <text fill="currentColor" y="9" dy="0.71em" transform="translate(-5,5) rotate(-45)" style="text-anchor: end;">October</text>
                            </g>
                            <g class="tick" opacity="1" transform="translate(390.9870486656201,0)">
                                <line stroke="currentColor" y2="6"/>
                                <text fill="currentColor" y="9" dy="0.71em" transform="translate(-5,5) rotate(-45)" style="text-anchor: end;">2026</text>
                            </g>
                        </g>
                        <g transform="translate(39,0)" fill="none" font-size="10" font-family="sans-serif" text-anchor="end">
                            <path class="domain" stroke="currentColor" d="M-6,5.5H0.5V276.5H-6"/>
                            <g class="tick" opacity="1" transform="translate(0,17.199177706715393)">
                                <line stroke="currentColor" x2="-6"/>
                                <text fill="currentColor" x="-9" dy="0.32em">6.0k</text>
                            </g>
                            <g class="tick" opacity="1" transform="translate(0,58.46611847114358)">
                                <line stroke="currentColor" x2="-6"/>
                                <text fill="currentColor" x="-9" dy="0.32em">4.0k</text>
                            </g>
                            <g class="tick" opacity="1" transform="translate(0,99.7330592355718)">
                                <line stroke="currentColor" x2="-6"/>
                                <text fill="currentColor" x="-9" dy="0.32em">2.0k</text>
                            </g>
                            <g class="tick" opacity="1" transform="translate(0,141)">
                                <line stroke="currentColor" x2="-6"/>
                                <text fill="currentColor" x="-9" dy="0.32em">0.0</text>
                            </g>
                            <g class="tick" opacity="1" transform="translate(0,182.2669407644282)">
                                <line stroke="currentColor" x2="-6"/>
                                <text fill="currentColor" x="-9" dy="0.32em">−2.0k</text>
                            </g>
                            <g class="tick" opacity="1" transform="translate(0,223.53388152885637)">
                                <line stroke="currentColor" x2="-6"/>
                                <text fill="currentColor" x="-9" dy="0.32em">−4.0k</text>
                            </g>
                            <g class="tick" opacity="1" transform="translate(0,264.8008222932846)">
                                <line stroke="currentColor" x2="-6"/>
                                <text fill="currentColor" x="-9" dy="0.32em">−6.0k</text>
                            </g>
                        </g>
                        <path d="M39,140.5L127.352,140.5L167.11,140.5L171.527,140.5L175.945,140.5L180.363,140.5L184.78,140.5L189.198,140.5L193.615,140.5L198.033,140.5L202.451,140.5L206.868,140.5L211.286,140.5L215.703,140.5L220.121,140.5L224.538,140.5L228.956,140.5L233.374,140.5L237.791,140.5L242.209,140.5L246.626,140.5L251.044,140.5L255.462,140.5L259.879,140.5L264.297,140.5L268.714,140.5L273.132,140.5L277.549,140.5L281.967,140.5L286.385,140.5L290.802,140.5L295.22,140.5L299.637,140.5L304.055,140.5L308.473,140.5L312.89,140.5L317.308,140.5L321.725,140.5L326.143,140.5L330.56,140.5L334.978,140.5L339.396,140.5L343.813,140.5L348.231,140.5L352.648,140.5L357.066,140.5L361.484,140.5L365.901,140.5L370.319,140.5L374.736,140.5L379.154,140.5L383.571,140.5L387.989,140.5L392.407,140.5L396.824,140.5L401.242,140.5L405.659,140.5L410.077,140.5L414.495,140.5L418.912,140.5L423.33,140.5L427.747,140.5L432.165,140.5L436.582,140.5L441,140.5L441,139.241L436.582,137.075L432.165,136.807L427.747,136.167L423.33,137.219L418.912,137.384L414.495,137.529L410.077,131.359L405.659,137.219L401.242,136.848L396.824,135.94L392.407,136.827L387.989,137.178L383.571,136.951L379.154,137.261L374.736,136.58L370.319,136.889L365.901,136.992L361.484,136.992L357.066,137.075L352.648,130.596L348.231,134.083L343.813,134.888L339.396,134.31L334.978,136.25L330.56,134.516L326.143,129.977L321.725,116.606L317.308,29.017L312.89,136.518L308.473,134.289L304.055,134L299.637,118.092L295.22,132.102L290.802,132.37L286.385,136.146L281.967,137.178L277.549,136.559L273.132,135.796L268.714,132.247L264.297,132.639L259.879,130.018L255.462,131.524L251.044,130.864L246.626,131.751L242.209,129.048L237.791,134.372L233.374,127.934L228.956,127.769L224.538,127.666L220.121,94.137L215.703,127.749L211.286,128.553L206.868,5L202.451,129.544L198.033,135.837L193.615,135.857L189.198,137.9L184.78,140.294L180.363,139.551L175.945,140.108L171.527,140.211L167.11,140.005L127.352,131.813L39,131.813Z" fill="rgb(63, 185, 80)"/>
                        <path d="M39,140.5L127.352,140.5L167.11,140.5L171.527,140.5L175.945,140.5L180.363,140.5L184.78,140.5L189.198,140.5L193.615,140.5L198.033,140.5L202.451,140.5L206.868,140.5L211.286,140.5L215.703,140.5L220.121,140.5L224.538,140.5L228.956,140.5L233.374,140.5L237.791,140.5L242.209,140.5L246.626,140.5L251.044,140.5L255.462,140.5L259.879,140.5L264.297,140.5L268.714,140.5L273.132,140.5L277.549,140.5L281.967,140.5L286.385,140.5L290.802,140.5L295.22,140.5L299.637,140.5L304.055,140.5L308.473,140.5L312.89,140.5L317.308,140.5L321.725,140.5L326.143,140.5L330.56,140.5L334.978,140.5L339.396,140.5L343.813,140.5L348.231,140.5L352.648,140.5L357.066,140.5L361.484,140.5L365.901,140.5L370.319,140.5L374.736,140.5L379.154,140.5L383.571,140.5L387.989,140.5L392.407,140.5L396.824,140.5L401.242,140.5L405.659,140.5L410.077,140.5L414.495,140.5L418.912,140.5L423.33,140.5L427.747,140.5L432.165,140.5L436.582,140.5L441,140.5L441,141.759L436.582,143.925L432.165,144.193L427.747,144.833L423.33,143.781L418.912,143.616L414.495,143.471L410.077,146.195L405.659,143.781L401.242,144.152L396.824,144.647L392.407,144.173L387.989,143.822L383.571,144.049L379.154,143.739L374.736,144.42L370.319,144.111L365.901,144.008L361.484,144.008L357.066,143.925L352.648,144.235L348.231,145.101L343.813,146.112L339.396,146.381L334.978,144.75L330.56,145.803L326.143,147.825L321.725,154.613L317.308,146.154L312.89,144.482L308.473,146.711L304.055,147L299.637,149.063L295.22,148.898L290.802,148.63L286.385,144.854L281.967,143.822L277.549,144.441L273.132,145.204L268.714,148.753L264.297,148.361L259.879,150.982L255.462,149.476L251.044,150.136L246.626,149.249L242.209,148.918L237.791,146.628L233.374,153.458L228.956,153.231L224.538,153.334L220.121,159.318L215.703,153.251L211.286,152.447L206.868,155.212L202.451,151.456L198.033,145.163L193.615,145.143L189.198,143.1L184.78,140.706L180.363,141.449L175.945,140.892L171.527,140.789L167.11,140.995L127.352,140.521L39,140.521Z" fill="rgb(218, 54, 51)"/>
                    </svg>
                </div>
            </section>
        </div>
        <div xmlns="http://www.w3.org/1999/xhtml" id="metrics-end"></div>
    </foreignObject>
</svg>