<svg xmlns="http://www.w3.org/2000/svg" width="480" height="516" class="">
    <defs>
        <style/>
    </defs>
    <style>@keyframes animation-gauge{0%{stroke-dasharray:0 329}}@keyframes animation-rainbow{0%,to{color:#7f00ff;fill:#7f00ff}14%{color:#a933ff;fill:#a933ff}29%{color:#007fff;fill:#007fff}43%{color:#00ff7f;fill:#00ff7f}57%{color:#ff0;fill:#ff0}71%{color:#ff7f00;fill:#ff7f00}86%{color:red;fill:red}}svg{font-family:-apple-system,BlinkMacSystemFont,Segoe UI,Helvetica,Arial,sans-serif,Apple Color Emoji,Segoe UI Emoji;color:#777}h2,h3{margin:8px 0 2px;padding:0;color:#0366d6;font-weight:400}h2 svg,h3 svg{fill:currentColor}h2{font-size:16px}h3,svg{font-size:14px}section&gt;.field{margin-left:5px;margin-right:5px}.field{display:flex;align-items:center;margin-bottom:2px;white-space:nowrap}.field svg{margin:0 8px;fill:#959da5;flex-shrink:0}.row{display:flex;flex-wrap:wrap}.row section{flex:1 1 0}.margin-bottom{margin-bottom:16px}.margin-lr-auto{margin-left:auto;margin-right:auto}.diff-handle{color:#58a6ff;max-width:200px;text-overflow:ellipsis;overflow:hidden}.diff-box{display:inline-block;width:8px;height:8px;margin-left:1px;background-color:rgba(110,118,129,.4);border:1px solid rgba(246,240,251,.1)}.diff-box:first-child{margin-left:9px}.diff-box.added{background-color:#3fb950}.diff-box.deleted{background-color:#da3633}.diff-stats,code,span.code{font-family:SFMono-Regular,Consolas,Liberation Mono,Menlo,monospace}.diff-stats{margin-left:4px;font-weight:700;font-size:12px;white-space:nowrap}.added{color:#3fb950}.deleted{color:#da3633}code,span.code{background-color:#7777771f;padding:1px 5px;font-size:80%;border-radius:6px;color:#777}code{display:inline-block}span.code{margin:0 4px -3px}:root{--color-calendar-graph-day-bg:#ebedf0;--color-calendar-graph-day-border:rgba(27,31,35,0.06);--color-calendar-graph-day-L1-bg:#9be9a8;--color-calendar-graph-day-L2-bg:#40c463;--color-calendar-graph-day-L3-bg:#30a14e;--color-calendar-graph-day-L4-bg:#216e39;--color-calendar-halloween-graph-day-L1-bg:#ffee4a;--color-calendar-halloween-graph-day-L2-bg:#ffc501;--color-calendar-halloween-graph-day-L3-bg:#fe9600;--color-calendar-halloween-graph-day-L4-bg:#03001c;--color-calendar-winter-graph-day-L1-bg:#0a3069;--color-calendar-winter-graph-day-L2-bg:#0969da;--color-calendar-winter-graph-day-L3-bg:#54aeff;--color-calendar-winter-graph-day-L4-bg:#b6e3ff;--color-calendar-graph-day-L4-border:rgba(27,31,35,0.06);--color-calendar-graph-day-L3-border:rgba(27,31,35,0.06);--color-calendar-graph-day-L2-border:rgba(27,31,35,0.06);--color-calendar-graph-day-L1-border:rgba(27,31,35,0.06)}#metrics-end{width:100%}</style>
    <style/>
    <foreignObject x="0" y="0" width="100%" height="100%">
        <div xmlns="http://www.w3.org/1999/xhtml" xmlns:xlink="http://www.w3.org/1999/xlink" class="items-wrapper">
            <section>
                <h2 class="field">
                    <svg xmlns="http://www.w3.org/2000/svg" viewBox="0 0 16 16" width="16" height="16">
                        <path fill-rule="evenodd" d="M2.75 1.5a.25.25 0 00-.25.25v12.5c0 .138.112.25.25.25h10.5a.25.25 0 00.25-.25V4.664a.25.25 0 00-.073-.177l-2.914-2.914a.25.25 0 00-.177-.073H2.75zM1 1.75C1 .784 1.784 0 2.75 0h7.586c.464 0 .909.184 1.237.513l2.914 2.914c.329.328.513.773.513 1.237v9.586A1.75 1.75 0 0113.25 16H2.75A1.75 1.75 0 011 14.25V1.75zm7 1.5a.75.75 0 01.75.75v1.5h1.5a.75.75 0 010 1.5h-1.5v1.5a.75.75 0 01-1.5 0V7h-1.5a.75.75 0 010-1.5h1.5V4A.75.75 0 018 3.25zm-3 8a.75.75 0 01.75-.75h4.5a.75.75 0 010 1.5h-4.5a.75.75 0 01-.75-.75z"/>
                    </svg>
                    Lines of code pushed
                </h2>
                <div class="row">
                    <section>
                        <div class="field">
                            <svg xmlns="http://www.w3.org/2000/svg" viewBox="0 0 16 16" width="16" height="16">
                                <path fill-rule="evenodd" d="M8 5.5a2.5 2.5 0 100 5 2.5 2.5 0 000-5zM4 8a4 4 0 118 0 4 4 0 01-8 0z"/>
                            </svg>
                            <span class="diff-handle">bstordrup/DockerScripts</span>
                        </div>
                        <div class="field">
                            <svg xmlns="http://www.w3.org/2000/svg" viewBox="0 0 16 16" width="16" height="16">
                                <path fill-rule="evenodd" d="M8 5.5a2.5 2.5 0 100 5 2.5 2.5 0 000-5zM4 8a4 4 0 118 0 4 4 0 01-8 0z"/>
                            </svg>
                            <span class="diff-handle">bstordrup/BestoFramework</span>
                        </div>
                        <div class="field">
                            <svg xmlns="http://www.w3.org/2000/svg" viewBox="0 0 16 16" width="16" height="16">
                                <path fill-rule="evenodd" d="M8 5.5a2.5 2.5 0 100 5 2.5 2.5 0 000-5zM4 8a4 4 0 118 0 4 4 0 01-8 0z"/>
                            </svg>
                            <span class="diff-handle">bstordrup/bstordrup</span>
                        </div>
                        <div class="field">
                            <svg xmlns="http://www.w3.org/2000/svg" viewBox="0 0 16 16" width="16" height="16">
                                <path fill-rule="evenodd" d="M8 5.5a2.5 2.5 0 100 5 2.5 2.5 0 000-5zM4 8a4 4 0 118 0 4 4 0 01-8 0z"/>
                            </svg>
                            <span class="diff-handle">bstordrup/Universal3D_Test</span>
                        </div>
                    </section>
                    <section>
                        <div class="field">
                            <div class="diff-box added"></div>
                            <div class="diff-box added"></div>
                            <div class="diff-box added"></div>
                            <div class="diff-box added"></div>
                            <div class="diff-box deleted"></div>
                            <div class="diff-stats">
                                <span class="added">  +327k</span>
                                <span class="deleted">   -386</span>
                            </div>
                            <span> </span>
                        </div>
                        <div class="field">
                            <div class="diff-box added"></div>
                            <div class="diff-box added"></div>
                            <div class="diff-box added"></div>
                            <div class="diff-box added"></div>
                            <div class="diff-box deleted"></div>
                            <div class="diff-stats">
                                <span class="added">  +137k</span>
                                <span class="deleted">   -114</span>
                            </div>
                            <span> </span>
                        </div>
                        <div class="field">
                            <div class="diff-box added"></div>
                            <div class="diff-box added"></div>
                            <div class="diff-box added"></div>
                            <div class="diff-box deleted"></div>
                            <div class="diff-box deleted"></div>
                            <div class="diff-stats">
                                <span class="added">   +17k</span>
                                <span class="deleted">   -17k</span>
                            </div>
                            <span> </span>
                        </div>
                        <div class="field">
                            <div class="diff-box added"></div>
                            <div class="diff-box added"></div>
                            <div class="diff-box added"></div>
                            <div class="diff-box added"></div>
                            <div class="diff-box deleted"></div>
                            <div class="diff-stats">
                                <span class="added"> +8.07k</span>
                                <span class="deleted">   -480</span>
                            </div>
                            <span> </span>
                        </div>
                    </section>
                </div>
                <div class="row margin-bottom">
                    <h3 class="margin-lr-auto">Diff history</h3>
                    <svg xmlns="http://www.w3.org/2000/svg" width="480" height="315">
                        <g transform="translate(0,276)" fill="none" font-size="10" font-family="sans-serif" text-anchor="middle">
                            <path class="domain" stroke="currentColor" d="M39.5,6V0.5H441.5V6"/>
                            <g class="tick" opacity="1" transform="translate(44.5515873015873,0)">
                                <line stroke="currentColor" y2="6"/>
                                <text fill="currentColor" y="9" dy="0.71em" transform="translate(-5,5) rotate(-45)" style="text-anchor: end;">July</text>
                            </g>
                            <g class="tick" opacity="1" transform="translate(103.2563492063492,0)">
                                <line stroke="currentColor" y2="6"/>
                                <text fill="currentColor" y="9" dy="0.71em" transform="translate(-5,5) rotate(-45)" style="text-anchor: end;">October</text>
                            </g>
                            <g class="tick" opacity="1" transform="translate(161.98769841269842,0)">
                                <line stroke="currentColor" y2="6"/>
                                <text fill="currentColor" y="9" dy="0.71em" transform="translate(-5,5) rotate(-45)" style="text-anchor: end;">2025</text>
                            </g>
                            <g class="tick" opacity="1" transform="translate(219.38968253968255,0)">
                                <line stroke="currentColor" y2="6"/>
                                <text fill="currentColor" y="9" dy="0.71em" transform="translate(-5,5) rotate(-45)" style="text-anchor: end;">April</text>
                            </g>
                            <g class="tick" opacity="1" transform="translate(277.4563492063492,0)">
                                <line stroke="currentColor" y2="6"/>
                                <text fill="currentColor" y="9" dy="0.71em" transform="translate(-5,5) rotate(-45)" style="text-anchor: end;">July</text>
                            </g>
                            <g class="tick" opacity="1" transform="translate(336.1611111111111,0)">
                                <line stroke="currentColor" y2="6"/>
                                <text fill="currentColor" y="9" dy="0.71em" transform="translate(-5,5) rotate(-45)" style="text-anchor: end;">October</text>
                            </g>
                            <g class="tick" opacity="1" transform="translate(394.8924603174603,0)">
                                <line stroke="currentColor" y2="6"/>
                                <text fill="currentColor" y="9" dy="0.71em" transform="translate(-5,5) rotate(-45)" style="text-anchor: end;">2026</text>
                            </g>
                        </g>
                        <g transform="translate(39,0)" fill="none" font-size="10" font-family="sans-serif" text-anchor="end">
                            <path class="domain" stroke="currentColor" d="M-6,5.5H0.5V276.5H-6"/>
                            <g class="tick" opacity="1" transform="translate(0,16.29642025566535)">
                                <line stroke="currentColor" x2="-6"/>
                                <text fill="currentColor" x="-9" dy="0.32em">300k</text>
                            </g>
                            <g class="tick" opacity="1" transform="translate(0,57.86428017044356)">
                                <line stroke="currentColor" x2="-6"/>
                                <text fill="currentColor" x="-9" dy="0.32em">200k</text>
                            </g>
                            <g class="tick" opacity="1" transform="translate(0,99.4321400852218)">
                                <line stroke="currentColor" x2="-6"/>
                                <text fill="currentColor" x="-9" dy="0.32em">100k</text>
                            </g>
                            <g class="tick" opacity="1" transform="translate(0,141)">
                                <line stroke="currentColor" x2="-6"/>
                                <text fill="currentColor" x="-9" dy="0.32em">0.0</text>
                            </g>
                            <g class="tick" opacity="1" transform="translate(0,182.56785991477824)">
                                <line stroke="currentColor" x2="-6"/>
                                <text fill="currentColor" x="-9" dy="0.32em">−100k</text>
                            </g>
                            <g class="tick" opacity="1" transform="translate(0,224.13571982955642)">
                                <line stroke="currentColor" x2="-6"/>
                                <text fill="currentColor" x="-9" dy="0.32em">−200k</text>
                            </g>
                            <g class="tick" opacity="1" transform="translate(0,265.70357974433466)">
                                <line stroke="currentColor" x2="-6"/>
                                <text fill="currentColor" x="-9" dy="0.32em">−300k</text>
                            </g>
                        </g>
                        <path d="M39,140.5L128.333,140.5L137.267,140.5L168.533,140.5L173,140.5L177.467,140.5L181.933,140.5L186.4,140.5L190.867,140.5L195.333,140.5L199.8,140.5L204.267,140.5L208.733,140.5L213.2,140.5L217.667,140.5L222.133,140.5L226.6,140.5L231.067,140.5L235.533,140.5L240,140.5L244.467,140.5L248.933,140.5L253.4,140.5L257.867,140.5L262.333,140.5L266.8,140.5L271.267,140.5L275.733,140.5L280.2,140.5L284.667,140.5L289.133,140.5L293.6,140.5L298.067,140.5L302.533,140.5L307,140.5L311.467,140.5L315.933,140.5L320.4,140.5L324.867,140.5L329.333,140.5L333.8,140.5L338.267,140.5L342.733,140.5L347.2,140.5L351.667,140.5L356.133,140.5L360.6,140.5L365.067,140.5L369.533,140.5L374,140.5L378.467,140.5L382.933,140.5L387.4,140.5L391.867,140.5L396.333,140.5L400.8,140.5L405.267,140.5L409.733,140.5L414.2,140.5L418.667,140.5L423.133,140.5L427.6,140.5L432.067,140.5L436.533,140.5L441,140.5L441,140.468L436.533,140.426L432.067,140.413L427.6,140.434L423.133,140.437L418.667,140.279L414.2,140.37L409.733,140.434L405.267,140.426L400.8,140.417L396.333,140.426L391.867,140.433L387.4,140.429L382.933,140.435L378.467,140.421L374,140.427L369.533,140.429L365.067,140.429L360.6,140.431L356.133,140.426L351.667,140.063L347.2,140.387L342.733,139.348L338.267,140.414L333.8,140.379L329.333,140.288L324.867,139.938L320.4,139.018L315.933,140.42L311.467,140.375L307,140.369L302.533,140.049L298.067,140.331L293.6,140.336L289.133,140.412L284.667,140.433L280.2,140.421L275.733,140.405L271.267,140.272L266.8,140.342L262.333,140.289L257.867,140.319L253.4,140.306L248.933,140.324L244.467,140.269L240,140.377L235.533,140.247L231.067,140.244L226.6,140.066L222.133,82.879L217.667,139.901L213.2,140.259L208.733,137.77L204.267,140.279L199.8,140.391L195.333,140.406L190.867,140.448L186.4,140.496L181.933,140.481L177.467,140.492L173,140.494L168.533,140.49L137.267,5L128.333,140.325L39,140.325Z" fill="rgb(63, 185, 80)"/>
                        <path d="M39,140.5L128.333,140.5L137.267,140.5L168.533,140.5L173,140.5L177.467,140.5L181.933,140.5L186.4,140.5L190.867,140.5L195.333,140.5L199.8,140.5L204.267,140.5L208.733,140.5L213.2,140.5L217.667,140.5L222.133,140.5L226.6,140.5L231.067,140.5L235.533,140.5L240,140.5L244.467,140.5L248.933,140.5L253.4,140.5L257.867,140.5L262.333,140.5L266.8,140.5L271.267,140.5L275.733,140.5L280.2,140.5L284.667,140.5L289.133,140.5L293.6,140.5L298.067,140.5L302.533,140.5L307,140.5L311.467,140.5L315.933,140.5L320.4,140.5L324.867,140.5L329.333,140.5L333.8,140.5L338.267,140.5L342.733,140.5L347.2,140.5L351.667,140.5L356.133,140.5L360.6,140.5L365.067,140.5L369.533,140.5L374,140.5L378.467,140.5L382.933,140.5L387.4,140.5L391.867,140.5L396.333,140.5L400.8,140.5L405.267,140.5L409.733,140.5L414.2,140.5L418.667,140.5L423.133,140.5L427.6,140.5L432.067,140.5L436.533,140.5L441,140.5L441,140.532L436.533,140.574L432.067,140.587L427.6,140.566L423.133,140.563L418.667,140.628L414.2,140.593L409.733,140.566L405.267,140.574L400.8,140.583L396.333,140.574L391.867,140.567L387.4,140.571L382.933,140.565L378.467,140.579L374,140.573L369.533,140.571L365.067,140.571L360.6,140.569L356.133,140.574L351.667,141.005L347.2,140.613L342.733,140.914L338.267,140.586L333.8,140.607L329.333,140.648L324.867,140.832L320.4,140.71L315.933,140.58L311.467,140.625L307,140.631L302.533,140.673L298.067,140.669L293.6,140.664L289.133,140.588L284.667,140.567L280.2,140.579L275.733,140.595L271.267,140.734L266.8,140.658L262.333,140.711L257.867,140.681L253.4,140.694L248.933,140.676L244.467,140.67L240,140.623L235.533,140.761L231.067,140.756L226.6,140.759L222.133,140.885L217.667,140.8L213.2,140.741L208.733,140.796L204.267,140.721L199.8,140.608L195.333,140.594L190.867,140.552L186.4,140.504L181.933,140.519L177.467,140.508L173,140.506L168.533,140.51L137.267,140.502L128.333,140.5L39,140.5Z" fill="rgb(218, 54, 51)"/>
                    </svg>
                </div>
            </section>
        </div>
        <div xmlns="http://www.w3.org/1999/xhtml" id="metrics-end"></div>
    </foreignObject>
</svg>