<svg xmlns="http://www.w3.org/2000/svg" width="480" height="516" class="">
    <defs>
        <style/>
    </defs>
    <style>@keyframes animation-gauge{0%{stroke-dasharray:0 329}}@keyframes animation-rainbow{0%,to{color:#7f00ff;fill:#7f00ff}14%{color:#a933ff;fill:#a933ff}29%{color:#007fff;fill:#007fff}43%{color:#00ff7f;fill:#00ff7f}57%{color:#ff0;fill:#ff0}71%{color:#ff7f00;fill:#ff7f00}86%{color:red;fill:red}}svg{font-family:-apple-system,BlinkMacSystemFont,Segoe UI,Helvetica,Arial,sans-serif,Apple Color Emoji,Segoe UI Emoji;color:#777}h2,h3{margin:8px 0 2px;padding:0;color:#0366d6;font-weight:400}h2 svg,h3 svg{fill:currentColor}h2{font-size:16px}h3,svg{font-size:14px}section&gt;.field{margin-left:5px;margin-right:5px}.field{display:flex;align-items:center;margin-bottom:2px;white-space:nowrap}.field svg{margin:0 8px;fill:#959da5;flex-shrink:0}.row{display:flex;flex-wrap:wrap}.row section{flex:1 1 0}.margin-bottom{margin-bottom:16px}.margin-lr-auto{margin-left:auto;margin-right:auto}.diff-handle{color:#58a6ff;max-width:200px;text-overflow:ellipsis;overflow:hidden}.diff-box{display:inline-block;width:8px;height:8px;margin-left:1px;background-color:rgba(110,118,129,.4);border:1px solid rgba(246,240,251,.1)}.diff-box:first-child{margin-left:9px}.diff-box.added{background-color:#3fb950}.diff-box.deleted{background-color:#da3633}.diff-stats,code,span.code{font-family:SFMono-Regular,Consolas,Liberation Mono,Menlo,monospace}.diff-stats{margin-left:4px;font-weight:700;font-size:12px;white-space:nowrap}.added{color:#3fb950}.deleted{color:#da3633}code,span.code{background-color:#7777771f;padding:1px 5px;font-size:80%;border-radius:6px;color:#777}code{display:inline-block}span.code{margin:0 4px -3px}:root{--color-calendar-graph-day-bg:#ebedf0;--color-calendar-graph-day-border:rgba(27,31,35,0.06);--color-calendar-graph-day-L1-bg:#9be9a8;--color-calendar-graph-day-L2-bg:#40c463;--color-calendar-graph-day-L3-bg:#30a14e;--color-calendar-graph-day-L4-bg:#216e39;--color-calendar-halloween-graph-day-L1-bg:#ffee4a;--color-calendar-halloween-graph-day-L2-bg:#ffc501;--color-calendar-halloween-graph-day-L3-bg:#fe9600;--color-calendar-halloween-graph-day-L4-bg:#03001c;--color-calendar-winter-graph-day-L1-bg:#0a3069;--color-calendar-winter-graph-day-L2-bg:#0969da;--color-calendar-winter-graph-day-L3-bg:#54aeff;--color-calendar-winter-graph-day-L4-bg:#b6e3ff;--color-calendar-graph-day-L4-border:rgba(27,31,35,0.06);--color-calendar-graph-day-L3-border:rgba(27,31,35,0.06);--color-calendar-graph-day-L2-border:rgba(27,31,35,0.06);--color-calendar-graph-day-L1-border:rgba(27,31,35,0.06)}#metrics-end{width:100%}</style>
    <style/>
    <foreignObject x="0" y="0" width="100%" height="100%">
        <div xmlns="http://www.w3.org/1999/xhtml" xmlns:xlink="http://www.w3.org/1999/xlink" class="items-wrapper">
            <section>
                <h2 class="field">
                    <svg xmlns="http://www.w3.org/2000/svg" viewBox="0 0 16 16" width="16" height="16">
                        <path fill-rule="evenodd" d="M2.75 1.5a.25.25 0 00-.25.25v12.5c0 .138.112.25.25.25h10.5a.25.25 0 00.25-.25V4.664a.25.25 0 00-.073-.177l-2.914-2.914a.25.25 0 00-.177-.073H2.75zM1 1.75C1 .784 1.784 0 2.75 0h7.586c.464 0 .909.184 1.237.513l2.914 2.914c.329.328.513.773.513 1.237v9.586A1.75 1.75 0 0113.25 16H2.75A1.75 1.75 0 011 14.25V1.75zm7 1.5a.75.75 0 01.75.75v1.5h1.5a.75.75 0 010 1.5h-1.5v1.5a.75.75 0 01-1.5 0V7h-1.5a.75.75 0 010-1.5h1.5V4A.75.75 0 018 3.25zm-3 8a.75.75 0 01.75-.75h4.5a.75.75 0 010 1.5h-4.5a.75.75 0 01-.75-.75z"/>
                    </svg>
                    Lines of code pushed
                </h2>
                <div class="row">
                    <section>
                        <div class="field">
                            <svg xmlns="http://www.w3.org/2000/svg" viewBox="0 0 16 16" width="16" height="16">
                                <path fill-rule="evenodd" d="M8 5.5a2.5 2.5 0 100 5 2.5 2.5 0 000-5zM4 8a4 4 0 118 0 4 4 0 01-8 0z"/>
                            </svg>
                            <span class="diff-handle">bstordrup/DockerScripts</span>
                        </div>
                        <div class="field">
                            <svg xmlns="http://www.w3.org/2000/svg" viewBox="0 0 16 16" width="16" height="16">
                                <path fill-rule="evenodd" d="M8 5.5a2.5 2.5 0 100 5 2.5 2.5 0 000-5zM4 8a4 4 0 118 0 4 4 0 01-8 0z"/>
                            </svg>
                            <span class="diff-handle">bstordrup/BestoFramework</span>
                        </div>
                        <div class="field">
                            <svg xmlns="http://www.w3.org/2000/svg" viewBox="0 0 16 16" width="16" height="16">
                                <path fill-rule="evenodd" d="M8 5.5a2.5 2.5 0 100 5 2.5 2.5 0 000-5zM4 8a4 4 0 118 0 4 4 0 01-8 0z"/>
                            </svg>
                            <span class="diff-handle">bstordrup/2dLearning</span>
                        </div>
                        <div class="field">
                            <svg xmlns="http://www.w3.org/2000/svg" viewBox="0 0 16 16" width="16" height="16">
                                <path fill-rule="evenodd" d="M8 5.5a2.5 2.5 0 100 5 2.5 2.5 0 000-5zM4 8a4 4 0 118 0 4 4 0 01-8 0z"/>
                            </svg>
                            <span class="diff-handle">bstordrup/Unity_Factory</span>
                        </div>
                    </section>
                    <section>
                        <div class="field">
                            <div class="diff-box added"></div>
                            <div class="diff-box added"></div>
                            <div class="diff-box added"></div>
                            <div class="diff-box added"></div>
                            <div class="diff-box deleted"></div>
                            <div class="diff-stats">
                                <span class="added">  +327k</span>
                                <span class="deleted">   -386</span>
                            </div>
                            <span> </span>
                        </div>
                        <div class="field">
                            <div class="diff-box added"></div>
                            <div class="diff-box added"></div>
                            <div class="diff-box added"></div>
                            <div class="diff-box added"></div>
                            <div class="diff-box deleted"></div>
                            <div class="diff-stats">
                                <span class="added">  +137k</span>
                                <span class="deleted">   -114</span>
                            </div>
                            <span> </span>
                        </div>
                        <div class="field">
                            <div class="diff-box added"></div>
                            <div class="diff-box added"></div>
                            <div class="diff-box added"></div>
                            <div class="diff-box added"></div>
                            <div class="diff-box deleted"></div>
                            <div class="diff-stats">
                                <span class="added">  +105k</span>
                                <span class="deleted">   -897</span>
                            </div>
                            <span> </span>
                        </div>
                        <div class="field">
                            <div class="diff-box added"></div>
                            <div class="diff-box added"></div>
                            <div class="diff-box added"></div>
                            <div class="diff-box added"></div>
                            <div class="diff-box deleted"></div>
                            <div class="diff-stats">
                                <span class="added"> +26.3k</span>
                                <span class="deleted"> -2.09k</span>
                            </div>
                            <span> </span>
                        </div>
                    </section>
                </div>
                <div class="row margin-bottom">
                    <h3 class="margin-lr-auto">Diff history</h3>
                    <svg xmlns="http://www.w3.org/2000/svg" width="480" height="315">
                        <g transform="translate(0,276)" fill="none" font-size="10" font-family="sans-serif" text-anchor="middle">
                            <path class="domain" stroke="currentColor" d="M39.5,6V0.5H441.5V6"/>
                            <g class="tick" opacity="1" transform="translate(69.21493506493508,0)">
                                <line stroke="currentColor" y2="6"/>
                                <text fill="currentColor" y="9" dy="0.71em" transform="translate(-5,5) rotate(-45)" style="text-anchor: end;">April</text>
                            </g>
                            <g class="tick" opacity="1" transform="translate(116.72402597402598,0)">
                                <line stroke="currentColor" y2="6"/>
                                <text fill="currentColor" y="9" dy="0.71em" transform="translate(-5,5) rotate(-45)" style="text-anchor: end;">July</text>
                            </g>
                            <g class="tick" opacity="1" transform="translate(164.7551948051948,0)">
                                <line stroke="currentColor" y2="6"/>
                                <text fill="currentColor" y="9" dy="0.71em" transform="translate(-5,5) rotate(-45)" style="text-anchor: end;">October</text>
                            </g>
                            <g class="tick" opacity="1" transform="translate(212.8081168831169,0)">
                                <line stroke="currentColor" y2="6"/>
                                <text fill="currentColor" y="9" dy="0.71em" transform="translate(-5,5) rotate(-45)" style="text-anchor: end;">2025</text>
                            </g>
                            <g class="tick" opacity="1" transform="translate(259.77337662337663,0)">
                                <line stroke="currentColor" y2="6"/>
                                <text fill="currentColor" y="9" dy="0.71em" transform="translate(-5,5) rotate(-45)" style="text-anchor: end;">April</text>
                            </g>
                            <g class="tick" opacity="1" transform="translate(307.28246753246754,0)">
                                <line stroke="currentColor" y2="6"/>
                                <text fill="currentColor" y="9" dy="0.71em" transform="translate(-5,5) rotate(-45)" style="text-anchor: end;">July</text>
                            </g>
                            <g class="tick" opacity="1" transform="translate(355.3136363636364,0)">
                                <line stroke="currentColor" y2="6"/>
                                <text fill="currentColor" y="9" dy="0.71em" transform="translate(-5,5) rotate(-45)" style="text-anchor: end;">October</text>
                            </g>
                            <g class="tick" opacity="1" transform="translate(403.3665584415585,0)">
                                <line stroke="currentColor" y2="6"/>
                                <text fill="currentColor" y="9" dy="0.71em" transform="translate(-5,5) rotate(-45)" style="text-anchor: end;">2026</text>
                            </g>
                        </g>
                        <g transform="translate(39,0)" fill="none" font-size="10" font-family="sans-serif" text-anchor="end">
                            <path class="domain" stroke="currentColor" d="M-6,5.5H0.5V276.5H-6"/>
                            <g class="tick" opacity="1" transform="translate(0,16.29642025566535)">
                                <line stroke="currentColor" x2="-6"/>
                                <text fill="currentColor" x="-9" dy="0.32em">300k</text>
                            </g>
                            <g class="tick" opacity="1" transform="translate(0,57.86428017044356)">
                                <line stroke="currentColor" x2="-6"/>
                                <text fill="currentColor" x="-9" dy="0.32em">200k</text>
                            </g>
                            <g class="tick" opacity="1" transform="translate(0,99.4321400852218)">
                                <line stroke="currentColor" x2="-6"/>
                                <text fill="currentColor" x="-9" dy="0.32em">100k</text>
                            </g>
                            <g class="tick" opacity="1" transform="translate(0,141)">
                                <line stroke="currentColor" x2="-6"/>
                                <text fill="currentColor" x="-9" dy="0.32em">0.0</text>
                            </g>
                            <g class="tick" opacity="1" transform="translate(0,182.56785991477824)">
                                <line stroke="currentColor" x2="-6"/>
                                <text fill="currentColor" x="-9" dy="0.32em">−100k</text>
                            </g>
                            <g class="tick" opacity="1" transform="translate(0,224.13571982955642)">
                                <line stroke="currentColor" x2="-6"/>
                                <text fill="currentColor" x="-9" dy="0.32em">−200k</text>
                            </g>
                            <g class="tick" opacity="1" transform="translate(0,265.70357974433466)">
                                <line stroke="currentColor" x2="-6"/>
                                <text fill="currentColor" x="-9" dy="0.32em">−300k</text>
                            </g>
                        </g>
                        <path d="M39,140.5L42.655,140.5L82.855,140.5L86.509,140.5L90.164,140.5L112.091,140.5L159.6,140.5L185.182,140.5L192.491,140.5L218.073,140.5L221.727,140.5L225.382,140.5L229.036,140.5L232.691,140.5L236.345,140.5L240,140.5L243.655,140.5L247.309,140.5L250.964,140.5L254.618,140.5L258.273,140.5L261.927,140.5L265.582,140.5L269.236,140.5L272.891,140.5L276.545,140.5L280.2,140.5L283.855,140.5L287.509,140.5L291.164,140.5L294.818,140.5L298.473,140.5L302.127,140.5L305.782,140.5L309.436,140.5L313.091,140.5L316.745,140.5L320.4,140.5L324.055,140.5L327.709,140.5L331.364,140.5L335.018,140.5L338.673,140.5L342.327,140.5L345.982,140.5L349.636,140.5L353.291,140.5L356.945,140.5L360.6,140.5L364.255,140.5L367.909,140.5L371.564,140.5L375.218,140.5L378.873,140.5L382.527,140.5L386.182,140.5L389.836,140.5L393.491,140.5L397.145,140.5L400.8,140.5L404.455,140.5L408.109,140.5L411.764,140.5L415.418,140.5L419.073,140.5L422.727,140.5L426.382,140.5L430.036,140.5L433.691,140.5L437.345,140.5L441,140.5L441,140.451L437.345,140.426L433.691,140.413L430.036,140.434L426.382,140.437L422.727,140.279L419.073,140.316L415.418,140.434L411.764,140.426L408.109,140.408L404.455,140.426L400.8,140.433L397.145,140.429L393.491,140.435L389.836,140.421L386.182,140.427L382.527,140.429L378.873,140.429L375.218,140.431L371.564,140.3L367.909,140.026L364.255,140.387L360.6,139.341L356.945,140.414L353.291,140.379L349.636,140.288L345.982,140.33L342.327,137.805L338.673,140.42L335.018,140.375L331.364,140.369L327.709,140.049L324.055,140.331L320.4,140.336L316.745,140.412L313.091,140.433L309.436,140.421L305.782,140.405L302.127,140.272L298.473,140.342L294.818,140.289L291.164,140.319L287.509,140.306L283.855,140.324L280.2,140.269L276.545,140.377L272.891,140.247L269.236,140.244L265.582,140.066L261.927,82.879L258.273,139.901L254.618,140.259L250.964,137.77L247.309,140.279L243.655,140.391L240,140.406L236.345,140.448L232.691,140.496L229.036,140.481L225.382,140.492L221.727,140.494L218.073,140.49L192.491,5L185.182,140.325L159.6,140.022L112.091,140.325L90.164,140.314L86.509,138.918L82.855,133.464L42.655,138.371L39,140.469Z" fill="rgb(63, 185, 80)"/>
                        <path d="M39,140.5L42.655,140.5L82.855,140.5L86.509,140.5L90.164,140.5L112.091,140.5L159.6,140.5L185.182,140.5L192.491,140.5L218.073,140.5L221.727,140.5L225.382,140.5L229.036,140.5L232.691,140.5L236.345,140.5L240,140.5L243.655,140.5L247.309,140.5L250.964,140.5L254.618,140.5L258.273,140.5L261.927,140.5L265.582,140.5L269.236,140.5L272.891,140.5L276.545,140.5L280.2,140.5L283.855,140.5L287.509,140.5L291.164,140.5L294.818,140.5L298.473,140.5L302.127,140.5L305.782,140.5L309.436,140.5L313.091,140.5L316.745,140.5L320.4,140.5L324.055,140.5L327.709,140.5L331.364,140.5L335.018,140.5L338.673,140.5L342.327,140.5L345.982,140.5L349.636,140.5L353.291,140.5L356.945,140.5L360.6,140.5L364.255,140.5L367.909,140.5L371.564,140.5L375.218,140.5L378.873,140.5L382.527,140.5L386.182,140.5L389.836,140.5L393.491,140.5L397.145,140.5L400.8,140.5L404.455,140.5L408.109,140.5L411.764,140.5L415.418,140.5L419.073,140.5L422.727,140.5L426.382,140.5L430.036,140.5L433.691,140.5L437.345,140.5L441,140.5L441,140.549L437.345,140.574L433.691,140.587L430.036,140.566L426.382,140.563L422.727,140.628L419.073,140.615L415.418,140.566L411.764,140.574L408.109,140.584L404.455,140.574L400.8,140.567L397.145,140.571L393.491,140.565L389.836,140.579L386.182,140.573L382.527,140.571L378.873,140.571L375.218,140.569L371.564,140.575L367.909,141.006L364.255,140.613L360.6,140.914L356.945,140.586L353.291,140.607L349.636,140.648L345.982,140.637L342.327,140.696L338.673,140.58L335.018,140.625L331.364,140.631L327.709,140.673L324.055,140.669L320.4,140.664L316.745,140.588L313.091,140.567L309.436,140.579L305.782,140.595L302.127,140.734L298.473,140.658L294.818,140.711L291.164,140.681L287.509,140.694L283.855,140.676L280.2,140.67L276.545,140.623L272.891,140.761L269.236,140.756L265.582,140.759L261.927,140.885L258.273,140.8L254.618,140.741L250.964,140.796L247.309,140.721L243.655,140.608L240,140.594L236.345,140.552L232.691,140.504L229.036,140.519L225.382,140.508L221.727,140.506L218.073,140.51L192.491,140.502L185.182,140.5L159.6,140.709L112.091,140.5L90.164,140.503L86.509,141.158L82.855,140.676L42.655,140.53L39,140.5Z" fill="rgb(218, 54, 51)"/>
                    </svg>
                </div>
            </section>
        </div>
        <div xmlns="http://www.w3.org/1999/xhtml" id="metrics-end"></div>
    </foreignObject>
</svg>